<?xml version="1.0" encoding="utf-8"?>
<!-- Generator: Adobe Illustrator 24.0.1, SVG Export Plug-In . SVG Version: 6.00 Build 0)  -->
<svg version="1.1" xmlns="http://www.w3.org/2000/svg" xmlns:xlink="http://www.w3.org/1999/xlink" x="0px" y="0px"
	 viewBox="0 0 500 500" style="enable-background:new 0 0 500 500;" xml:space="preserve">
<style type="text/css">
	.st0{fill:#FFFFFF;}
	.st1{fill:#C8EEFB;}
	.st2{fill:#5084DA;}
	.st3{fill:#5193F4;}
	.st4{opacity:0.4;}
	.st5{opacity:0.2278;}
	.st6{opacity:0.5;fill:#605ACA;}
	.st7{fill:#4CA1FF;}
	.st8{fill:#52D2BC;}
	.st9{fill:none;stroke:#00AD9F;stroke-linecap:round;stroke-linejoin:round;stroke-miterlimit:10;}
	.st10{opacity:0.31;fill:none;stroke:#0B43A4;stroke-linecap:round;stroke-linejoin:round;stroke-miterlimit:10;}
	.st11{fill:#4A84D8;}
	.st12{fill:#00AD9F;}
	.st13{opacity:0.5;}
	.st14{fill:#7EE8D4;}
	.st15{opacity:0.37;fill:#5A4FD1;}
	.st16{fill:#0056EC;}
	.st17{clip-path:url(#SVGID_2_);fill:#5084DA;}
	.st18{opacity:0.09;}
	.st19{opacity:0.3;fill:#94EBFF;}
	.st20{opacity:0.5;fill:#94EBFF;}
	.st21{fill:#F9714E;}
	.st22{opacity:0.4;fill:#F9714E;}
	.st23{fill:#FFB255;}
	.st24{opacity:0.4;fill:#FFB255;}
	.st25{fill:#FFC2D3;}
	.st26{fill:#2E2C84;}
	.st27{opacity:0.3;}
	.st28{opacity:0.5;fill:#2E2C84;}
	.st29{fill:#001F64;}
	.st30{fill:#8FC2FF;}
	.st31{opacity:0.3;fill:#8FC2FF;}
	.st32{opacity:0.3;fill:#FFC2D3;}
	.st33{opacity:0.5;fill:#FFC87C;}
	.st34{fill:#F9ACC8;}
	.st35{opacity:0.1;}
	.st36{fill:#4B48B5;}
	.st37{fill:#568EDB;}
	.st38{fill:#5E9CE4;}
	.st39{opacity:0.16;}
	.st40{fill:#4E84D9;}
	.st41{opacity:0.3;fill:#F9714E;}
	.st42{fill:none;stroke:#086356;stroke-linecap:round;stroke-linejoin:round;stroke-miterlimit:10;}
</style>
<g id="BACKGROUND">
	<rect class="st0" width="500" height="500"/>
	<g>
		<path class="st1" d="M453.2,193.13c6.64,12.07,16.29,23.45,17.13,37.06c1.34,21.86-19.97,38.33-28.68,58.59
			c-10.7,24.86-1.73,54.15-11.19,79.47c-6.86,18.34-23.69,32.99-43.47,37.84c-14.82,3.63-30.41,1.99-45.72,2.14
			c-43.45,0.42-86.73,15.45-129.58,8.63c-21.16-3.37-41.17-11.96-62.43-14.72c-25.49-3.31-55.2,0.69-73.42-16.63
			c-25.45-24.21-6.56-68.71-25.66-97.75c-6.15-9.35-16.06-16.67-19.38-27.24c-3.88-12.36,2.41-25.53,10.22-36.06
			c7.81-10.53,17.47-20.23,21.7-32.49c3.84-11.13,1.5-23.22-3.23-34.03c-7.24-16.57,12.91-54.55,52.86-51.7
			c18.32,1.31,26.56-19.91,46.65-25.79c23.01-6.73,51.89-1.32,68.84,4.31c17.22,5.72,38.52,8.73,48.39-5.89
			c13.94-20.65,55.49-23.88,74.15,9.65c6.82,12.25,12.88,21.78,27.39,20.84C456.39,104.28,443.33,175.19,453.2,193.13z
			 M238.91,79.82c0,2.81,0,7.64,12.4,6.85c3.8-0.24,6.9-2.28,6.9-5.09c0-2.81-3.09-5.09-6.9-5.09
			C247.5,76.49,238.91,75.33,238.91,79.82z M116.78,93.47c-0.39,0.21-0.59,0.62-0.82,0.98c-0.8,1.24-2.19,2.04-3.61,2.59
			c-0.83,0.32-1.72,0.61-2.34,1.23c-0.97,0.99-0.86,2.77,0.24,3.64c0.89,0.7,2.14,0.77,3.29,0.72c4.31-0.21,8.54-1.79,11.85-4.43
			C129.76,94.74,119.18,92.17,116.78,93.47z M105.02,99.95c-1.45-0.95-3.33-0.4-4.77,0.34c-0.31,0.16-0.64,0.38-0.73,0.71
			c-0.19,0.68,0.68,1.17,1.38,1.39c1.1,0.34,2.29,0.68,3.39,0.31C105.37,102.34,106.47,100.9,105.02,99.95z M50.18,189.61
			c-1.07-3.28-3.61-4.91-7.46-3.04c-2.29,1.11-3.89,3.18-5.26,5.26c-2.21,3.35-4.11,7.19-3.65,11.12c0.34,2.87,1.99,5.57,4.45,7.27
			c1.01,0.69,2.2,1.24,3.44,1.2c1.36-0.05,2.59-0.78,3.65-1.6c2.5-1.94,4.42-4.46,6.32-6.95c0.98-1.29,2-2.66,2.19-4.24
			C54.26,195.26,51.17,192.62,50.18,189.61z M452.16,290.59c-0.98,0.4-1.99,0.91-2.55,1.77c-0.44,0.68-0.56,1.49-0.65,2.29
			c-0.18,1.65-0.28,3.31-0.28,4.97c0,1.82,0.2,3.83,1.59,5.07c1.88,1.67,4.87,1.08,7.33,0.39c1.39-0.39,2.87-0.83,3.76-1.92
			c0.65-0.79,0.89-1.82,1.07-2.82c0.6-3.32,2.42-8.34,0.4-10.06C460.81,288.57,455.68,289.15,452.16,290.59z M313.28,419.01
			c-0.5,0.47-0.97,0.98-1.28,1.58c-0.82,1.66,0.03,3.9,1.79,4.62c0.89,0.36,1.89,0.35,2.85,0.34c8.27-0.11,17.16-0.41,23.77-5.16
			c0.81-0.58,1.64-1.39,1.5-2.35c-0.17-1.15-1.6-1.65-2.8-1.88C330.85,414.57,319.93,412.78,313.28,419.01z M156.29,406.25
			c-7.19-0.97-18.63-2.34-18.63,3.48c0,2.2,10.15,4.31,11.83,4.71c5.19,1.25,10.06,3.11,15.13,4.98c9.42,3.48,16.96-1.21,9.5-6.46
			C167.98,408.62,162.09,407.03,156.29,406.25z"/>
	</g>
</g>
<g id="OBJECTS">
	<g>
		<g>
			<g>
				<path class="st2" d="M392.65,268.73c0,0,16.71-1.53,32.55-8.01c0.5-0.21,0.8,3.2,0.8,3.2s2.33-4.55,3.14-4.93
					c8.57-4.04,16.43-9.68,20.65-17.47c0,0,2.08,47.82-59.4,58.44L392.65,268.73z"/>
			</g>
			<g>
				<path class="st2" d="M413.09,323.28c0,0,20.29,10.75,59.96,12.62c0,0-26.99,24.63-88.74,16.15l2.03-28.05L413.09,323.28z"/>
			</g>
			<g>
				<path class="st3" d="M384.71,295.98c0,0,9.16-5.85,24.02-10.9c0.59-0.2,1.85,3.3,1.85,3.3s2.03-4.56,3.1-4.88
					c17.76-5.32,42.06-8.79,68.23-1.4c0,0-7.93,11.05-24.16,23.14c-0.69,0.52-5.28,0.11-5.28,0.11s1.92,2.32,1.29,2.76
					c-15.42,10.72-37.29,21.65-65.84,25.97L384.71,295.98z"/>
			</g>
			<g class="st4">
				<g>
					<path class="st2" d="M481.92,282.09c-7.65,4.94-15.7,9.25-23.89,13.23c-8.19,4-16.61,7.52-25.14,10.74
						c-4.26,1.63-8.61,3-12.92,4.46l-6.55,1.96c-1.09,0.32-2.18,0.67-3.28,0.97l-3.32,0.83c-8.8,2.38-17.79,3.98-26.8,5.27
						l6.68-1.38l3.34-0.68c1.11-0.25,2.21-0.54,3.31-0.8l6.63-1.58l6.57-1.82c4.39-1.17,8.7-2.61,13.04-3.92
						c4.29-1.5,8.61-2.9,12.83-4.56c8.53-3.11,16.91-6.63,25.17-10.42c4.13-1.89,8.22-3.86,12.28-5.91
						C473.94,286.47,477.96,284.33,481.92,282.09z"/>
				</g>
				<g>
					<path class="st2" d="M426.42,307.73c1.69-1.58,3.34-3.19,4.98-4.8c1.62-1.62,3.23-3.25,4.77-4.94c1.56-1.67,3.02-3.42,4.45-5.2
						c1.4-1.8,2.73-3.66,4-5.61c-0.8,2.17-1.87,4.27-3.16,6.21c-1.29,1.94-2.75,3.77-4.32,5.49
						C433.96,302.29,430.42,305.37,426.42,307.73z"/>
				</g>
				<g>
					<path class="st2" d="M401.85,315.11c1.84-1.2,3.52-2.56,5.12-3.99c1.59-1.44,3.1-2.97,4.44-4.63c1.36-1.64,2.61-3.39,3.68-5.25
						c1.12-1.83,2.02-3.8,2.94-5.79c-0.43,2.14-1.03,4.3-2.03,6.28c-0.92,2.02-2.17,3.88-3.57,5.6c-1.41,1.72-3.02,3.27-4.81,4.59
						C405.86,313.25,403.92,314.36,401.85,315.11z"/>
				</g>
				<g>
					<path class="st2" d="M426.42,307.73c3.19,0.13,6.3,0.17,9.4-0.05c1.55-0.08,3.09-0.26,4.64-0.49c1.55-0.2,3.07-0.56,4.65-0.84
						c-1.38,0.8-2.88,1.45-4.44,1.85c-1.55,0.44-3.16,0.69-4.76,0.8c-1.61,0.09-3.22,0.07-4.82-0.14
						C429.5,308.67,427.91,308.33,426.42,307.73z"/>
				</g>
				<g>
					<path class="st2" d="M402.35,315.14c1.91,0.23,3.8,0.41,5.69,0.61c1.89,0.17,3.77,0.33,5.65,0.41
						c1.88,0.09,3.76,0.08,5.64,0.03c1.88-0.1,3.75-0.27,5.66-0.57c-1.76,0.79-3.64,1.32-5.56,1.59c-1.92,0.26-3.86,0.33-5.8,0.26
						C409.77,317.26,405.93,316.58,402.35,315.14z"/>
				</g>
			</g>
			<g class="st5">
				<g>
					<path class="st6" d="M443.48,253.93c-1.64,4.49-4.52,8.44-7.8,11.92c-3.3,3.49-7.18,6.38-11.3,8.83l-3.17,1.7
						c-1.05,0.58-2.18,0.99-3.27,1.48c-2.18,1.01-4.47,1.71-6.74,2.44c-1.12,0.41-2.3,0.62-3.46,0.91l-3.48,0.83
						c-2.36,0.37-4.71,0.71-7.07,1.01c2.31-0.59,4.63-1.06,6.92-1.64l3.4-1c1.13-0.35,2.28-0.62,3.37-1.08
						c2.19-0.86,4.45-1.56,6.55-2.62c1.06-0.51,2.17-0.91,3.19-1.49l3.09-1.69c4.05-2.37,7.85-5.15,11.25-8.4
						c0.84-0.82,1.69-1.63,2.45-2.53c0.39-0.44,0.79-0.87,1.17-1.32l1.09-1.39C441.12,258.04,442.43,256.07,443.48,253.93z"/>
				</g>
			</g>
			<g>
				<g>
					<path class="st7" d="M460.1,339.28c-2.78,0.53-5.59,0.86-8.41,1.19c-2.82,0.27-5.64,0.48-8.47,0.62
						c-5.66,0.28-11.34,0.15-17-0.24c-2.83-0.24-5.65-0.56-8.46-1.02c-2.81-0.43-5.61-0.94-8.35-1.68
						c-5.49-1.42-10.89-3.41-15.73-6.37c2.55,1.22,5.16,2.3,7.84,3.15c2.67,0.89,5.38,1.63,8.13,2.22
						c5.49,1.2,11.07,1.95,16.68,2.36c5.6,0.49,11.24,0.6,16.87,0.55C448.82,340.02,454.46,339.77,460.1,339.28z"/>
				</g>
				<g>
					<path class="st7" d="M433.5,349.2c-3.69,0.29-7.47-0.51-10.86-2.15c-1.68-0.86-3.24-1.99-4.54-3.36
						c-1.32-1.37-2.21-3.09-2.8-4.83c1.05,1.53,2.16,2.93,3.52,4.09c1.36,1.14,2.82,2.13,4.41,2.92c1.59,0.8,3.26,1.43,4.98,1.98
						C429.94,348.37,431.69,348.85,433.5,349.2z"/>
				</g>
				<g>
					<path class="st7" d="M418.71,350.08c-3.67-0.51-7.18-2.11-10.14-4.45c-1.45-1.2-2.73-2.64-3.7-4.27
						c-0.99-1.62-1.49-3.49-1.68-5.32c0.7,1.72,1.48,3.33,2.55,4.75c1.08,1.4,2.29,2.69,3.68,3.81c1.38,1.12,2.87,2.1,4.43,3.01
						C415.41,348.49,417.02,349.34,418.71,350.08z"/>
				</g>
			</g>
		</g>
		<g>
			<path class="st8" d="M256.58,390.5c-6.17-7.11-15.56-11.33-24.99-11.2c-6.96,0.09-13.79,2.4-20.73,1.98
				c-7.29-0.44-14.34-4.05-18.95-9.72c-4.61-5.67-6.72-13.3-5.67-20.54c0.8-5.5,3.68-11.02,8.66-13.48c2.71-1.34,5.85-1.67,8.86-1.4
				c2.78,0.25,5.45,1,7.96,2.13c5.76,2.56,10.77,7.06,14.77,12.03c3.63,4.52,11.93,11.17,17.54,15.47c3.29,2.51,5.66,4.2,5.66,4.2
				C253.67,373.63,253.87,385.84,256.58,390.5z"/>
			<path class="st9" d="M195.64,352.98c17.48,4.98,36.79,12.03,50.44,24.04"/>
		</g>
		<g>
			<path class="st3" d="M308.29,350.52c-0.26,2.9-0.85,5.87-2.26,8.51c-0.97,1.82-2.29,3.41-3.78,4.82
				c-0.77,0.73-1.59,1.42-2.42,2.05c-3.25,2.47-6.86,4.37-10.61,5.57c-5.47,1.74-11.32,2.06-16.34,5.14
				c-2.31,1.41-4.33,3.38-5.88,5.67c-0.97,1.42-1.76,2.97-2.32,4.59l-0.02-4.9c0.54-5.42,1.08-10.94,3.1-16.12
				c1.3-3.36,3.19-6.49,5.25-9.45c3.29-4.75,7.07-9.18,11.44-12.86c3.53-2.98,7.57-5.5,11.88-6.15c4.31-0.65,8.89,0.95,10.87,4.75
				C308.46,344.58,308.55,347.61,308.29,350.52z"/>
			<path class="st10" d="M267.68,377.41c3.07-7.27,8.38-13.68,14.86-17.94c4.04-2.65,8.46-4.46,12.58-6.94
				c4.12-2.48,8.09-5.86,10.02-10.39"/>
		</g>
		<g>
			<path class="st8" d="M260.96,381.86c7.69-7.63,18.6-11.12,29.32-12.66c8.94-1.28,18.34-1.33,26.7,2.08
				c2.62,1.07,5.2,2.56,6.75,4.92c1.55,2.37,1.77,5.79-0.12,7.89c-1.6,1.77-4.19,2.21-6.58,2.29c-7.85,0.28-15.54-2-23.23-3.61
				c-13.22-2.77-27.62-3.44-39.64,2.73"/>
			<path class="st9" d="M270.54,377.85c15.91-6.71,38.9-4.55,48.93,2.39"/>
		</g>
		<g>
			<path class="st11" d="M82.31,299.8c-7.19-3.46-10.64-12.66-16.55-14.64c-7.32-2.53-9.38,5.65-21.21,3.63
				c-9.94-1.7-12.96-12.87-29.57-9.41c-5.07,1.06-8.44,5.34-6.53,10.49c1.43,5.12,8.47,8.36,12.67,10.97
				c3.72,2.1,7.01,3.23,9.22,7.13c0.02,0.04,0.05,0.08,0.07,0.13c1.48,3.17,0.89,6,4.35,8.33c8.11,5.93,18.22-3.49,27.45-3.21
				c6.51,0.19,6.33,6.95,14.15,8.91c7.75,1.94,5.21-5,21.47,1.3c0.58,0.23,1.24-0.07,1.47-0.65l0,0c0.16-0.41,0.06-0.87-0.24-1.19
				C87.67,309.65,92.9,304.88,82.31,299.8z"/>
			<path class="st12" d="M82.31,299.8c-7.19-3.46-10.64-12.66-16.55-14.64c-7.32-2.53-9.38,5.65-21.21,3.63
				c-9.94-1.7-12.96-12.87-29.57-9.41c-5.07,1.06-8.44,5.34-6.53,10.49c1.43,5.12,8.47,8.36,12.67,10.97
				c3.72,2.1,7.01,3.23,9.22,7.13c0.02,0.04,0.05,0.08,0.07,0.13c1.48,3.17,0.89,6,4.35,8.33c8.11,5.93,18.22-3.49,27.45-3.21
				c6.51,0.19,6.33,6.95,14.15,8.91c7.75,1.94,5.21-5,21.47,1.3c0.58,0.23,1.24-0.07,1.47-0.65l0,0c0.16-0.41,0.06-0.87-0.24-1.19
				C87.67,309.65,92.9,304.88,82.31,299.8z"/>
			<g class="st13">
				<g>
					<path class="st7" d="M91.52,315.32c-6.19-3.2-9.76-9.94-16.27-12.6c-1.47-0.6-3.03-0.94-4.62-0.9
						c-2.27,0.05-4.49,0.98-6.77,0.74c-3.27-0.33-5.32-3.18-8.21-4.38c-3.31-1.37-6.69,0.75-10.12-0.08
						c-3.48-0.84-6.33-3.39-9.08-5.53c-5.72-4.45-12.22-6.94-19.52-6.93c-0.37,0-0.21,0.98,0.21,0.98
						c8.05-0.02,14.5,3.21,20.71,8.04c2.33,1.81,4.81,3.71,7.73,4.41c3.5,0.85,7.04-1.32,10.38,0.22c2.62,1.21,4.57,3.69,7.53,4.17
						c3.65,0.59,7.02-1.32,10.71-0.17c7.07,2.21,10.78,9.6,17.21,12.93C91.86,316.46,91.85,315.49,91.52,315.32L91.52,315.32z"/>
				</g>
			</g>
		</g>
		<g>
			<path class="st14" d="M152.32,348.15c-23.66,2.5-27.44,4.54-33.11,2.09c-7.23-3.12-14.83-2.35-22.11-5.34
				c-7.29-2.99-15.2-5.27-22.97-4.01c-2.46,0.4-5.18,1.4-5.53,4.28c-0.14,1.16,0.24,2.33,0.91,3.27c1.71,2.39,4.51,3.19,7.18,3.93
				l8.94,2.47c2.91,0.8,2.72,5.09-0.26,5.52c-0.03,0-0.05,0.01-0.08,0.01c-2.51,0.34-5.04-0.16-7.51-0.7
				c-5.37-1.19-10.75-2.64-16.25-2.64c-6.66-0.01-13.71,2.39-17.01,8.6c-1.17,2.2-1.61,4.76-1.19,7.21
				c1.16,6.87,7.58,9.16,13.27,8.64c4-0.36,7.79-1.91,11.57-3.28c9.23-3.34,17.14,0.34,26.95,0.6
				C122.22,379.51,152.32,348.15,152.32,348.15z"/>
			<path class="st9" d="M50.69,369.8c16.85-1.92,33.81-3.87,49.98-9c4.74-1.5,10.85-1.92,24.23-11.79"/>
		</g>
		<g>
			<path class="st14" d="M77.97,272.11c0.56,0.44,1.15,0.8,1.76,1.09c2.89,1.43,6.2,1.62,8.5,4.22c1.54,1.63,2.37,3.82,3.52,5.76
				c0.23,0.43,0.5,0.84,0.79,1.23c3.56,4.88,7.06,5.44,10.8,5.36c1.54-0.04,3.13-0.18,4.76-0.18c2.5,0,5.16,0.32,8.03,1.89
				c1.81,0.97,3.7,2.45,5.7,4.64c0.36,0.39,1,0.42,1.51,0.1c0.46-0.3,0.69-0.83,0.59-1.31c-1-4.5-2.96-7.46-5.32-9.68
				c-6.63-6.27-16.41-6.77-17-19.71c-0.12-2.77,0.46-4.74,0.02-6.71c-0.23-1-0.72-2-1.69-3.11c-2-2.16-4.88-3.12-7.45-4.84
				c-6.95-4.96-3.64-13.07-4.25-20.79c-0.41-6.3-6.08-10.4-10.71-13.97c-5.79-4.26-5.78-11.95-9.69-17.66
				c-3.9-5.72-13.61-8.02-18.78-0.34c-5.49,7.67-2.47,17.26-0.9,25.04c0.41,2.03,1.13,3.84,2.08,5.48
				c2.89,5.05,7.85,8.65,12.14,12.92c2.64,2.63,4.84,5.6,6.38,8.96c0.9,1.96,1.57,4.05,1.98,6.28c0.09,0.52,0.19,1.03,0.29,1.54
				C72.03,263.72,73.21,268.52,77.97,272.11z"/>
			<g class="st13">
				<g>
					<path class="st7" d="M53.33,198.21c0.28,7.09,0.82,14.45,6.13,19.72c2.48,2.46,5.46,4.37,7.8,6.97
						c1.65,1.83,2.47,3.77,3.11,6.13c0.35,1.3,0.65,2.66,1.43,3.78c0.93,1.33,2.3,1.99,3.64,2.84c1.79,1.14,3.12,2.63,4.16,4.48
						c1.59,2.82,2.45,5.99,3.88,8.89c0.62,1.27,1.34,2.49,2.25,3.58c1.42,1.7,3.58,2.76,4.54,4.81c1.63,3.48,0.94,7.68,2.52,11.29
						c3.67,8.41,12.39,12.6,20.23,16.29c0.46,0.22,0.44-0.75,0.11-0.91c-7.62-3.59-16.2-7.61-19.84-15.76
						c-1.49-3.34-1.05-6.94-2.14-10.34c-1.04-3.26-4.22-4.59-6.03-7.34c-3.06-4.64-3.6-10.86-7.92-14.69
						c-1.43-1.26-3.45-1.87-4.69-3.33c-1.48-1.74-1.52-4.27-2.33-6.33c-1.04-2.65-3.03-4.71-5.14-6.55c-3.1-2.69-6.54-5.05-8.46-8.8
						c-2.29-4.46-2.44-9.68-2.64-14.59C53.93,197.84,53.31,197.54,53.33,198.21L53.33,198.21z"/>
				</g>
			</g>
			<path class="st15" d="M108.1,289.59c2.5,0,5.16,0.32,8.03,1.89c0.26-3.97,1.59-4.8,2.48-6.25c-6.63-6.27-16.41-6.77-17-19.71
				c-0.12-2.77,0.46-4.74,0.02-6.71c-1.98,4.15-5.52,5-5.25,9.24c0.24,4.37,5.83,8.42,6.83,13.93
				C104.04,286.53,105.72,287.69,108.1,289.59z"/>
		</g>
		<g>
			<path class="st2" d="M172.22,354.83c-4.47-1.77-10.44-2.49-13.3,1.37c-2.4,3.23-1.16,7.81,0.5,11.47c1.4,3.1,3.18,6.24,6.13,7.92
				c2.02,1.15,4.38,1.49,6.68,1.77c6.43,0.76,12.9,1.14,19.37,1.12c7.5-0.02,16.59,3.04,22.79,7.72
				C206.42,371.4,187.26,360.77,172.22,354.83z"/>
			<path class="st10" d="M164.38,364.45c5.69,0.24,11.43,0.64,16.89,2.26c5.58,1.65,27.06,11.51,30.42,15.7"/>
		</g>
		<g>
			<path class="st14" d="M390.61,244.74c-0.14,0.67-0.19,1.32-0.19,1.97c0.01,3.08,1.25,6,0.01,9.08c-0.74,2.01-2.27,3.66-3.44,5.46
				c-0.27,0.38-0.51,0.78-0.72,1.2c-2.67,5.12-1.66,8.36,0,11.53c0.68,1.3,1.49,2.6,2.18,4c1.07,2.14,1.92,4.56,1.79,7.68
				c-0.06,1.96-0.52,4.21-1.55,6.86c-0.18,0.47,0.06,1.04,0.56,1.34c0.45,0.26,1.01,0.23,1.37-0.05c3.43-2.77,5.13-5.71,6.03-8.67
				c2.55-8.35-1.18-16.94,9.65-22.96c2.32-1.29,4.26-1.62,5.76-2.84c0.76-0.62,1.4-1.47,1.94-2.77c1-2.64,0.59-5.51,0.98-8.44
				c1.29-8.06,9.65-8.68,16-12.49c5.22-3.04,6.32-9.63,7.41-15.12c1.19-6.78,7.78-10.04,11.01-15.82c3.24-5.78,1.08-15.07-7.7-16.23
				c-8.9-1.44-15.84,5.23-21.83,9.89c-1.57,1.22-2.81,2.6-3.81,4.11c-3.1,4.63-4.06,10.41-5.9,15.9c-1.12,3.38-2.74,6.53-4.96,9.28
				c-1.3,1.61-2.8,3.07-4.53,4.37c-0.4,0.3-0.8,0.6-1.2,0.91C395.27,236.08,391.65,239.13,390.61,244.74z"/>
			<g class="st13">
				<g>
					<path class="st7" d="M443.32,192.01c-6.13,3.35-12.09,6.98-14.25,14.02c-0.98,3.2-1.35,6.61-2.72,9.69
						c-0.87,1.96-2.18,3.4-3.79,4.79c-1.1,0.95-2.23,1.92-2.81,3.3c-0.67,1.6-0.45,3.4-0.8,5.07c-0.39,1.84-1.33,3.46-2.45,4.95
						c-1.91,2.55-4.34,4.68-6.13,7.32c-1.96,2.9-1.83,7-4.47,9.35c-2.45,2.18-5.47,3.37-7.65,5.92c-5.72,6.71-5.55,16.13-5.38,24.44
						c0.01,0.51,0.63,0.81,0.61,0.14c-0.17-8.29-0.35-17.84,5.73-24.31c2.22-2.37,5.4-3.48,7.61-5.82c2.16-2.29,2.03-5.75,3.66-8.4
						c2.91-4.69,8.29-7.99,9.18-13.79c0.4-2.58,0.37-4.63,2.42-6.55c1.07-1.01,2.25-1.86,3.17-3.03c1.86-2.37,2.61-5.37,3.28-8.24
						c0.95-4.04,1.97-7.9,4.94-10.98c2.87-2.98,6.59-5,10.18-6.96C444.01,192.74,443.72,191.8,443.32,192.01L443.32,192.01z"/>
				</g>
			</g>
		</g>
		<g>
			<path class="st11" d="M364.77,368.18c6.81,3.84,9.59,13.07,15.24,15.38c7,2.95,9.53-4.92,20.98-2.18
				c9.61,2.3,11.84,13.42,28.31,11.11c5.03-0.71,8.6-4.68,7.06-9.83c-1.06-5.1-7.75-8.72-11.68-11.54c-3.5-2.29-6.65-3.61-8.55-7.57
				c-0.02-0.04-0.04-0.09-0.06-0.13c-1.25-3.2-0.49-5.93-3.72-8.42c-7.55-6.33-18.04,2.24-27.05,1.38
				c-6.35-0.61-5.74-7.21-13.27-9.62c-7.46-2.39-5.42,4.56-20.91-2.65c-0.56-0.26-1.22-0.01-1.48,0.54l0,0
				c-0.18,0.39-0.12,0.85,0.16,1.18C360.17,358.2,354.75,362.53,364.77,368.18z"/>
			<path class="st12" d="M364.77,368.18c6.81,3.84,9.59,13.07,15.24,15.38c7,2.95,9.53-4.92,20.98-2.18
				c9.61,2.3,11.84,13.42,28.31,11.11c5.03-0.71,8.6-4.68,7.06-9.83c-1.06-5.1-7.75-8.72-11.68-11.54c-3.5-2.29-6.65-3.61-8.55-7.57
				c-0.02-0.04-0.04-0.09-0.06-0.13c-1.25-3.2-0.49-5.93-3.72-8.42c-7.55-6.33-18.04,2.24-27.05,1.38
				c-6.35-0.61-5.74-7.21-13.27-9.62c-7.46-2.39-5.42,4.56-20.91-2.65c-0.56-0.26-1.22-0.01-1.48,0.54l0,0
				c-0.18,0.39-0.12,0.85,0.16,1.18C360.17,358.2,354.75,362.53,364.77,368.18z"/>
			<g class="st13">
				<g>
					<path class="st7" d="M356.8,352.42c6.03,3.65,9.16,10.92,15.8,13.68c3.59,1.49,6.81-0.06,10.43,0.57
						c3.28,0.57,5.06,3.64,7.96,4.92c3.09,1.37,6.48-0.37,9.68,0.62c3.44,1.07,6.1,3.86,8.73,6.18c5.22,4.6,11.38,7.39,18.37,7.83
						c0.45,0.03,0.32-0.95-0.05-0.98c-7.86-0.5-13.97-4.01-19.74-9.14c-2.03-1.8-4.14-3.65-6.7-4.64
						c-3.54-1.37-7.45,0.72-10.76-1.08c-2.38-1.29-4.05-3.74-6.72-4.51c-3.47-1-7.03,0.75-10.54-0.48
						c-6.98-2.43-10.21-10.17-16.35-13.89C356.48,351.25,356.48,352.23,356.8,352.42L356.8,352.42z"/>
				</g>
			</g>
		</g>
		<g>
			<g>
				<path class="st2" d="M121.46,349.53c0,0-29.69-6.5-52.53-4.05c-0.72,0.08,0.16-4.42,0.16-4.42s-4.7,4.99-5.89,5.18
					c-12.56,2.01-24.8,6.33-33.14,14.81c0,0,15.19-62.41,98.4-53.13L121.46,349.53z"/>
			</g>
			<g>
				<path class="st3" d="M138.72,352.87c0,0-13.3-5.97-29.91-18.94c-0.66-0.52,2.35-4.5,2.35-4.5s-6.62,1.08-7.77,0.11
					C84.36,313.53,62.58,288.81,51.61,254c0,0,18.23,0.77,43.74,10.09c1.09,0.4,4,5.84,4,5.84s1.19-3.87,2.15-3.48
					c23.38,9.42,51.73,25.92,77.6,54.78L138.72,352.87z"/>
			</g>
			<g class="st4">
				<g>
					<path class="st2" d="M51.61,254.85c11.17,4.95,21.93,10.81,32.43,17.07c10.52,6.25,20.66,13.11,30.55,20.31
						c4.97,3.57,9.7,7.46,14.52,11.22l7.02,5.91c1.16,0.99,2.35,1.96,3.5,2.97l3.37,3.11c9.15,8.12,17.56,17.04,25.63,26.2
						l-6.46-6.49l-3.22-3.25c-1.09-1.06-2.23-2.08-3.34-3.13l-6.65-6.28l-6.87-6.03c-4.54-4.07-9.33-7.84-14-11.75
						c-4.83-3.71-9.58-7.53-14.55-11.05c-9.76-7.29-19.88-14.1-30.21-20.58c-5.16-3.25-10.38-6.39-15.67-9.43
						C62.39,260.58,57.04,257.65,51.61,254.85z"/>
				</g>
				<g>
					<path class="st2" d="M121.22,298.27c-3.02-0.74-6.04-1.39-9.05-2.06c-3.01-0.63-6.02-1.23-9.05-1.72
						c-3.02-0.52-6.06-0.87-9.11-1.17c-3.06-0.25-6.12-0.37-9.24-0.36c3.03-0.7,6.17-1.05,9.3-1.03c3.13,0.03,6.26,0.3,9.34,0.8
						C109.57,293.8,115.62,295.52,121.22,298.27z"/>
				</g>
				<g>
					<path class="st2" d="M92.01,278.26c-2.15-0.13-4.29-0.21-6.42-0.29c-2.13-0.06-4.26-0.1-6.39-0.06
						c-2.13,0.02-4.24,0.16-6.36,0.33c-2.12,0.21-4.22,0.5-6.35,0.9c1.98-0.85,4.08-1.48,6.22-1.85c2.14-0.37,4.3-0.56,6.47-0.6
						C83.5,276.65,87.85,277.07,92.01,278.26z"/>
				</g>
				<g>
					<path class="st2" d="M147.58,320.42c-2.7-1.18-5.46-2.06-8.25-2.81c-2.79-0.73-5.61-1.29-8.47-1.57
						c-2.85-0.32-5.72-0.43-8.6-0.27c-2.89,0.09-5.75,0.53-8.67,0.96c2.72-1.09,5.58-2.01,8.54-2.34c2.95-0.45,5.95-0.42,8.92-0.11
						c2.97,0.32,5.89,0.99,8.68,2.02C142.54,317.29,145.22,318.64,147.58,320.42z"/>
				</g>
				<g>
					<path class="st2" d="M121.22,298.27c-2.21-3.68-4.44-7.2-6.97-10.52c-1.23-1.68-2.57-3.28-3.96-4.84
						c-1.37-1.59-2.88-3.03-4.37-4.6c1.92,0.97,3.75,2.16,5.35,3.62c1.64,1.42,3.1,3.03,4.4,4.76c1.29,1.74,2.46,3.57,3.39,5.51
						C120.01,294.13,120.8,296.15,121.22,298.27z"/>
				</g>
				<g>
					<path class="st2" d="M147.25,319.83c-1.15-2.31-2.34-4.57-3.5-6.83c-1.19-2.24-2.4-4.47-3.69-6.64
						c-1.28-2.18-2.67-4.28-4.11-6.35c-1.49-2.04-3.07-4.01-4.8-5.94c2.17,1.39,4.16,3.12,5.88,5.07c1.71,1.96,3.22,4.09,4.56,6.31
						C144.17,309.94,146.23,314.75,147.25,319.83z"/>
				</g>
			</g>
			<g class="st13">
				<g>
					<path class="st7" d="M42.83,347.39c3.79-5.17,8.98-9.19,14.5-12.45c5.55-3.27,11.64-5.55,17.87-7.16l4.72-1
						c1.57-0.35,3.18-0.46,4.77-0.69c3.18-0.48,6.4-0.53,9.6-0.63c1.6-0.1,3.2,0.06,4.8,0.12l4.79,0.23
						c3.17,0.4,6.34,0.84,9.48,1.34c-3.2-0.1-6.36-0.36-9.53-0.47l-4.76,0.02c-1.58,0.03-3.17-0.06-4.74,0.13
						c-3.15,0.3-6.32,0.35-9.42,0.93c-1.55,0.26-3.14,0.37-4.67,0.73l-4.61,1.02c-6.1,1.54-12.05,3.71-17.63,6.63
						c-1.39,0.74-2.79,1.47-4.11,2.34c-0.66,0.42-1.35,0.83-2,1.27l-1.92,1.38C47.41,342.97,44.98,345.03,42.83,347.39z"/>
				</g>
			</g>
			<g class="st13">
				<g>
					<path class="st7" d="M94.19,326.26c-1.73,2.76-3.42,5.37-4.82,8.13c-0.72,1.37-1.31,2.79-1.86,4.23
						c-0.53,1.46-0.9,2.95-1.27,4.56c-0.77-3.22,0.07-6.68,1.55-9.6c0.78-1.46,1.68-2.84,2.75-4.07
						C91.61,328.27,92.8,327.13,94.19,326.26z"/>
				</g>
			</g>
		</g>
		<g>
			<rect x="225.32" y="346.3" class="st16" width="49.18" height="33.82"/>
			<rect x="225.32" y="346.3" class="st6" width="49.18" height="12.26"/>
			<path class="st16" d="M299.82,379.59H200c-3.15,0-5.71,2.56-5.71,5.71S196.84,391,200,391h99.82c3.15,0,5.71-2.56,5.71-5.71l0,0
				C305.52,382.14,302.97,379.59,299.82,379.59z"/>
			<path class="st6" d="M305.53,385.3c0,3.15-2.56,5.7-5.71,5.7H200c-3.15,0-5.71-2.56-5.71-5.7c0-0.48,0.06-0.94,0.18-1.38
				c0.61,2.49,2.86,4.33,5.53,4.33h99.82c2.67,0,4.92-1.84,5.53-4.33C305.47,384.35,305.53,384.82,305.53,385.3z"/>
			<g>
				<g>
					<g>
						<path class="st0" d="M96.03,351.01c-1.93,0-3.5-1.57-3.5-3.5V144.29c0-1.93,1.57-3.5,3.5-3.5h307.74c1.93,0,3.5,1.57,3.5,3.5
							v203.23c0,1.93-1.57,3.5-3.5,3.5H96.03z"/>
						<path class="st16" d="M403.78,143.29c0.55,0,1,0.45,1,1v203.23c0,0.55-0.45,1-1,1H96.03c-0.55,0-1-0.45-1-1V144.29
							c0-0.55,0.45-1,1-1H403.78 M403.78,138.29H96.03c-3.31,0-6,2.69-6,6v203.23c0,3.31,2.69,6,6,6h307.74c3.31,0,6-2.69,6-6
							V144.29C409.78,140.97,407.09,138.29,403.78,138.29L403.78,138.29z"/>
					</g>
				</g>
				<g>
					<path class="st16" d="M409.78,347.1v-19.87H90.03v19.87c0,3.75,3.03,6.77,6.77,6.77h306.2
						C406.74,353.87,409.78,350.85,409.78,347.1z"/>
				</g>
			</g>
			<g>
				<circle class="st1" cx="249.91" cy="184.16" r="24.65"/>
				<g>
					<defs>
						<circle id="SVGID_1_" cx="249.91" cy="184.16" r="24.65"/>
					</defs>
					<clipPath id="SVGID_2_">
						<use xlink:href="#SVGID_1_"  style="overflow:visible;"/>
					</clipPath>
					<path class="st17" d="M259.43,178.54c0,5.26-4.26,9.52-9.52,9.52c-5.26,0-9.52-4.26-9.52-9.52s4.26-9.52,9.52-9.52
						C255.17,169.01,259.43,173.28,259.43,178.54z M264.28,218.42v-16.64c0-6.32-5.13-11.45-11.45-11.45h-5.84
						c-6.32,0-11.45,5.13-11.45,11.45v16.64c0,1.75,1.42,3.17,3.17,3.17h22.4C262.86,221.59,264.28,220.17,264.28,218.42z"/>
				</g>
			</g>
			<path class="st1" d="M308.87,236.84H190.94c-5.39,0-9.75-4.37-9.75-9.75l0,0c0-5.39,4.37-9.75,9.75-9.75h117.94
				c5.39,0,9.75,4.37,9.75,9.75l0,0C318.63,232.48,314.26,236.84,308.87,236.84z"/>
			<path class="st2" d="M304.78,229.64H195.03c-1.41,0-2.55-1.14-2.55-2.55l0,0c0-1.41,1.14-2.55,2.55-2.55h109.75
				c1.41,0,2.55,1.14,2.55,2.55l0,0C307.33,228.5,306.19,229.64,304.78,229.64z"/>
			<path class="st1" d="M308.97,271.92H191.03c-5.39,0-9.75-4.37-9.75-9.75l0,0c0-5.39,4.37-9.75,9.75-9.75h117.94
				c5.39,0,9.75,4.37,9.75,9.75l0,0C318.72,267.55,314.35,271.92,308.97,271.92z"/>
			<path class="st2" d="M194.05,264.89L194.05,264.89c-1.41,0-2.55-1.14-2.55-2.55l0,0c0-1.41,1.14-2.55,2.55-2.55l0,0
				c1.41,0,2.55,1.14,2.55,2.55l0,0C196.6,263.75,195.46,264.89,194.05,264.89z M204.17,262.34L204.17,262.34
				c0-1.41-1.14-2.55-2.55-2.55l0,0c-1.41,0-2.55,1.14-2.55,2.55l0,0c0,1.41,1.14,2.55,2.55,2.55l0,0
				C203.03,264.89,204.17,263.75,204.17,262.34z M211.74,262.34L211.74,262.34c0-1.41-1.14-2.55-2.55-2.55l0,0
				c-1.41,0-2.55,1.14-2.55,2.55l0,0c0,1.41,1.14,2.55,2.55,2.55l0,0C210.6,264.89,211.74,263.75,211.74,262.34z M219.31,262.34
				L219.31,262.34c0-1.41-1.14-2.55-2.55-2.55l0,0c-1.41,0-2.55,1.14-2.55,2.55l0,0c0,1.41,1.14,2.55,2.55,2.55l0,0
				C218.17,264.89,219.31,263.75,219.31,262.34z M226.89,262.34L226.89,262.34c0-1.41-1.14-2.55-2.55-2.55l0,0
				c-1.41,0-2.55,1.14-2.55,2.55l0,0c0,1.41,1.14,2.55,2.55,2.55l0,0C225.75,264.89,226.89,263.75,226.89,262.34z M234.46,262.34
				L234.46,262.34c0-1.41-1.14-2.55-2.55-2.55l0,0c-1.41,0-2.55,1.14-2.55,2.55l0,0c0,1.41,1.14,2.55,2.55,2.55l0,0
				C233.32,264.89,234.46,263.75,234.46,262.34z M242.03,262.34L242.03,262.34c0-1.41-1.14-2.55-2.55-2.55l0,0
				c-1.41,0-2.55,1.14-2.55,2.55l0,0c0,1.41,1.14,2.55,2.55,2.55l0,0C240.89,264.89,242.03,263.75,242.03,262.34z"/>
			<path class="st2" d="M266.65,308.67h-33.5c-5.39,0-9.75-4.37-9.75-9.75l0,0c0-5.39,4.37-9.75,9.75-9.75h33.5
				c5.39,0,9.75,4.37,9.75,9.75l0,0C276.41,304.3,272.04,308.67,266.65,308.67z"/>
		</g>
		<path class="st18" d="M373.55,353.33v-11.15c0-3.67-2.97-6.64-6.64-6.64h-0.58v-10.33c0-15.19-12.36-27.54-27.54-27.54
			c-15.19,0-27.54,12.35-27.54,27.54v10.33h-0.58c-3.67,0-6.64,2.97-6.64,6.64v11.15H373.55z M320.35,325.21
			c0-10.17,8.27-18.44,18.44-18.44c10.17,0,18.44,8.27,18.44,18.44v10.33h-36.88V325.21z"/>
		<path class="st18" d="M386.57,248.86c-2.68-2.24-6.01-3.6-9.97-3.95c-0.01-0.37-0.01-0.73,0.01-1.2c2.04-0.33,3.78-2.11,4.8-4.51
			c2.75-2.65,4.62-5.93,3.71-10.06c-0.05-0.24,0-0.44,0.1-0.61c-1.18-2.12-3.36-3.13-5.78-5.32c-8.13-7.37-17.79,2.87-14.13,7.08
			c0.29,0.33,0.69,1.2,1.02,2.32c-0.01,0.03-0.02,0.04-0.02,0.07c-0.17,0.79-0.02,2.12,0.6,2.78c0.04,0.41,0.07,0.83,0.07,1.25
			c0.01,0.04,0.04,0.07,0.05,0.12c0.12,0.65,0.36,1.22,0.68,1.73c0.49,1.97,1.67,4.03,4.14,4.86c0.19,0.06,0.39,0.13,0.6,0.18
			c0.14,0.55,0.16,0.87,0.09,1.33c-2.4,0.27-4.57,1.02-6.51,2.18c-15.54,7.51-30.91,31.72-29.21,37.06
			c1.69,5.34,5.99,11.59,8.88,15.76l0.45-0.08c0.23,0.8,0.47,1.61,0.7,2.41c0.12,0.4,0.25,0.83,0.56,1.1
			c0.42,0.37,1.04,0.36,1.6,0.34c0.69-0.03,1.44-0.09,1.95-0.55c0.29-0.27,0.47-0.65,0.57-1.03c0.26-1.05,0-2.16-0.52-3.12
			l0.34-0.06c0,0-6.7-10.03-6.46-16.14c0.09-2.23,5.32-7.5,9.57-11.42c-0.1,1.36-0.15,2.75-0.15,4.15l-2.04,48.72
			c0,0,1.76,0.35,4.58,0.8l2.74,29.1h11.01l0.26-27.41c0.14,0.01,0.29,0.02,0.43,0.03c0.13,0.01,0.26,0.02,0.38,0.03
			c0.54,0.04,1.08,0.07,1.63,0.11c0.18,0.01,0.37,0.02,0.55,0.03c0.2,0.01,0.4,0.02,0.59,0.03l1.08,27.18h10.86l2.22-27.68
			c0.01,0,0.03-0.01,0.04-0.01c0.45-0.07,0.89-0.15,1.32-0.24c0.19-0.04,0.37-0.08,0.56-0.12c0.36-0.08,0.71-0.17,1.06-0.26
			c0.19-0.05,0.37-0.1,0.55-0.15c0.35-0.1,0.68-0.21,1.01-0.32c0.15-0.05,0.31-0.1,0.45-0.16c0.46-0.17,0.91-0.36,1.32-0.56
			l-0.22-52.7c0-1.14-0.03-2.24-0.1-3.32c0-0.08-0.01-0.16-0.02-0.24c-0.06-1-0.16-1.98-0.28-2.93c-0.01-0.09-0.02-0.19-0.04-0.28
			c-0.01-0.09-0.02-0.17-0.03-0.26c2.15,0.43,4.94,0.94,8.6,1.56c2.38,0.4,4.69,0.2,6.9-0.43v-10.67
			C400.64,256.42,390.45,251.21,386.57,248.86z"/>
		<g>
			<circle class="st19" cx="238.22" cy="261.36" r="16.94"/>
			<circle class="st20" cx="238.22" cy="261.36" r="9.19"/>
		</g>
		<g>
			<path class="st21" d="M331.92,297.67c-15.19,0-27.54,12.35-27.54,27.54v26.49h55.08v-26.49
				C359.46,310.03,347.11,297.67,331.92,297.67z M313.48,342.6v-17.38c0-10.17,8.27-18.44,18.44-18.44
				c10.17,0,18.44,8.27,18.44,18.44v17.38H313.48z"/>
			<path class="st22" d="M331.92,303.11c-12.13,0-21.99,9.87-21.99,21.99v21.15h43.98v-21.15
				C353.91,312.98,344.05,303.11,331.92,303.11z M350.36,342.6h-36.88v-17.38c0-10.17,8.27-18.44,18.44-18.44
				c10.17,0,18.44,8.27,18.44,18.44V342.6z"/>
			<path class="st23" d="M359.92,391h-55.99c-3.74,0-6.77-3.03-6.77-6.77v-41.93c0-3.74,3.03-6.77,6.77-6.77h55.99
				c3.74,0,6.77,3.03,6.77,6.77v41.93C366.68,387.97,363.65,391,359.92,391z"/>
			<path class="st21" d="M342.03,359.43c0-5.58-4.52-10.11-10.11-10.11s-10.11,4.53-10.11,10.11c0,3.9,2.22,7.28,5.45,8.97v10.93
				h9.3V368.4C339.81,366.71,342.03,363.33,342.03,359.43z"/>
			<path class="st24" d="M360.04,335.54h-16.7c-3.64,11.33-9.32,22.05-16.54,31.44c-6.72,8.73-17.29,19.8-29.26,19.57
				c0.91,2.59,3.36,4.45,6.26,4.45h56.24c3.67,0,6.64-2.97,6.64-6.64v-42.18C366.68,338.52,363.71,335.54,360.04,335.54z"/>
		</g>
		<g>
			<path class="st25" d="M338.64,297.68c0.44,1.53,0.88,3.05,1.33,4.58c0.12,0.4,0.25,0.83,0.56,1.1c0.42,0.37,1.04,0.36,1.6,0.34
				c0.69-0.03,1.44-0.09,1.95-0.55c0.29-0.27,0.47-0.65,0.57-1.03c0.28-1.12-0.04-2.33-0.63-3.33c-0.59-1-1.43-1.82-2.26-2.63"/>
			<path class="st25" d="M420.96,244.96c0.54-2.13,1.27-4.21,2.18-6.21c0.47,0.6,0.42,1.45,0.34,2.21c0.46-1.12,1.35-2.05,2.44-2.57
				c0.13-0.06,0.28-0.12,0.41-0.06c0.15,0.06,0.21,0.24,0.25,0.39c0.41,1.63,0.21,3.42-0.55,4.92s-2.09,2.71-3.65,3.34"/>
			<path class="st2" d="M375.98,387.31c3.89,0.95,7.15,2.09,8.93,3.7h-15l0.29-3.48L375.98,387.31z"/>
			<path class="st2" d="M357.64,387.31c-3.89,0.95-7.15,2.09-8.93,3.7h15l-0.29-3.48L357.64,387.31z"/>
			<g>
				<g>
					<path class="st26" d="M383.87,299.92l-7.07,88c0,0-2.47,0.6-3.32,0.6c-0.42,0-1.22-0.14-1.94-0.27
						c-0.82-0.17-1.53-0.33-1.53-0.33l-2.65-66.52h-3.32l-0.64,66.52c0,0-1.77,0.53-3.61,0.53c-1.79,0-3.91-0.53-3.91-0.53
						l-8.49-90.25L383.87,299.92z"/>
				</g>
			</g>
			<g class="st27">
				<path class="st28" d="M370.31,299.08l-12.45-0.77c-0.15,16.21,2.29,74.13,2.54,90.11c1.6-0.09,3-0.51,3-0.51l0.64-66.52h3.32
					l2.65,66.52c0,0,0.71,0.17,1.53,0.33c0.24,0.04,0.49,0.09,0.73,0.13C372.26,370.26,370.63,306.53,370.31,299.08z"/>
			</g>
			<g>
				<path class="st29" d="M360.1,236.72c0.01,0.04,0.04,0.07,0.05,0.12c0.54,2.91,3.3,4.4,6.37,5.25c2.5,0.69,3.07,0.99,5.08-0.46
					c4.16-3,7.85-6.99,6.65-12.48c-0.05-0.24,0-0.44,0.1-0.61c-1.18-2.12-3.36-3.13-5.78-5.32c-8.13-7.37-17.79,2.87-14.13,7.08
					C359.02,230.98,360.1,233.96,360.1,236.72z"/>
			</g>
			<path class="st30" d="M387.83,271.95c0-16.73-6.92-27.13-20.18-27.13c-13.26,0-20.22,13.99-20.22,30.72l-2.04,48.72
				c0,0,30.91,6.13,42.66,0.39L387.83,271.95z"/>
			<path class="st31" d="M387.83,271.95c0-4.68-0.54-8.86-1.61-12.46c-1.18,18.2-2.77,66.67-29.87,66.48
				c10.07,1.26,24.49,2.21,31.7-1.31L387.83,271.95z"/>
			<path class="st25" d="M374.45,234.75c-0.5-3.29-3.43-6.59-7.01-4.88c-2.3,1.1-4.68,1.22-6.55,0.22c-0.06,0.63-0.13,1.56-0.2,2.53
				c-0.4-0.73-1.06-0.84-1.26,0.07c-0.21,0.97,0.05,2.78,1.1,3.12c0,0.17,0,0.34,0,0.48c0.05,2.46,1.05,6.38,5.05,7.31
				c0.22,0.87,0.14,1.15-0.11,2.31c0.22,0.77,3.33,1.27,4.35,0.36c-0.09-1.07-0.12-1.58-0.08-2.56c2.36-0.38,4.33-2.71,5.22-5.7
				C378.52,236.02,375.97,232.38,374.45,234.75z"/>
			<path class="st32" d="M374.45,234.75c-0.2-1.3-0.78-2.59-1.62-3.59c0.1,5.72-2.34,11.04-7.86,12.27c0.19,0.06,0.39,0.13,0.6,0.18
				c0.22,0.87,0.14,1.15-0.11,2.31c0.22,0.77,3.33,1.27,4.35,0.36c-0.09-1.07-0.12-1.58-0.08-2.56c2.36-0.38,4.33-2.71,5.22-5.7
				C378.52,236.02,375.97,232.38,374.45,234.75z"/>
			<path class="st30" d="M359.15,247.11c-15.54,7.51-30.91,31.72-29.21,37.06c1.69,5.34,5.99,11.59,8.88,15.76l5.65-0.99
				c0,0-6.7-10.03-6.46-16.14c0.15-3.77,14.97-16.19,14.97-16.19L359.15,247.11z"/>
			<path class="st30" d="M378.3,247.97c2.43,1.75,22.74,13.92,33.91,3.17c8.07-7.76,8.88-9.26,8.88-9.26l2.77,4.9
				c0,0-12.62,22.27-27.89,19.7c-15.27-2.58-15.65-3.37-15.65-3.37L378.3,247.97z"/>
		</g>
		<g>
			<path class="st18" d="M127.28,343.27c-5.81,1.68-10.73,5.48-13.88,10.49h41.25c-3.15-5.01-8.07-8.81-13.88-10.49V242.21h-13.49
				v1.65h-14.41v12.17h14.41v2.9h-14.41v12.17h14.41V343.27z"/>
			<g>
				
					<rect x="121.71" y="243.85" transform="matrix(-1 -1.224647e-16 1.224647e-16 -1 260.6953 499.8733)" class="st23" width="17.28" height="12.17"/>
				
					<rect x="121.71" y="258.92" transform="matrix(-1 -1.224647e-16 1.224647e-16 -1 260.6953 529.9973)" class="st23" width="17.28" height="12.17"/>
				
					<rect x="134.58" y="243.85" transform="matrix(-1 -1.224647e-16 1.224647e-16 -1 273.5726 499.8732)" class="st33" width="4.41" height="12.17"/>
				
					<rect x="134.58" y="258.92" transform="matrix(-1 -1.224647e-16 1.224647e-16 -1 273.5726 529.9973)" class="st33" width="4.41" height="12.17"/>
				
					<rect x="136.11" y="242.21" transform="matrix(-1 -1.224647e-16 1.224647e-16 -1 285.7226 590.1496)" class="st23" width="13.49" height="105.74"/>
				<path class="st33" d="M142.65,351.58h0.42c0.45,0,0.82-0.37,0.82-0.82V246.67c0-0.45-0.37-0.82-0.82-0.82h-0.42
					c-0.45,0-0.82,0.37-0.82,0.82v104.09C141.83,351.22,142.2,351.58,142.65,351.58z"/>
				<g>
					<path class="st23" d="M118.52,366.66c0-13.42,10.92-24.35,24.34-24.35c13.42,0,24.35,10.92,24.35,24.35
						c0,13.42-10.92,24.34-24.35,24.34C129.44,391,118.52,380.08,118.52,366.66z M131.07,366.66c0,6.5,5.29,11.79,11.79,11.79
						c6.5,0,11.79-5.29,11.79-11.79c0-6.5-5.29-11.79-11.79-11.79C136.36,354.87,131.07,360.16,131.07,366.66z"/>
				</g>
				<path class="st33" d="M129.92,366.66c0,7.13,5.8,12.94,12.94,12.94s12.94-5.8,12.94-12.94c0-7.13-5.8-12.94-12.94-12.94
					S129.92,359.52,129.92,366.66z M131.07,366.66c0-6.5,5.29-11.79,11.79-11.79c6.5,0,11.79,5.29,11.79,11.79
					c0,6.5-5.29,11.79-11.79,11.79C136.36,378.45,131.07,373.16,131.07,366.66z"/>
			</g>
			<g>
				<path class="st18" d="M231.4,264.89c-4.27,3.78-19.66,19.9-22.48,11.13c-2.23-6.95-6.92-16.5-9.66-19.71
					c-1.81-2.07-4.12-3.43-6.66-4.08v-1.11c2.67-0.01,6.84-0.53,6.84-10.15c0-2.91-0.28-4.82-0.78-6.08c0.8-0.8,0.74-2.38,0.18-3.31
					c-0.75-1.23-2.71-2.3-4.01-2.88c-3.09-1.37-7.12-2-10.08-0.09c-1.04-1.42-2.71-2.7-3.72-3.25c-1.26-0.69-2.63-1.28-4.07-1.31
					c-2.85-0.06-5.32,2.13-6.63,4.65c-1.07,2.05-1.57,4.43-1.13,6.7c0.44,2.26,1.89,4.37,3.98,5.35c0.61,0.29,1.3,0.48,1.97,0.39
					c0.89-0.12,1.64-0.72,2.27-1.37c1.52-1.58,1.78-3.47,2.89-5.18c0.17-0.26,0.39-0.44,0.62-0.58c-0.33,1.11-0.51,2.27-0.52,3.43
					c-0.03,3.32,1.14,6.54,2.67,9.49c0.41,0.78,0.87,1.57,1.59,2.08c0.7,0.48,2.49,0.95,3.23,0.48l-0.31,2.36
					c-2.1,0.18-4.23,0.79-6.26,1.83c0,0,0-0.01,0-0.01c-11.57,2.66-20.3,31.07-35.77,29.18v0.04c-1.88-0.52-3.95-0.67-4.06,1.17
					c-0.21,3.61,2.03,4.07,4.06,3.77v0.08c6.48,0,15.07-1.87,22.61-10.21c-4.16,23.46-2.5,54.19-2.5,54.19
					c1.12,0.16,2.23,0.31,3.33,0.44l1.9,21.5h9.85l0.02-20.51c1.99,0.08,3.96,0.12,5.92,0.11l0.23,20.4h11.43l2.21-21.4
					c2.02-0.28,4.03-0.63,6.01-1.04c-0.41-12.9-0.46-29.77-1.32-44.38c0.61,0.57,1.29,1.01,2.12,1.21c1.34,0.33,7.13,7,11.29,1.93
					c4.22-5.14,13.04-15.76,16.27-21.24C234.23,267.09,232.37,266.56,231.4,264.89z"/>
				<polygon class="st34" points="193.89,248.6 193.24,253.58 198.48,254.16 198.48,248.91 				"/>
				<path class="st35" d="M153.53,285.02c0,0-6.93-3.42-7.13,0c-0.38,6.47,7.13,2.82,7.13,2.82V285.02z"/>
				<path class="st25" d="M154.51,284.04c0,0-6.93-3.42-7.13,0c-0.38,6.47,7.13,2.82,7.13,2.82V284.04z"/>
				<g>
					<path class="st25" d="M189.16,240.96c0,4.53,4.67,10.15,9.2,10.15c2.66,0,6.96-0.4,6.96-10.15c0-10.26-3.44-8.19-7.96-8.19
						C192.83,232.77,189.16,236.44,189.16,240.96z"/>
				</g>
				<path class="st32" d="M196.05,244.77c0.01-3.81,0.5-8.33,1.91-12.01c-0.2,0.01-0.4,0.01-0.6,0.01c-4.53,0-8.19,3.67-8.19,8.19
					c0,4.44,4.5,9.93,8.94,10.14C196.65,249.43,196.04,247.35,196.05,244.77z"/>
				<path class="st23" d="M203.59,235.48c-0.73,0.11-1.5-0.24-2.18,0.04c-1.09,0.44-1.16,2.1-2.17,2.71
					c-1.25,0.76-3.14-0.56-4.24,0.42c-0.65,0.58-0.57,1.59-0.5,2.46c0.18,2.29-0.08,4.61-0.75,6.8c-0.16,0.51,0.52,1.42,0.12,1.77
					c-0.67,0.58-2.6,0.07-3.32-0.43c-0.72-0.51-1.18-1.31-1.59-2.1c-1.53-2.97-2.7-6.23-2.67-9.58s1.4-6.81,4.1-8.75
					c2.98-2.13,7.15-1.49,10.32-0.07c1.3,0.58,3.27,1.66,4.01,2.91C205.46,232.87,205.34,235.22,203.59,235.48z"/>
				<path class="st33" d="M202.73,229.82c-1.07,0.96-2.14,2.68-2.95,3.24c-1.11,0.78-2.44,0.93-3.71,1.32
					c-5.83,1.79-6.23,10.73-3.69,15.5c0.6,0.09,1.18,0.06,1.49-0.21c0.4-0.35-0.27-1.26-0.12-1.77c0.67-2.19,0.93-4.51,0.75-6.8
					c-0.07-0.87-0.14-1.88,0.5-2.46c1.1-0.98,2.98,0.34,4.24-0.42c1-0.61,1.08-2.27,2.17-2.71c0.68-0.27,1.46,0.07,2.18-0.04
					c1.75-0.26,1.87-2.61,1.13-3.83C204.32,230.97,203.55,230.35,202.73,229.82z"/>
				<path class="st23" d="M186.91,225.37c-1.26-0.7-2.63-1.3-4.07-1.32c-2.85-0.06-5.32,2.15-6.63,4.7
					c-1.07,2.07-1.57,4.48-1.13,6.77c0.44,2.29,1.89,4.42,3.98,5.41c0.61,0.29,1.3,0.48,1.97,0.39c0.89-0.12,1.64-0.73,2.27-1.38
					c1.52-1.6,1.78-3.5,2.89-5.23c0.9-1.4,2.88-0.82,4.21-1.74C193.75,230.64,188.97,226.51,186.91,225.37z"/>
				<path class="st33" d="M188.42,231.53c-0.61-0.31-1.09-0.88-1.69-1.19c-0.86-0.94-5.29-1.43-6.21,4.73
					c-0.28,1.84-1.7,3.75-3.15,4.66c0.5,0.47,1.06,0.88,1.69,1.18c0.61,0.29,1.3,0.48,1.97,0.39c0.89-0.12,1.64-0.73,2.27-1.38
					c1.52-1.6,1.78-3.5,2.89-5.23c0.9-1.4,2.88-0.82,4.21-1.74c0.48-0.33,0.77-0.7,0.95-1.08
					C190.48,232.17,189.54,232.11,188.42,231.53z"/>
				<path class="st21" d="M185.5,387.31c3.89,0.95,7.15,2.09,8.93,3.7h-15l0.29-3.48L185.5,387.31z"/>
				<path class="st21" d="M198.95,387.31c3.89,0.95,7.15,2.09,8.93,3.7h-15l0.29-3.48L198.95,387.31z"/>
				<path class="st35" d="M237.83,261.53c-0.08-0.04-0.22-0.12-0.31-0.14c-0.56-0.15-1.08,0.24-1.55,0.58
					c-0.82,0.61-2.36,1.86-3.04,2.62c0,0,0,0,0.01,0c-0.22,0.2-0.42,0.41-0.58,0.65c-0.52,0.76-0.67,1.82-0.18,2.6
					c0.38,0.61,1.08,1.06,1.79,1.05c1.04-0.01,2.45-0.56,3.15-1.38c0.7-0.82,0.64-1.73,0.14-2.67c-0.34-0.64-0.83-0.99-1.38-1.14
					c0.63-0.39,1.24-0.82,1.79-1.32c0.13-0.12,0.26-0.24,0.32-0.41C238.03,261.82,237.98,261.61,237.83,261.53z"/>
				<g>
					<g>
						<path class="st25" d="M237.47,263.7c0.51,0.95,0.56,1.86-0.14,2.67c-0.7,0.82-2.11,1.37-3.15,1.38
							c-0.72,0-1.41-0.45-1.79-1.05c-0.49-0.78-0.34-1.84,0.18-2.6C233.67,262.51,236.36,261.63,237.47,263.7z"/>
					</g>
					<g>
						<path class="st25" d="M235.71,262.81c0.78-0.43,1.51-0.96,2.17-1.56c0.13-0.12,0.26-0.24,0.32-0.41
							c0.06-0.16,0.01-0.38-0.14-0.46c-0.08-0.04-0.22-0.12-0.31-0.14c-0.56-0.15-1.08,0.24-1.55,0.58
							c-0.82,0.61-2.36,1.86-3.04,2.62C233.69,263.61,235.21,263.08,235.71,262.81z"/>
					</g>
				</g>
				<g>
					<path class="st21" d="M216.61,276.58c5.56-3.7,9.97-7.67,15-12.14c0.32-0.28,0.81-0.25,1.09,0.08c0.92,1.1,2.43,2.73,2.27,3.42
						c-0.09,0.38-0.36,0.69-0.62,0.98c-4.7,5.21-9.41,10.42-14.11,15.63c-0.93,1.03-1.87,2.07-3.04,2.81
						c-1.17,0.74-2.61,1.16-3.95,0.83c-2.26-0.56-3.53-2.89-4.76-4.87c-6.08-9.76-5.08-13.29-4.33-16.29
						c0.52-2.09,1.17-4.15,1.55-6.28c0.12-0.67-1.49-4.4-0.57-4.45c2.74,3.21,6.86,12.97,9.66,19.71
						C215.1,276.73,215.97,277.01,216.61,276.58z"/>
				</g>
				<g>
					<g>
						<path class="st36" d="M172.72,307.78l7.07,80.19c0,0,2.47,0.55,3.32,0.55c0.42,0,1.22-0.13,1.94-0.25
							c0.82-0.15,1.53-0.3,1.53-0.3l0.07-60.62h5.85l0.69,60.62c0,0,1.77,0.48,3.61,0.48c1.79,0,3.91-0.48,3.91-0.48l8.49-82.24
							L172.72,307.78z"/>
					</g>
					<g>
						<path class="st37" d="M190.91,313.79c0.04,2.72-0.15,5.17,0.8,7.63c0.74,1.93,2.42,3.18,4.82,3.14
							c3.5-0.07,5.93-1.98,5.94-5.52c0-0.46,0.23-5.25,0.45-5.26C202.93,313.79,190.91,313.79,190.91,313.79z"/>
					</g>
					<g>
						<path class="st37" d="M174.31,313.8c0.04,2.72-0.08,5.17,0.59,7.64c0.52,1.93,1.7,3.2,3.37,3.16c2.44-0.05,3.8-2.77,4.11-5.49
							c0.05-0.45,0.13-5.25,0.29-5.26C182.68,313.85,174.31,313.8,174.31,313.8z"/>
					</g>
					<g>
						<path class="st38" d="M186.66,327.35c0.01,0,0.02,0,0.03,0c0.08-0.01,0.13-0.09,0.12-0.17c-0.94-5.45-0.29-15.88-0.29-15.98
							c0-0.04-0.01-0.08-0.04-0.11c-0.03-0.03-0.07-0.04-0.11-0.04c-0.09,0-9.44,0.44-13.36-0.55c-0.07-0.03-0.16,0.03-0.18,0.11
							c-0.02,0.08,0.03,0.16,0.11,0.18c3.67,0.93,12.01,0.62,13.28,0.57c-0.08,1.35-0.58,10.78,0.3,15.89
							C186.53,327.3,186.59,327.35,186.66,327.35z"/>
					</g>
					<g>
						<path class="st38" d="M187.83,327.35c0,0,0.01,0,0.01,0c0.08-0.01,0.14-0.08,0.13-0.16c-0.56-6.37-0.62-11.4-0.21-15.8
							c5.58-0.05,12.35-0.78,20.12-2.18c0.08-0.01,0.13-0.09,0.12-0.17c-0.01-0.08-0.08-0.13-0.17-0.12
							c-7.82,1.4-14.62,2.13-20.2,2.17c-0.08,0-0.14,0.06-0.14,0.13c-0.43,4.45-0.37,9.53,0.19,15.98
							C187.69,327.29,187.75,327.35,187.83,327.35z"/>
					</g>
					<g class="st39">
						<path class="st40" d="M185.06,388.28c0.82-0.15,1.53-0.3,1.53-0.3l0.07-60.62h0.49c-0.12-0.19-0.28-0.25-0.49-0.15
							c-1.15,0.52-1.69,1.31-2.4,2.25c-0.56,0.76-0.89,1.69-0.91,2.63C182.88,350.77,183.97,364.99,185.06,388.28z"/>
					</g>
					<g>
						<path class="st38" d="M200.11,386.29c-0.08-0.01-0.14-0.08-0.13-0.16l0.12-1.2c0.01-0.08,0.08-0.15,0.16-0.13
							c0.08,0.01,0.14,0.08,0.13,0.16l-0.12,1.2c-0.01,0.08-0.07,0.13-0.15,0.13C200.12,386.29,200.12,386.29,200.11,386.29z
							 M200.47,382.76c-0.08-0.01-0.14-0.08-0.13-0.16l0.24-2.33c0.01-0.08,0.08-0.15,0.16-0.13c0.08,0.01,0.14,0.08,0.13,0.16
							l-0.24,2.33c-0.01,0.08-0.07,0.13-0.15,0.13C200.48,382.76,200.48,382.76,200.47,382.76z M200.95,378.1
							c-0.08-0.01-0.14-0.08-0.13-0.16l0.24-2.33c0.01-0.08,0.09-0.15,0.16-0.13c0.08,0.01,0.14,0.08,0.13,0.16l-0.24,2.33
							c-0.01,0.08-0.07,0.13-0.15,0.13C200.96,378.1,200.95,378.1,200.95,378.1z M201.42,373.44c-0.08-0.01-0.14-0.08-0.13-0.16
							l0.24-2.33c0.01-0.08,0.09-0.15,0.16-0.13c0.08,0.01,0.14,0.08,0.13,0.16l-0.24,2.33c-0.01,0.08-0.07,0.13-0.15,0.13
							C201.43,373.44,201.43,373.44,201.42,373.44z M201.9,368.78c-0.08-0.01-0.14-0.08-0.13-0.16l0.24-2.33
							c0.01-0.08,0.08-0.15,0.16-0.13c0.08,0.01,0.14,0.08,0.13,0.16l-0.24,2.33c-0.01,0.08-0.07,0.13-0.15,0.13
							C201.91,368.78,201.9,368.78,201.9,368.78z M202.38,364.12c-0.08-0.01-0.14-0.08-0.13-0.16l0.24-2.33
							c0.01-0.08,0.08-0.16,0.16-0.13c0.08,0.01,0.14,0.08,0.13,0.16l-0.24,2.33c-0.01,0.08-0.07,0.13-0.15,0.13
							C202.39,364.13,202.38,364.13,202.38,364.12z M202.85,359.47c-0.08-0.01-0.14-0.08-0.13-0.16l0.24-2.33
							c0.01-0.08,0.09-0.15,0.16-0.13c0.08,0.01,0.14,0.08,0.13,0.16l-0.24,2.33c-0.01,0.08-0.07,0.13-0.15,0.13
							C202.86,359.47,202.86,359.47,202.85,359.47z M203.33,354.81c-0.08-0.01-0.14-0.08-0.13-0.16l0.24-2.33
							c0.01-0.08,0.08-0.16,0.16-0.13c0.08,0.01,0.14,0.08,0.13,0.16l-0.24,2.33c-0.01,0.08-0.07,0.13-0.15,0.13
							C203.34,354.81,203.33,354.81,203.33,354.81z M203.8,350.15c-0.08-0.01-0.14-0.08-0.13-0.16l0.24-2.33
							c0.01-0.08,0.08-0.15,0.16-0.13c0.08,0.01,0.14,0.08,0.13,0.16l-0.24,2.33c-0.01,0.08-0.07,0.13-0.15,0.13
							C203.81,350.15,203.81,350.15,203.8,350.15z M204.28,345.49c-0.08-0.01-0.14-0.08-0.13-0.16l0.24-2.33
							c0.01-0.08,0.07-0.13,0.15-0.13c0,0,0.01,0,0.01,0c0.08,0.01,0.14,0.08,0.13,0.16l-0.24,2.33c-0.01,0.08-0.07,0.13-0.15,0.13
							C204.29,345.49,204.28,345.49,204.28,345.49z M204.76,340.83c-0.08-0.01-0.14-0.08-0.13-0.16l0.24-2.33
							c0.01-0.08,0.09-0.15,0.16-0.13c0.08,0.01,0.14,0.08,0.13,0.16l-0.24,2.33c-0.01,0.08-0.07,0.13-0.15,0.13
							C204.77,340.83,204.76,340.83,204.76,340.83z M205.23,336.17c-0.08-0.01-0.14-0.08-0.13-0.16l0.24-2.33
							c0.01-0.08,0.08-0.15,0.16-0.13c0.08,0.01,0.14,0.08,0.13,0.16l-0.24,2.33c-0.01,0.08-0.07,0.13-0.15,0.13
							C205.24,336.17,205.24,336.17,205.23,336.17z M205.71,331.52c-0.08-0.01-0.14-0.08-0.13-0.16l0.24-2.33
							c0.01-0.08,0.08-0.15,0.16-0.13c0.08,0.01,0.14,0.08,0.13,0.16l-0.24,2.33c-0.01,0.08-0.07,0.13-0.15,0.13
							C205.72,331.52,205.71,331.52,205.71,331.52z M206.18,326.86c-0.08-0.01-0.14-0.08-0.13-0.16l0.24-2.33
							c0.01-0.08,0.09-0.15,0.16-0.13c0.08,0.01,0.14,0.08,0.13,0.16l-0.24,2.33c-0.01,0.08-0.07,0.13-0.15,0.13
							C206.19,326.86,206.19,326.86,206.18,326.86z M206.66,322.2c-0.08-0.01-0.14-0.08-0.13-0.16l0.24-2.33
							c0.01-0.08,0.09-0.16,0.16-0.13c0.08,0.01,0.14,0.08,0.13,0.16l-0.24,2.33c-0.01,0.08-0.07,0.13-0.15,0.13
							C206.67,322.2,206.66,322.2,206.66,322.2z M207.13,317.54c-0.08-0.01-0.14-0.08-0.13-0.16l0.24-2.33
							c0.01-0.08,0.08-0.15,0.16-0.13c0.08,0.01,0.14,0.08,0.13,0.16l-0.24,2.33c-0.01,0.08-0.07,0.13-0.15,0.13
							C207.15,317.54,207.14,317.54,207.13,317.54z M207.61,312.88c-0.08-0.01-0.14-0.08-0.13-0.16l0.24-2.33
							c0.01-0.08,0.08-0.16,0.16-0.13c0.08,0.01,0.14,0.08,0.13,0.16l-0.24,2.33c-0.01,0.08-0.07,0.13-0.15,0.13
							C207.62,312.88,207.62,312.88,207.61,312.88z"/>
					</g>
				</g>
				<path class="st21" d="M187.21,253.65c-11.57,2.66-20.3,31.07-35.77,29.18v5.05c7.24,0,17.13-2.31,25.24-13.43
					C188.41,258.39,187.21,253.65,187.21,253.65z"/>
				<path class="st41" d="M187.21,253.65c-11.57,2.66-20.3,31.07-35.77,29.18v5.05c7.24,0,17.13-2.31,25.24-13.43
					C188.41,258.39,187.21,253.65,187.21,253.65z"/>
				<path class="st21" d="M205.14,256.31c7.1,8.14,6.51,49.42,7.32,75.06c-12.8,2.69-26.53,2.57-40.91,0.5
					c0,0-2.24-41.31,4.96-64.71C181.4,251.28,197.64,247.72,205.14,256.31z"/>
				<path class="st41" d="M181.35,310.75c-2.66-8.74-3.85-17.71-3.83-26.84c0.02-7.67,0.21-15.99,2.22-23.56
					c-1.32,1.94-2.43,4.2-3.23,6.8c-7.2,23.4-4.96,64.71-4.96,64.71c7.27,1.05,14.37,1.6,21.27,1.53
					C187.6,326.79,183.86,319.02,181.35,310.75z"/>
			</g>
		</g>
		<g>
			<path class="st12" d="M68.31,243.42c1.04-0.06,8.16-5.33,10.91-7.11c0.77-0.5,1.56-1.02,2.09-1.77c0.54-0.74,0.79-1.77,0.4-2.6
				c-0.49-1.03-1.29-2.06-3.33-2.06c-3.55,0.01-4.78,1.17-6.5,2.96C66.17,238.74,68.31,243.42,68.31,243.42z"/>
			<path class="st12" d="M100.23,264.69c3.1,1.39,6.41,2.78,9.78,2.35c1.31-0.17,2.73-0.76,3.17-2.01c0.37-1.06-0.14-2.28-0.98-3.03
				c-0.84-0.75-1.95-1.11-3.05-1.38c-4.13-1.01-9.92-0.45-14,0.71C95.14,261.34,98.38,263.85,100.23,264.69z"/>
			<path class="st12" d="M120.64,218.9c-1.38-0.87-2.91-2.04-2.91-3.68c0-1.64,1.71-2.89,3.35-2.9c1.64-0.01,3.16,0.89,4.39,1.97
				c5.22,4.58,4.57,9.8,4.57,9.8S122.18,219.87,120.64,218.9z"/>
			<path class="st12" d="M124.76,204.93c-1.21-0.52-2.47-1.15-3.18-2.26c-0.35-0.54-0.54-1.23-0.33-1.83
				c0.36-1.01,0.99-1.93,3.55-1.46c8.1,1.47,9.86,7.01,9.86,7.01S126.9,205.86,124.76,204.93z"/>
			<path class="st12" d="M148.48,217.2c3.25-0.28,6.6-1.9,8.65-4.43c0.77-0.96,1.48-2.01,1.74-3.22c0.26-1.2-0.02-2.58-0.95-3.39
				c-1.14-0.98-2.94-0.82-4.19,0c-1.25,0.83-2.06,2.17-2.71,3.53C150.14,211.49,148.48,217.2,148.48,217.2z"/>
			<path class="st42" d="M90.49,335.61c-7.86-6.93-15.73-13.86-23.59-20.8c-4.19-3.69-8.47-7.5-11.12-12.41
				c-5.71-10.57-2.42-24.3,5.29-33.51c7.71-9.21,18.99-14.65,30.33-18.61c11.34-3.96,23.14-6.74,33.95-11.97
				c6.78-3.28,13.59-8.17,15.45-15.47c1.12-4.39,0.18-9.26-2.49-12.92c-2.67-3.66-7.03-6.04-11.55-6.3"/>
			<path class="st42" d="M153.97,209.66c-2.15,6.6-10.52,10.61-14.34,16.33"/>
			<path class="st42" d="M123.92,217.25c1.65,1.74,3.62,3.18,5.06,5.1c3.04,4.05,3.29,10.63-1.2,14.72"/>
			<path class="st42" d="M81.58,254.18c6.94,5.35,16.06,8.91,24.81,9.25"/>
			<path class="st42" d="M65.69,263.92c-3.19-9.42,0.29-20.7,8.23-26.69"/>
		</g>
		<g>
			<path class="st12" d="M340.62,134.54c-0.38-1.17-0.36-2.6,0.5-3.47c0.68-0.69,1.82-1,2.71-0.61c6.88,3.03,6.13,13.8,6.13,13.8
				S343.45,143.31,340.62,134.54z"/>
			<path class="st12" d="M340.46,154.7c-4.45,8.07,11.36,7.45,17.07,2.7C357.52,157.4,344.29,147.75,340.46,154.7z"/>
			<path class="st12" d="M360.45,135.15c-1.07-1.48-1.45-3.67-0.29-5.08c0.87-1.04,2.39-1.37,3.72-1.11
				c1.33,0.26,3.33,1.49,4.18,2.55c5.2,6.49,2.76,12.85,2.76,12.85S362.21,137.56,360.45,135.15z"/>
			<path class="st12" d="M423.25,155.12c-0.38-1.26-0.29-2.79,0.68-3.67c0.61-0.56,1.49-0.76,2.31-0.69
				c0.82,0.06,1.61,0.36,2.37,0.71c1.61,0.74,2.87,2.03,3.64,3.63c1.96,4.04,0.63,9.04,0.63,9.04S424.2,158.25,423.25,155.12z"/>
			<path class="st12" d="M403.49,169.92c-2.8-2.46-7.08-3.19-10.48-1.69c-0.87,0.38-1.69,0.92-2.24,1.69
				c-1.25,1.73-0.81,4.27,0.48,5.96c1.3,1.7,3.26,2.73,5.2,3.61c3.52,1.6,8.98,1.92,12.73,2.88
				C409.18,182.37,409.16,174.91,403.49,169.92z"/>
			<path class="st42" d="M345.55,136.27c2.33,7.64,8.91,13.4,16.24,16.52c7.33,3.12,15.4,3.94,23.35,4.46
				c7.95,0.52,15.99,0.77,23.67,2.86c7.49,2.04,14.95,6.29,18.16,13.37c3.91,8.62,0.45,18.93-5.04,26.64
				c-5.49,7.71-12.89,13.92-18.2,21.75c-2.44,3.6-4.48,7.81-3.98,12.13c0.66,5.76,5.5,10,9.99,13.65"/>
			<path class="st42" d="M363.87,133.46c5.27,5.84,9.47,14.98,10.5,22.79"/>
			<path class="st42" d="M346.16,156.03c3.01,0.8,6.06,1.61,9.18,1.62c3.11,0.01,6.72-1.72,8.96-3.89"/>
			<path class="st42" d="M428.4,155.59c2.82,2.73,4.54,6.58,4.68,10.51c0.15,3.93-2.03,8.69-4.64,11.63"/>
			<path class="st42" d="M398.88,173.43c5.63,5.2,10.54,9.41,16.8,13.83c2.86,2.02,8.54,4.6,11.05,3.94"/>
		</g>
	</g>
</g>
</svg>
