<?xml version="1.0" encoding="utf-8"?>
<!-- Generator: Adobe Illustrator 24.0.1, SVG Export Plug-In . SVG Version: 6.00 Build 0)  -->
<svg version="1.1" id="OBJECTS" xmlns="http://www.w3.org/2000/svg" xmlns:xlink="http://www.w3.org/1999/xlink" x="0px" y="0px"
	 viewBox="0 0 476.5 366.4" style="enable-background:new 0 0 476.5 366.4;" xml:space="preserve">
<style type="text/css">
	.st0{fill:#D4EBF8;}
	.st1{fill:url(#SVGID_1_);}
	.st2{fill:url(#SVGID_2_);}
	.st3{fill:#5148FF;}
	.st4{fill:url(#SVGID_3_);}
	.st5{fill:url(#SVGID_4_);}
	.st6{fill:url(#SVGID_5_);}
	.st7{fill:url(#SVGID_6_);}
	.st8{fill:url(#SVGID_7_);}
	.st9{fill:url(#SVGID_8_);}
	.st10{fill:url(#SVGID_9_);}
	.st11{fill:url(#SVGID_10_);}
	.st12{fill:url(#SVGID_11_);}
	.st13{fill:url(#SVGID_12_);}
	.st14{fill:url(#SVGID_13_);}
	.st15{fill:url(#SVGID_14_);}
	.st16{fill:url(#SVGID_15_);}
	.st17{fill:url(#SVGID_16_);}
	.st18{fill:url(#SVGID_17_);}
	.st19{fill:url(#SVGID_18_);}
	.st20{fill:url(#SVGID_19_);}
	.st21{fill:url(#SVGID_20_);}
	.st22{fill:url(#SVGID_21_);}
	.st23{fill:url(#SVGID_22_);}
	.st24{fill:url(#SVGID_23_);}
	.st25{fill:#E6E7E8;}
	.st26{fill:#F9FBFC;}
	.st27{fill:#0459A4;}
	.st28{fill:#E1E4F9;}
	.st29{fill:#3D348B;}
	.st30{fill:url(#SVGID_24_);}
	.st31{fill:#E45061;}
	.st32{fill:url(#SVGID_25_);}
	.st33{fill:#112B46;}
	.st34{fill:#01387A;}
	.st35{fill:#878CF0;}
	.st36{fill:#7678ED;}
	.st37{fill:#FFC8AF;}
	.st38{fill:#F4B69D;}
	.st39{fill:url(#SVGID_26_);}
	.st40{fill:url(#SVGID_27_);}
	.st41{fill:#737EE5;}
	.st42{fill:#929CF7;}
	.st43{fill:#FCCD1D;}
	.st44{fill:url(#SVGID_28_);}
	.st45{fill:#F79663;}
	.st46{fill:url(#SVGID_29_);}
	.st47{fill:url(#SVGID_30_);}
	.st48{fill:#56548C;}
	.st49{fill:#FBD15B;}
	.st50{fill:url(#SVGID_31_);}
	.st51{fill:#B1B2F3;}
</style>
<g>
	<path class="st0" d="M352.4,18c-1.1,0-2.2,0.1-3.3,0.2c-13.3,1.5-24.2,12.2-25.8,25.5c-1.3,10.7,3.3,21.3,12,27.6
		c2.5,1.8,4.6,4.2,6,6.9h-3.4v2.4h-0.6V83h0.6v1.9h-0.6v2.5h0.6v1.9h-0.6v2.5h0.6v1.9h-0.6v2.5h0.6c0.2,2.1,2,3.7,4.1,3.7h2.2v1.1
		c0,1.6,1.3,2.9,2.9,2.9h10.3c1.6,0,2.9-1.3,2.9-2.9v-1.1h2.2c2.1,0,3.9-1.6,4.1-3.7h0.6v-2.5h-0.6v-1.9h0.6v-2.5h-0.6v-1.9h0.6
		v-2.5h-0.6V83h0.6v-2.5h-0.6v-2.4h-3.3c1.5-2.7,3.6-5.1,6.3-7.1c7.5-5.5,11.9-14.4,11.9-23.6C381.7,31.2,368.5,18,352.4,18z"/>
	<rect x="60.5" y="35.4" class="st0" width="57.8" height="43.1"/>
	<rect x="126" y="72.7" class="st0" width="57.8" height="32.4"/>
	<ellipse transform="matrix(0.9264 -0.3766 0.3766 0.9264 -27.1507 137.1104)" class="st0" cx="337" cy="138" rx="26.2" ry="26.2"/>
	<path class="st0" d="M296.1,82.9c-0.3-4.4-1.5-8.6-3.6-12.3l3.6-2c-1.8-3.2-4.1-6.1-6.9-8.6l-2.7,3.1c-3.1-2.8-6.9-5-11.3-6.2
		l1.1-3.9l-0.1,0c-3-0.8-6-1.3-9-1.3c-0.6,0-1.3,0-1.9,0.1l0.2,4.1c-4.4,0.3-8.6,1.5-12.3,3.6l-2-3.6c-3.2,1.8-6.1,4.1-8.6,6.9
		l3.1,2.7c-2.8,3.1-5,6.9-6.2,11.3l-3.9-1.1l0,0.1c-0.8,3-1.3,6-1.3,9c0,0.6,0,1.3,0.1,1.9l4.1-0.2c0.3,4.4,1.5,8.6,3.6,12.3l-3.6,2
		c1.8,3.2,4.1,6.1,6.9,8.6l2.7-3.1c3.1,2.8,6.9,5,11.3,6.2l-1.1,3.9l0.1,0c3,0.8,6,1.3,9,1.3c0.7,0,1.3,0,2-0.1l-0.2-4.1
		c4.4-0.3,8.6-1.5,12.3-3.6l2,3.6c3.2-1.8,6.1-4.1,8.6-6.9l-3.1-2.7c2.8-3.2,5-7,6.2-11.3l3.9,1.1l0,0c0.8-3,1.3-6,1.3-9
		c0-0.7,0-1.3-0.1-2L296.1,82.9z M260,110L260,110l0.2-0.7L260,110z M284,89.4c-2.2,7.7-9.2,12.7-16.8,12.7c-1.6,0-3.2-0.2-4.8-0.7
		c-7.7-2.2-12.7-9.2-12.7-16.8c0-1.6,0.2-3.2,0.7-4.8c2.2-7.7,9.2-12.7,16.8-12.7c1.6,0,3.2,0.2,4.8,0.7c7.7,2.2,12.7,9.2,12.7,16.8
		C284.7,86.2,284.5,87.8,284,89.4z"/>
	<ellipse transform="matrix(0.229 -0.9734 0.9734 0.229 201.4592 319.9864)" class="st0" cx="302.7" cy="32.8" rx="7.7" ry="7.7"/>
	<g>
		<path class="st0" d="M447.9,337.2c-140.4,0-280.7,0-421.1,0C3.8,298.7,13,251,44,227.7c24.1-18.1,58.7-19.6,87.7-3.9
			c-1.5-10.8,3.9-21.4,13.3-26.6c9.8-5.4,22.2-3.8,30.5,3.9c1.8-4,13-28.3,39.9-36.8c24.4-7.7,52.1,0.6,70.4,21.1
			c13.5-9.6,31.2-11.1,46.2-3.9c14.9,7.2,24.8,21.9,25.8,38.4c28-11.8,59.5-8.4,80.6,9.4C467.1,253.3,473.3,300.6,447.9,337.2z"/>
		
			<ellipse transform="matrix(0.2298 -0.9732 0.9732 0.2298 -122.8519 246.9433)" class="st0" cx="94.6" cy="201.1" rx="69.4" ry="69.4"/>
		<circle class="st0" cx="217" cy="151.2" r="69.4"/>
		
			<ellipse transform="matrix(0.5969 -0.8023 0.8023 0.5969 -60.431 170.8202)" class="st0" cx="139.8" cy="145.6" rx="22.2" ry="22.2"/>
	</g>
	<linearGradient id="SVGID_1_" gradientUnits="userSpaceOnUse" x1="235.9314" y1="223.0867" x2="235.9314" y2="341.8296">
		<stop  offset="0" style="stop-color:#FBD15B"/>
		<stop  offset="1" style="stop-color:#FE9373"/>
	</linearGradient>
	<path class="st1" d="M445.5,269.8c0.2-1.2,0.3-2.4,0.3-3.6c0-14.2-11.5-25.7-25.7-25.7c-3.5,0-6.8,0.7-9.9,2
		c-2-11.9-12.4-21-24.9-21c-9.6,0-17.9,5.4-22.2,13.3c-19.9-9.4-44.7-8.5-66,3.1c1.3-9.5-3.4-18.8-11.7-23.3
		c-8.6-4.7-19.5-3.4-26.7,3.4c-1.6-3.5-11.3-24.8-35-32.2c-21.4-6.8-45.7,0.5-61.7,18.5c-11.9-8.4-27.4-9.7-40.5-3.4
		c-7.8,3.8-14,9.9-18,17.3c-6.8-13.8-21-23.3-37.4-23.3c-23,0-41.7,18.7-41.7,41.7c0,3,0.3,5.9,0.9,8.8c-22.5,21.7-26.6,61.1-5.3,92
		H354h21.5h81.7c5.4-7.9,8.5-17.4,8.5-27.7C465.7,293.2,457.7,278.8,445.5,269.8z"/>
	<g>
		<g>
			
				<linearGradient id="SVGID_2_" gradientUnits="userSpaceOnUse" x1="936.3326" y1="287.8345" x2="936.3326" y2="327.4413" gradientTransform="matrix(1 0 0 1 -546.8982 0)">
				<stop  offset="0" style="stop-color:#435DF1"/>
				<stop  offset="0.327" style="stop-color:#4333F1"/>
				<stop  offset="1" style="stop-color:#4C008C"/>
			</linearGradient>
			<path class="st2" d="M402.2,327.4h-11.4c0-6.1-4-12.2-7-17.3c-0.1-0.2-0.2-0.3-0.3-0.5c-2.6-4.5-6-8.6-7-13.9
				c-0.3-1.5-0.3-3.2,0.4-4.5c0.8-1.5,2.3-2.4,3.9-2.8C399.8,283.6,403.8,309,402.2,327.4z"/>
			<path class="st3" d="M397.3,327.4h-0.5c0-2.6-0.3-5.2-0.7-7.7c-0.5-3.1-1.3-6.1-2.3-9.1c-2-5.9-5-11.5-9-16.3
				c-0.3-0.4,0-0.6,0.3-0.3c4.3,4.6,7.7,10.2,9.7,16.3c1,3,1.7,6.1,2.1,9.3C397.3,322.2,397.5,324.8,397.3,327.4z"/>
		</g>
		
			<linearGradient id="SVGID_3_" gradientUnits="userSpaceOnUse" x1="1330.9401" y1="296.2503" x2="1330.9401" y2="327.4413" gradientTransform="matrix(-1 0 0 1 1763.7977 0)">
			<stop  offset="0" style="stop-color:#435DF1"/>
			<stop  offset="0.327" style="stop-color:#4333F1"/>
			<stop  offset="1" style="stop-color:#4C008C"/>
		</linearGradient>
		<path class="st4" d="M422.6,327.4h11.6c0-14.9,16.9-29.5,4.1-31.1c-4.5-0.6-7.7,1.8-10,5.4C422.6,310.6,422.6,327.4,422.6,327.4z"
			/>
		
			<linearGradient id="SVGID_4_" gradientUnits="userSpaceOnUse" x1="1357.8301" y1="257.1192" x2="1357.8301" y2="327.4413" gradientTransform="matrix(-1 0 0 1 1763.7977 0)">
			<stop  offset="0" style="stop-color:#435DF1"/>
			<stop  offset="0.327" style="stop-color:#4333F1"/>
			<stop  offset="1" style="stop-color:#4C008C"/>
		</linearGradient>
		<path class="st5" d="M409.9,327.4h14.3c2.3-21.5,1.7-75.2-29.4-70C370.9,261.5,409.3,292.5,409.9,327.4z"/>
		<g>
			<path class="st3" d="M402.1,269.3c1.9,2.1,3.4,4.5,4.8,6.9c1.4,2.5,2.5,5,3.5,7.7c1,2.6,1.8,5.3,2.5,8.1c0.7,2.7,1.3,5.5,1.8,8.3
				c1,5.6,1.6,11.2,2,16.9c0.2,3.4,0.4,6.8,0.4,10.2h1c0.1-3.4,0.1-6.9,0-10.3c-0.2-5.7-0.8-11.4-1.8-17.1c-0.5-2.8-1.1-5.6-1.9-8.4
				c-0.7-2.8-1.7-5.5-2.7-8.2c-0.5-1.3-1.1-2.6-1.8-3.9c-0.7-1.3-1.3-2.6-2.1-3.8c-1.5-2.5-3.2-4.8-5.2-6.8
				C401.9,268.3,401.5,268.6,402.1,269.3z"/>
		</g>
		<g>
			
				<linearGradient id="SVGID_5_" gradientUnits="userSpaceOnUse" x1="1361.5305" y1="302.5143" x2="1361.5305" y2="327.4413" gradientTransform="matrix(-1 0 0 1 1763.7977 0)">
				<stop  offset="0" style="stop-color:#435DF1"/>
				<stop  offset="0.327" style="stop-color:#4333F1"/>
				<stop  offset="1" style="stop-color:#4C008C"/>
			</linearGradient>
			<path class="st6" d="M398.7,327.4h11.8c0,0,3.1-24.9-10.3-24.9C388,302.5,396.2,317.9,398.7,327.4z"/>
			<g>
				<path class="st3" d="M402.2,308.7c1.8,5.6,2.5,11.5,2.9,17.3c0,0.5,0,1,0.1,1.4h1c0-0.5,0-1-0.1-1.5c-0.4-5.9-1.4-11.9-3.6-17.4
					C402.4,308.1,402.1,308.2,402.2,308.7z"/>
			</g>
		</g>
		<g>
			<path class="st3" d="M427,327.4h0.7c0.3-2.3,0.6-4.5,1-6.8c0.6-3.1,1.4-6.2,2.5-9.2c0.3-0.7,0.6-1.5,0.9-2.2
				c0.2-0.4,0.3-0.7,0.5-1.1l0.5-1.1l0.5-1.1c0.2-0.4,0.3-0.7,0.6-1l1.3-2c0.3-0.4,0.1-0.6-0.2-0.2l-1.4,2c-0.2,0.3-0.4,0.7-0.6,1
				l-0.6,1.1l-0.6,1.1c-0.2,0.4-0.3,0.7-0.5,1.1c-0.3,0.7-0.7,1.5-1,2.2c-1.2,3-2,6.1-2.7,9.3C427.6,322.8,427.3,325.1,427,327.4z"
				/>
		</g>
	</g>
	<g>
		<g>
			
				<linearGradient id="SVGID_6_" gradientUnits="userSpaceOnUse" x1="569.7798" y1="286.8539" x2="569.7798" y2="330.9135" gradientTransform="matrix(1 0 0 1 -546.8982 0)">
				<stop  offset="0" style="stop-color:#435DF1"/>
				<stop  offset="0.327" style="stop-color:#4333F1"/>
				<stop  offset="1" style="stop-color:#4C008C"/>
			</linearGradient>
			<path class="st7" d="M37.1,330.9H24.4c0-6.8-4.5-13.5-7.8-19.2c-0.1-0.2-0.2-0.4-0.3-0.5c-2.9-5-6.6-9.6-7.8-15.4
				c-0.3-1.7-0.4-3.5,0.4-5c0.8-1.6,2.6-2.7,4.3-3.1C34.4,282.1,38.8,310.4,37.1,330.9z"/>
			<path class="st3" d="M31.7,330.9h-0.5c0-2.9-0.3-5.8-0.8-8.6c-0.6-3.4-1.4-6.8-2.5-10.1c-2.2-6.6-5.6-12.8-10-18.1
				c-0.4-0.5,0-0.7,0.3-0.3c4.8,5.1,8.5,11.4,10.8,18.1c1.1,3.4,1.9,6.8,2.4,10.3C31.6,325.1,31.8,328,31.7,330.9z"/>
		</g>
		
			<linearGradient id="SVGID_7_" gradientUnits="userSpaceOnUse" x1="1692.6111" y1="296.2159" x2="1692.6111" y2="330.9135" gradientTransform="matrix(-1 0 0 1 1763.7977 0)">
			<stop  offset="0" style="stop-color:#435DF1"/>
			<stop  offset="0.327" style="stop-color:#4333F1"/>
			<stop  offset="1" style="stop-color:#4C008C"/>
		</linearGradient>
		<path class="st8" d="M59.8,330.9h12.9c0-16.6,18.7-32.8,4.6-34.6c-5-0.6-8.6,1.9-11.2,6C59.8,312.2,59.8,330.9,59.8,330.9z"/>
		
			<linearGradient id="SVGID_8_" gradientUnits="userSpaceOnUse" x1="1722.5242" y1="252.6856" x2="1722.5242" y2="330.9135" gradientTransform="matrix(-1 0 0 1 1763.7977 0)">
			<stop  offset="0" style="stop-color:#435DF1"/>
			<stop  offset="0.327" style="stop-color:#4333F1"/>
			<stop  offset="1" style="stop-color:#4C008C"/>
		</linearGradient>
		<path class="st9" d="M45.6,330.9h15.9c2.6-23.9,1.9-83.7-32.7-77.8C2.3,257.6,45,292.1,45.6,330.9z"/>
		<g>
			<path class="st3" d="M37,266.3c2.1,2.3,3.8,5,5.3,7.7c1.5,2.7,2.8,5.6,3.9,8.6c1.1,2.9,2,5.9,2.8,9c0.8,3,1.4,6.1,2,9.2
				c1.1,6.2,1.8,12.5,2.2,18.8c0.2,3.8,0.4,7.6,0.4,11.4h1.1c0.1-3.8,0.1-7.6,0-11.5c-0.2-6.4-0.8-12.7-2-19
				c-0.5-3.1-1.3-6.3-2.1-9.3c-0.8-3.1-1.9-6.1-3.1-9.1c-0.6-1.5-1.3-2.9-2-4.4c-0.7-1.4-1.5-2.8-2.3-4.2c-1.7-2.7-3.6-5.3-5.8-7.6
				C36.8,265.1,36.3,265.5,37,266.3z"/>
		</g>
		<g>
			
				<linearGradient id="SVGID_9_" gradientUnits="userSpaceOnUse" x1="1726.6405" y1="303.1841" x2="1726.6405" y2="330.9135" gradientTransform="matrix(-1 0 0 1 1763.7977 0)">
				<stop  offset="0" style="stop-color:#435DF1"/>
				<stop  offset="0.327" style="stop-color:#4333F1"/>
				<stop  offset="1" style="stop-color:#4C008C"/>
			</linearGradient>
			<path class="st10" d="M33.2,330.9h13.2c0,0,3.5-27.7-11.4-27.7C21.3,303.2,30.4,320.3,33.2,330.9z"/>
			<g>
				<path class="st3" d="M37.1,310c2,6.2,2.8,12.8,3.3,19.3c0,0.5,0.1,1.1,0.1,1.6h1.1c0-0.6,0-1.1-0.1-1.7
					c-0.5-6.6-1.6-13.2-4-19.4C37.3,309.4,36.9,309.5,37.1,310z"/>
			</g>
		</g>
		<g>
			<path class="st3" d="M64.7,330.9h0.8c0.3-2.5,0.7-5,1.2-7.5c0.7-3.5,1.6-6.9,2.8-10.2c0.3-0.8,0.7-1.6,1-2.5
				c0.2-0.4,0.3-0.8,0.5-1.2l0.6-1.2l0.6-1.2c0.2-0.4,0.4-0.8,0.6-1.2l1.4-2.3c0.3-0.5,0.1-0.7-0.3-0.2l-1.5,2.2
				c-0.3,0.4-0.5,0.8-0.7,1.2l-0.6,1.2l-0.6,1.2c-0.2,0.4-0.4,0.8-0.6,1.2c-0.4,0.8-0.7,1.6-1.1,2.5c-1.3,3.4-2.2,6.8-3,10.3
				C65.4,325.8,65,328.3,64.7,330.9z"/>
		</g>
	</g>
	<g>
		<g>
			
				<linearGradient id="SVGID_10_" gradientUnits="userSpaceOnUse" x1="37.6083" y1="299.7044" x2="37.6083" y2="403.4202" gradientTransform="matrix(0.9947 0.1032 -0.1032 0.9947 48.4261 -94.8911)">
				<stop  offset="0" style="stop-color:#26E6FF"/>
				<stop  offset="0.4856" style="stop-color:#4189FF"/>
				<stop  offset="0.8345" style="stop-color:#534CFF"/>
				<stop  offset="1" style="stop-color:#5A35FF"/>
			</linearGradient>
			<path class="st11" d="M82.6,265.2c-5.6-3-13.5,9.1-13.5,9.1c2.7-8.3,11.8-29.5,3.9-34.8c-6.4-4.3-13.5,3.9-15.8,10.3
				c1.9-7.3,9.8-30.2,2.2-33.2C52.8,214,48,224.8,47,231.1c-0.8-6.5-1.8-28.6-13.9-25.7c-11.7,3-5,23.3-1.9,30.7
				c-3.5-4.4-12.3-13.4-16.9-6.4c-7.4,11.3,20.5,29.7,20.5,29.7c0,0-16.7-5.4-16.6,4.8c0.2,14.5,17,21.9,29.4,22.7
				c-17.7-1.5-16,14.8-3.4,21.2c10.6,5.4,23.5,4.5,33.5-2C84.4,299,91.2,269.7,82.6,265.2z"/>
			
				<linearGradient id="SVGID_11_" gradientUnits="userSpaceOnUse" x1="2.6456" y1="358.754" x2="87.381" y2="358.754" gradientTransform="matrix(0.9947 0.1032 -0.1032 0.9947 48.4261 -94.8911)">
				<stop  offset="0" style="stop-color:#5277FF"/>
				<stop  offset="1" style="stop-color:#30009F"/>
			</linearGradient>
			<path class="st12" d="M75.8,284.4c-0.7,2.2-1.5,4.4-2.4,6.6c-0.7,1.7-1.5,3.3-2.4,4.8c-5.5-7.1-10.5-14.6-14.9-22.5
				c1.4-2,2.8-4.1,3.9-6.2c1.3-2.3,2.5-4.8,3.6-7.3c1.1-2.5,2.1-5,2.9-7.6c0.9-2.6,1.6-5.2,2.2-7.8c-0.7,2.6-1.5,5.2-2.5,7.7
				c-1,2.5-2,5-3.2,7.4c-1.2,2.4-2.5,4.8-3.9,7.1c-1.2,1.9-2.5,3.8-3.9,5.6c-3.4-6.1-6.6-12.5-9.3-19c1.3-2.4,2.5-4.8,3.5-7.3
				c0.6-1.3,1-2.6,1.6-4c0.4-1.4,0.9-2.7,1.4-4c0.8-2.7,1.6-5.4,2.3-8.2c0.7-2.7,1.2-5.5,1.6-8.3c-0.5,2.8-1.2,5.5-1.9,8.2
				c-0.7,2.7-1.6,5.4-2.5,8c-0.5,1.3-1,2.6-1.5,3.9c-0.6,1.3-1.1,2.6-1.7,3.8c-1,2.2-2.1,4.3-3.3,6.4c-5-13-8.8-25.9-11.4-39.5
				c2.3,13.8,5.7,26.8,10.4,40c-2.2-0.6-4.4-1.3-6.6-2.3c-2.5-1.1-5-2.5-7.4-4c-2.4-1.6-4.8-3.3-7-5.3c-2.3-2-4.5-4.1-6.5-6.5
				c2,2.5,4.2,4.7,6.4,6.8c2.2,2.1,4.6,3.9,7,5.6c2.4,1.7,4.9,3.1,7.4,4.4c2.4,1.2,4.9,2.1,7.4,2.8c2.8,6.7,5.7,13.1,8.9,19.5
				c-2.1,0.5-4.3,0.8-6.5,0.7c-2.6-0.1-5.3-0.5-7.9-1.2c-2.7-0.7-5.3-1.6-8-2.8c-2.6-1.2-5.3-2.6-7.8-4.3c2.5,1.8,5.1,3.3,7.8,4.6
				c2.6,1.3,5.3,2.4,8,3.2c2.7,0.8,5.4,1.3,8.1,1.5c2.4,0.2,4.8,0,7.1-0.5c4.3,8,9.1,15.7,14.4,23c-1.9,0.5-3.9,1-6,1.2
				c-2.6,0.3-5.2,0.5-7.8,0.4c-2.7,0-5.4-0.2-8.1-0.6c-2.7-0.4-5.5-0.9-8.3-1.7c2.8,0.9,5.5,1.6,8.3,2.1c2.8,0.5,5.5,0.8,8.2,1
				c2.7,0.2,5.4,0.1,8-0.1c2.2-0.2,4.4-0.6,6.5-1.1c6.4,8.5,13.4,16.6,21.1,24c0.9-1,1.4-1.5,2.3-2.5c-7.8-7-14.9-14.9-21.4-23.1
				c0.9-1.8,1.7-3.5,2.4-5.4c0.8-2.2,1.5-4.5,2.2-6.8c0.6-2.3,1.2-4.6,1.7-6.9c0.5-2.3,1-4.6,1.3-6.9c-0.5,2.3-1,4.6-1.6,6.8
				C77.2,279.9,76.5,282.2,75.8,284.4z"/>
		</g>
	</g>
	<g>
		<g>
			
				<linearGradient id="SVGID_12_" gradientUnits="userSpaceOnUse" x1="266.9955" y1="287.2467" x2="266.9955" y2="390.9625" gradientTransform="matrix(-0.9947 0.1032 0.1032 0.9947 469.1051 -94.8911)">
				<stop  offset="0" style="stop-color:#26E6FF"/>
				<stop  offset="0.4856" style="stop-color:#4189FF"/>
				<stop  offset="0.8345" style="stop-color:#534CFF"/>
				<stop  offset="1" style="stop-color:#5A35FF"/>
			</linearGradient>
			<path class="st13" d="M205.5,276.5c5.6-3,13.5,9.1,13.5,9.1c-2.7-8.3-11.8-29.5-3.9-34.8c6.4-4.3,13.5,3.9,15.8,10.3
				c-1.9-7.3-9.8-30.2-2.2-33.2c6.6-2.7,11.4,8.2,12.4,14.5c0.8-6.5,1.8-28.6,13.9-25.7c11.7,3,5,23.3,1.9,30.7
				c3.5-4.4,12.3-13.4,16.9-6.4c7.4,11.3-20.5,29.7-20.5,29.7c0,0,16.7-5.4,16.6,4.8c-0.2,14.5-17,21.9-29.4,22.7
				c17.7-1.5,16,14.8,3.4,21.2c-10.6,5.4-23.5,4.5-33.5-2C203.7,310.3,196.9,281,205.5,276.5z"/>
			
				<linearGradient id="SVGID_13_" gradientUnits="userSpaceOnUse" x1="232.0329" y1="346.2964" x2="316.7682" y2="346.2964" gradientTransform="matrix(-0.9947 0.1032 0.1032 0.9947 469.1051 -94.8911)">
				<stop  offset="0" style="stop-color:#5277FF"/>
				<stop  offset="1" style="stop-color:#30009F"/>
			</linearGradient>
			<path class="st14" d="M212.3,295.7c0.7,2.2,1.5,4.4,2.4,6.6c0.7,1.7,1.5,3.3,2.4,4.8c5.5-7.1,10.5-14.6,14.9-22.5
				c-1.4-2-2.8-4.1-3.9-6.2c-1.3-2.3-2.5-4.8-3.6-7.3c-1.1-2.5-2.1-5-2.9-7.6c-0.9-2.6-1.6-5.2-2.2-7.8c0.7,2.6,1.5,5.2,2.5,7.7
				c1,2.5,2,5,3.2,7.4c1.2,2.4,2.5,4.8,3.9,7.1c1.2,1.9,2.5,3.8,3.9,5.6c3.4-6.1,6.6-12.5,9.3-19c-1.3-2.4-2.5-4.8-3.5-7.3
				c-0.6-1.3-1-2.6-1.6-4c-0.4-1.4-0.9-2.7-1.4-4c-0.8-2.7-1.6-5.4-2.3-8.2c-0.7-2.7-1.2-5.5-1.6-8.3c0.5,2.8,1.2,5.5,1.9,8.2
				c0.7,2.7,1.6,5.4,2.5,8c0.5,1.3,1,2.6,1.5,3.9c0.6,1.3,1.1,2.6,1.7,3.8c1,2.2,2.1,4.3,3.3,6.4c5-13,8.8-25.9,11.4-39.5
				c-2.3,13.8-5.7,26.8-10.4,40c2.2-0.6,4.4-1.3,6.6-2.3c2.5-1.1,5-2.5,7.4-4c2.4-1.6,4.8-3.3,7-5.3c2.3-2,4.5-4.1,6.5-6.5
				c-2,2.5-4.2,4.7-6.4,6.8c-2.2,2.1-4.6,3.9-7,5.6c-2.4,1.7-4.9,3.1-7.4,4.4c-2.4,1.2-4.9,2.1-7.4,2.8c-2.8,6.7-5.7,13.1-8.9,19.5
				c2.1,0.5,4.3,0.8,6.5,0.7c2.6-0.1,5.3-0.5,7.9-1.2c2.7-0.7,5.3-1.6,8-2.8c2.6-1.2,5.3-2.6,7.8-4.3c-2.5,1.8-5.1,3.3-7.8,4.6
				c-2.6,1.3-5.3,2.4-8,3.2c-2.7,0.8-5.4,1.3-8.1,1.5c-2.4,0.2-4.8,0-7.1-0.5c-4.3,8-9.1,15.7-14.4,23c1.9,0.5,3.9,1,6,1.2
				c2.6,0.3,5.2,0.5,7.8,0.4c2.7,0,5.4-0.2,8.1-0.6c2.7-0.4,5.5-0.9,8.3-1.7c-2.8,0.9-5.5,1.6-8.3,2.1c-2.8,0.5-5.5,0.8-8.2,1
				c-2.7,0.2-5.4,0.1-8-0.1c-2.2-0.2-4.4-0.6-6.5-1.1c-6.4,8.5-13.4,16.6-21.1,24c-0.9-1-1.4-1.5-2.3-2.5c7.8-7,14.9-14.9,21.4-23.1
				c-0.9-1.8-1.7-3.5-2.4-5.4c-0.8-2.2-1.5-4.5-2.2-6.8c-0.6-2.3-1.2-4.6-1.7-6.9c-0.5-2.3-1-4.6-1.3-6.9c0.5,2.3,1,4.6,1.6,6.8
				C210.9,291.2,211.6,293.5,212.3,295.7z"/>
		</g>
	</g>
	<g>
		<g>
			
				<linearGradient id="SVGID_14_" gradientUnits="userSpaceOnUse" x1="73.7397" y1="337.2065" x2="73.7397" y2="405.0114" gradientTransform="matrix(-0.9038 0.428 0.428 0.9038 340.0795 -85.7141)">
				<stop  offset="0" style="stop-color:#26E6FF"/>
				<stop  offset="0.4856" style="stop-color:#4189FF"/>
				<stop  offset="0.8345" style="stop-color:#534CFF"/>
				<stop  offset="1" style="stop-color:#5A35FF"/>
			</linearGradient>
			<path class="st15" d="M413.3,292.4c2.8-3.1,10.3,2.7,10.3,2.7c-3.5-4.5-13.7-15.6-10-20.6c3-4,9.2-0.5,12,2.9
				c-2.8-4.1-12.6-16.5-8.6-20c3.5-3.1,8.8,2.6,10.8,6.2c-0.9-4.2-5.1-18,3-18.9c7.9-0.7,8.2,13.3,7.9,18.5c1.2-3.5,4.7-10.9,9-7.6
				c7,5.4-6.2,22.8-6.2,22.8c0,0,9.1-7,11.3-0.6c3,9-5.7,17.2-13.2,20.4c10.6-4.8,13.1,5.6,6.7,12.3c-5.4,5.6-13.5,7.9-21.1,6
				C419.6,313.7,409,297.1,413.3,292.4z"/>
			
				<linearGradient id="SVGID_15_" gradientUnits="userSpaceOnUse" x1="50.8838" y1="375.8112" x2="106.2759" y2="375.8112" gradientTransform="matrix(-0.9038 0.428 0.428 0.9038 340.0795 -85.7141)">
				<stop  offset="0" style="stop-color:#5277FF"/>
				<stop  offset="1" style="stop-color:#30009F"/>
			</linearGradient>
			<path class="st16" d="M421.7,302.8c0.9,1.2,1.9,2.4,2.9,3.5c0.8,0.9,1.6,1.7,2.5,2.4c1.8-5.6,3.3-11.3,4.3-17.1
				c-1.3-0.9-2.6-1.9-3.8-3c-1.3-1.2-2.6-2.4-3.8-3.7c-1.2-1.3-2.4-2.7-3.5-4.1c-1.1-1.4-2.1-2.8-3.1-4.3c1,1.5,2.1,2.8,3.2,4.2
				c1.1,1.3,2.3,2.7,3.6,3.9c1.3,1.2,2.6,2.4,3.9,3.5c1.1,0.9,2.4,1.8,3.6,2.6c0.8-4.5,1.3-9.2,1.6-13.7c-1.3-1.2-2.6-2.4-3.7-3.8
				c-0.6-0.7-1.2-1.4-1.8-2.1c-0.6-0.7-1.2-1.5-1.7-2.2c-1.1-1.5-2.2-3-3.2-4.5c-1-1.5-2-3.1-2.8-4.7c0.9,1.6,1.9,3.1,3,4.6
				c1,1.5,2.2,3,3.3,4.4c0.6,0.7,1.2,1.4,1.8,2.1c0.6,0.7,1.2,1.4,1.9,2c1.1,1.2,2.2,2.2,3.4,3.2c0.3-9.1-0.2-17.9-1.5-26.9
				c1.6,9,2.3,17.8,2.3,26.9c1.2-0.8,2.4-1.8,3.6-2.8c1.3-1.2,2.5-2.6,3.7-4.1c1.1-1.5,2.2-3.1,3.2-4.8c1-1.7,1.9-3.5,2.6-5.4
				c-0.7,2-1.5,3.8-2.5,5.6c-0.9,1.8-2,3.4-3.1,5c-1.1,1.6-2.3,3-3.6,4.3c-1.2,1.3-2.6,2.3-3.9,3.3c-0.2,4.7-0.6,9.3-1.2,14
				c1.4-0.2,2.8-0.5,4.2-1c1.6-0.6,3.2-1.4,4.6-2.4c1.5-1,2.9-2.2,4.3-3.5c1.4-1.3,2.7-2.7,3.9-4.3c-1.2,1.7-2.4,3.2-3.8,4.5
				c-1.3,1.4-2.8,2.6-4.2,3.7c-1.5,1.1-3.1,2-4.7,2.7c-1.4,0.6-2.9,1-4.5,1.2c-0.9,5.9-2.2,11.7-3.9,17.3c1.3-0.1,2.6-0.3,3.9-0.6
				c1.6-0.4,3.3-0.8,4.9-1.4c1.6-0.6,3.3-1.3,4.9-2.2c1.6-0.8,3.2-1.8,4.7-2.9c-1.5,1.2-3.1,2.2-4.7,3.1c-1.6,0.9-3.2,1.7-4.8,2.4
				c-1.6,0.7-3.3,1.2-5,1.7c-1.4,0.4-2.8,0.6-4.3,0.7c-2.1,6.6-4.6,13.2-7.8,19.4c-0.8-0.4-1.2-0.6-2-1c3.3-6,5.9-12.4,8.2-18.9
				c-0.9-0.9-1.8-1.8-2.6-2.8c-1-1.2-1.9-2.4-2.8-3.7c-0.9-1.3-1.7-2.6-2.6-3.9c-0.8-1.3-1.6-2.6-2.3-4c0.8,1.3,1.6,2.6,2.5,3.9
				C419.8,300.4,420.8,301.6,421.7,302.8z"/>
		</g>
	</g>
	<g>
		<g>
			
				<linearGradient id="SVGID_16_" gradientUnits="userSpaceOnUse" x1="61.2664" y1="369.1011" x2="61.2664" y2="416.6593" gradientTransform="matrix(-0.9853 -0.171 -0.171 0.9853 576.2347 -74.6114)">
				<stop  offset="0" style="stop-color:#26E6FF"/>
				<stop  offset="0.4856" style="stop-color:#4189FF"/>
				<stop  offset="0.8345" style="stop-color:#534CFF"/>
				<stop  offset="1" style="stop-color:#5A35FF"/>
			</linearGradient>
			<path class="st17" d="M433.3,300.8c2.9-0.6,4.8,5.7,4.8,5.7c-0.2-4-1.5-14.5,2.6-15.8c3.4-1.1,5.4,3.4,5.7,6.5
				c0.1-3.5-0.5-14.5,3.2-14.9c3.2-0.4,4,5,3.6,7.9c1.2-2.8,4.3-12.4,9.4-9.6c4.8,2.8-0.7,10.9-3,13.8c2.1-1.5,7.1-4.4,8.3-0.7
				c1.9,5.9-12.8,10.6-12.8,10.6c0,0,8.1-0.3,6.7,4.2c-1.9,6.4-10.3,7.6-15.8,6.4c8,1.5,5.2,8.5-1.1,9.8c-5.3,1.1-10.9-1-14.5-5.1
				C428.3,315.5,428.9,301.7,433.3,300.8z"/>
			
				<linearGradient id="SVGID_17_" gradientUnits="userSpaceOnUse" x1="45.2354" y1="396.1783" x2="84.0871" y2="396.1783" gradientTransform="matrix(-0.9853 -0.171 -0.171 0.9853 576.2347 -74.6114)">
				<stop  offset="0" style="stop-color:#5277FF"/>
				<stop  offset="1" style="stop-color:#30009F"/>
			</linearGradient>
			<path class="st18" d="M433.9,310.1c0,1.1,0.1,2.1,0.3,3.2c0.1,0.8,0.3,1.6,0.4,2.4c3.3-2.5,6.5-5.2,9.4-8.1
				c-0.4-1.1-0.7-2.1-1-3.2c-0.3-1.2-0.5-2.5-0.7-3.7c-0.2-1.2-0.3-2.5-0.4-3.7c-0.1-1.2-0.1-2.5,0-3.7c0,1.2,0,2.5,0.1,3.7
				c0.1,1.2,0.3,2.5,0.5,3.7c0.2,1.2,0.5,2.4,0.8,3.6c0.3,1,0.6,2,1,2.9c2.3-2.3,4.5-4.7,6.5-7.2c-0.3-1.2-0.5-2.4-0.6-3.7
				c-0.1-0.6-0.1-1.3-0.2-1.9c0-0.7-0.1-1.3-0.1-2c0-1.3,0-2.6,0-3.9c0.1-1.3,0.1-2.6,0.3-3.9c-0.1,1.3-0.2,2.6-0.2,3.8
				c0,1.3,0.1,2.6,0.1,3.9c0,0.6,0.1,1.3,0.2,1.9c0.1,0.6,0.1,1.3,0.3,1.9c0.2,1.1,0.4,2.2,0.7,3.2c3.8-5.1,7.1-10.3,10-16
				c-2.7,5.8-5.9,11.1-9.6,16.3c1,0,2.1,0,3.2-0.2c1.2-0.2,2.5-0.5,3.8-0.9c1.3-0.4,2.5-0.9,3.8-1.5c1.2-0.6,2.5-1.3,3.7-2
				c-1.2,0.8-2.4,1.6-3.7,2.2c-1.2,0.6-2.5,1.2-3.8,1.6c-1.3,0.5-2.5,0.8-3.8,1c-1.2,0.2-2.4,0.3-3.6,0.3c-2,2.6-4.1,5.1-6.4,7.5
				c0.9,0.5,1.8,0.9,2.8,1.1c1.1,0.3,2.4,0.4,3.6,0.5c1.3,0,2.6-0.1,3.9-0.3c1.3-0.2,2.6-0.5,4-0.9c-1.3,0.5-2.7,0.8-4,1.1
				c-1.3,0.2-2.6,0.4-3.9,0.4c-1.3,0-2.6-0.1-3.8-0.3c-1.1-0.2-2.1-0.6-3-1.1c-2.9,3-6,5.8-9.2,8.4c0.8,0.5,1.6,0.9,2.5,1.3
				c1.1,0.5,2.2,0.9,3.4,1.2c1.2,0.3,2.4,0.6,3.7,0.7c1.3,0.2,2.5,0.3,3.9,0.3c-1.3,0.1-2.6,0-3.9-0.1c-1.3-0.1-2.5-0.3-3.7-0.6
				c-1.2-0.3-2.4-0.6-3.5-1.1c-1-0.4-1.9-0.8-2.7-1.3c-3.9,3-8,5.7-12.3,8c-0.3-0.6-0.4-0.8-0.7-1.4c4.3-2.1,8.4-4.7,12.3-7.5
				c-0.2-0.9-0.3-1.8-0.4-2.7c-0.1-1.1-0.1-2.2-0.1-3.3c0-1.1,0-2.2,0.1-3.3s0.1-2.2,0.3-3.2c-0.1,1.1-0.1,2.1-0.1,3.2
				C433.8,308,433.9,309,433.9,310.1z"/>
		</g>
	</g>
	<g>
		<g>
			
				<linearGradient id="SVGID_18_" gradientUnits="userSpaceOnUse" x1="852.0921" y1="263.7739" x2="852.0921" y2="303.3807" gradientTransform="matrix(1 0 0 1 -546.8982 0)">
				<stop  offset="0" style="stop-color:#435DF1"/>
				<stop  offset="0.327" style="stop-color:#4333F1"/>
				<stop  offset="1" style="stop-color:#4C008C"/>
			</linearGradient>
			<path class="st19" d="M318,303.4h-11.4c0-6.1-4-12.2-7-17.3c-0.1-0.2-0.2-0.3-0.3-0.5c-2.6-4.5-6-8.6-7-13.9
				c-0.3-1.5-0.3-3.2,0.4-4.5c0.8-1.5,2.3-2.4,3.9-2.8C315.6,259.5,319.5,284.9,318,303.4z"/>
			<path class="st3" d="M313.1,303.4h-0.5c0-2.6-0.3-5.2-0.7-7.7c-0.5-3.1-1.3-6.1-2.3-9.1c-2-5.9-5-11.5-9-16.3
				c-0.3-0.4,0-0.6,0.3-0.3c4.3,4.6,7.7,10.2,9.7,16.3c1,3,1.7,6.1,2.1,9.3C313.1,298.1,313.2,300.8,313.1,303.4z"/>
		</g>
		
			<linearGradient id="SVGID_19_" gradientUnits="userSpaceOnUse" x1="1415.1805" y1="272.1897" x2="1415.1805" y2="303.3807" gradientTransform="matrix(-1 0 0 1 1763.7977 0)">
			<stop  offset="0" style="stop-color:#435DF1"/>
			<stop  offset="0.327" style="stop-color:#4333F1"/>
			<stop  offset="1" style="stop-color:#4C008C"/>
		</linearGradient>
		<path class="st20" d="M338.4,303.4H350c0-14.9,16.9-29.5,4.1-31.1c-4.5-0.6-7.7,1.8-10,5.4C338.4,286.6,338.4,303.4,338.4,303.4z"
			/>
		
			<linearGradient id="SVGID_20_" gradientUnits="userSpaceOnUse" x1="1442.0706" y1="233.0586" x2="1442.0706" y2="303.3807" gradientTransform="matrix(-1 0 0 1 1763.7977 0)">
			<stop  offset="0" style="stop-color:#435DF1"/>
			<stop  offset="0.327" style="stop-color:#4333F1"/>
			<stop  offset="1" style="stop-color:#4C008C"/>
		</linearGradient>
		<path class="st21" d="M325.6,303.4h14.3c2.3-21.5,1.7-75.2-29.4-70C286.7,237.5,325,268.5,325.6,303.4z"/>
		<g>
			<path class="st3" d="M317.8,245.3c1.9,2.1,3.4,4.5,4.8,6.9c1.4,2.5,2.5,5,3.5,7.7c1,2.6,1.8,5.3,2.5,8.1c0.7,2.7,1.3,5.5,1.8,8.3
				c1,5.6,1.6,11.2,2,16.9c0.2,3.4,0.4,6.8,0.4,10.2h1c0.1-3.4,0.1-6.9,0-10.3c-0.2-5.7-0.8-11.4-1.8-17.1c-0.5-2.8-1.1-5.6-1.9-8.4
				c-0.7-2.8-1.7-5.5-2.7-8.2c-0.5-1.3-1.1-2.6-1.8-3.9c-0.7-1.3-1.3-2.6-2.1-3.8c-1.5-2.5-3.2-4.8-5.2-6.8
				C317.7,244.2,317.3,244.6,317.8,245.3z"/>
		</g>
		<g>
			
				<linearGradient id="SVGID_21_" gradientUnits="userSpaceOnUse" x1="1445.7709" y1="278.4537" x2="1445.7709" y2="303.3807" gradientTransform="matrix(-1 0 0 1 1763.7977 0)">
				<stop  offset="0" style="stop-color:#435DF1"/>
				<stop  offset="0.327" style="stop-color:#4333F1"/>
				<stop  offset="1" style="stop-color:#4C008C"/>
			</linearGradient>
			<path class="st22" d="M314.4,303.4h11.8c0,0,3.1-24.9-10.3-24.9C303.8,278.5,311.9,293.9,314.4,303.4z"/>
			<g>
				<path class="st3" d="M318,284.6c1.8,5.6,2.5,11.5,2.9,17.3c0,0.5,0,1,0.1,1.4h1c0-0.5,0-1-0.1-1.5c-0.4-5.9-1.4-11.9-3.6-17.4
					C318.1,284,317.8,284.2,318,284.6z"/>
			</g>
		</g>
		<g>
			<path class="st3" d="M342.8,303.4h0.7c0.3-2.3,0.6-4.5,1-6.8c0.6-3.1,1.4-6.2,2.5-9.2c0.3-0.7,0.6-1.5,0.9-2.2
				c0.2-0.4,0.3-0.7,0.5-1.1l0.5-1.1l0.5-1.1c0.2-0.4,0.3-0.7,0.6-1l1.3-2c0.3-0.4,0.1-0.6-0.2-0.2l-1.4,2c-0.2,0.3-0.4,0.7-0.6,1
				l-0.6,1.1l-0.6,1.1c-0.2,0.4-0.3,0.7-0.5,1.1c-0.3,0.7-0.7,1.5-1,2.2c-1.2,3-2,6.1-2.7,9.3C343.4,298.8,343,301.1,342.8,303.4z"
				/>
		</g>
	</g>
	<g>
		<linearGradient id="SVGID_22_" gradientUnits="userSpaceOnUse" x1="155.0296" y1="339.9448" x2="155.0296" y2="268.2196">
			<stop  offset="0" style="stop-color:#F9FBFC"/>
			<stop  offset="1" style="stop-color:#BEE1F4"/>
		</linearGradient>
		<path class="st23" d="M27.8,321.4c11.7-2.2,20.1,6.5,20.6,7.1c0.5-1.8,5.6-18.3,22.1-24.2c10.4-3.7,19.6-1.1,22.8,0
			c-2.1-5.6-1-11.9,2.9-16.4c4.1-4.8,10.9-6.8,17.1-5c7.1-10.9,20-16.5,32.7-14.3c12.6,2.3,22.6,11.8,25.6,24.2
			c3.8-5.7,10.6-8.5,17.1-7.1c5.8,1.2,10.4,5.6,12.1,11.4c7.9-8.2,19.8-11.3,30.6-7.8c9.6,3,17,10.8,19.7,20.4
			c7.7-6.1,18.2-8.4,27.8-5.4c14.5,4.6,23.6,19.9,20.5,35.5c-15.9,0-31.7,0-47.6,0h-19.8H10C11.7,330.5,18.9,323.1,27.8,321.4z"/>
		<linearGradient id="SVGID_23_" gradientUnits="userSpaceOnUse" x1="318.8247" y1="343.925" x2="318.8247" y2="272.2">
			<stop  offset="0" style="stop-color:#F9FBFC"/>
			<stop  offset="1" style="stop-color:#BEE1F4"/>
		</linearGradient>
		<path class="st24" d="M191.6,325.4c11.7-2.2,20.1,6.5,20.6,7.1c0.5-1.8,5.6-18.3,22.1-24.2c10.4-3.7,19.6-1.1,22.8,0
			c-2.1-5.6-1-11.9,2.9-16.4c4.1-4.8,10.9-6.8,17.1-5c7.1-10.9,20-16.5,32.7-14.3c12.6,2.3,22.6,11.8,25.6,24.2
			c3.8-5.7,10.6-8.5,17.1-7.1c5.8,1.2,10.4,5.6,12.1,11.4c7.9-8.2,19.8-11.3,30.6-7.8c9.6,3,17,10.8,19.7,20.4
			c7.7-6.1,18.2-8.4,27.8-5.4c14.5,4.6,23.6,19.9,20.5,35.5c-15.9,0-31.7,0-47.6,0h-19.8H173.8C175.5,334.5,182.7,327.1,191.6,325.4
			z"/>
	</g>
	<rect x="53.1" y="154.8" class="st25" width="160.4" height="189.4"/>
	<g>
		<rect x="59.6" y="177.4" class="st26" width="160.4" height="160.4"/>
		<rect x="59.6" y="148.3" class="st27" width="160.4" height="29.1"/>
		<path class="st28" d="M82.5,196.5h30.6c2.1,0,3.8,1.7,3.8,3.8v30.6c0,2.1-1.7,3.8-3.8,3.8H82.5c-2.1,0-3.8-1.7-3.8-3.8v-30.6
			C78.7,198.2,80.4,196.5,82.5,196.5z"/>
		<g>
			<path class="st28" d="M155.1,235.2h-30.6c-2.4,0-4.3-1.9-4.3-4.3v-30.6c0-2.4,1.9-4.3,4.3-4.3h30.6c2.4,0,4.3,1.9,4.3,4.3v30.6
				C159.4,233.3,157.4,235.2,155.1,235.2z M124.5,197c-1.8,0-3.3,1.5-3.3,3.3v30.6c0,1.8,1.5,3.3,3.3,3.3h30.6
				c1.8,0,3.3-1.5,3.3-3.3v-30.6c0-1.8-1.5-3.3-3.3-3.3H124.5z"/>
		</g>
		<path class="st28" d="M166.5,196.5h30.6c2.1,0,3.8,1.7,3.8,3.8v30.6c0,2.1-1.7,3.8-3.8,3.8h-30.6c-2.1,0-3.8-1.7-3.8-3.8v-30.6
			C162.7,198.2,164.4,196.5,166.5,196.5z"/>
		<g>
			<path class="st28" d="M113.1,277.2H82.5c-2.4,0-4.3-1.9-4.3-4.3v-30.6c0-2.4,1.9-4.3,4.3-4.3h30.6c2.4,0,4.3,1.9,4.3,4.3v30.6
				C117.4,275.2,115.5,277.2,113.1,277.2z M82.5,239c-1.8,0-3.3,1.5-3.3,3.3v30.6c0,1.8,1.5,3.3,3.3,3.3h30.6c1.8,0,3.3-1.5,3.3-3.3
				v-30.6c0-1.8-1.5-3.3-3.3-3.3H82.5z"/>
		</g>
		<path class="st28" d="M124.5,238.5h30.6c2.1,0,3.8,1.7,3.8,3.8v30.6c0,2.1-1.7,3.8-3.8,3.8h-30.6c-2.1,0-3.8-1.7-3.8-3.8v-30.6
			C120.7,240.2,122.4,238.5,124.5,238.5z"/>
		<g>
			<path class="st28" d="M197.1,277.2h-30.6c-2.4,0-4.3-1.9-4.3-4.3v-30.6c0-2.4,1.9-4.3,4.3-4.3h30.6c2.4,0,4.3,1.9,4.3,4.3v30.6
				C201.4,275.2,199.4,277.2,197.1,277.2z M166.5,239c-1.8,0-3.3,1.5-3.3,3.3v30.6c0,1.8,1.5,3.3,3.3,3.3h30.6
				c1.8,0,3.3-1.5,3.3-3.3v-30.6c0-1.8-1.5-3.3-3.3-3.3H166.5z"/>
		</g>
		<path class="st28" d="M113.1,283.5c0.4,0,0.8,0.4,0.8,0.8v30.6c0,0.4-0.4,0.8-0.8,0.8H82.5c-0.4,0-0.8-0.4-0.8-0.8v-30.6
			c0-0.4,0.4-0.8,0.8-0.8H113.1 M113.1,280.5H82.5c-2.1,0-3.8,1.7-3.8,3.8v30.6c0,2.1,1.7,3.8,3.8,3.8h30.6c2.1,0,3.8-1.7,3.8-3.8
			v-30.6C116.9,282.2,115.2,280.5,113.1,280.5L113.1,280.5z"/>
		<g>
			<path class="st28" d="M155.1,319.1h-30.6c-2.4,0-4.3-1.9-4.3-4.3v-30.6c0-2.4,1.9-4.3,4.3-4.3h30.6c2.4,0,4.3,1.9,4.3,4.3v30.6
				C159.4,317.2,157.4,319.1,155.1,319.1z M124.5,281c-1.8,0-3.3,1.5-3.3,3.3v30.6c0,1.8,1.5,3.3,3.3,3.3h30.6
				c1.8,0,3.3-1.5,3.3-3.3v-30.6c0-1.8-1.5-3.3-3.3-3.3H124.5z"/>
		</g>
		<path class="st28" d="M166.5,280.5h30.6c2.1,0,3.8,1.7,3.8,3.8v30.6c0,2.1-1.7,3.8-3.8,3.8h-30.6c-2.1,0-3.8-1.7-3.8-3.8v-30.6
			C162.7,282.2,164.4,280.5,166.5,280.5z"/>
		<g>
			<g>
				<g>
					<circle class="st29" cx="201.6" cy="162.9" r="6.6"/>
					<linearGradient id="SVGID_24_" gradientUnits="userSpaceOnUse" x1="198.2232" y1="151.1913" x2="205.0365" y2="151.1913">
						<stop  offset="0" style="stop-color:#FF697D"/>
						<stop  offset="1" style="stop-color:#DE2276"/>
					</linearGradient>
					<path class="st30" d="M201.6,136.1c-1.9,0-3.4,1.5-3.4,3.4v23.3c0,1.9,1.5,3.4,3.4,3.4c1.9,0,3.4-1.5,3.4-3.4v-23.3
						C205,137.6,203.5,136.1,201.6,136.1z"/>
				</g>
			</g>
			<g>
				<g>
					<circle class="st29" cx="77.9" cy="162.9" r="6.6"/>
					<path class="st31" d="M77.9,136.1c-1.9,0-3.4,1.5-3.4,3.4v23.3c0,1.9,1.5,3.4,3.4,3.4s3.4-1.5,3.4-3.4v-23.3
						C81.4,137.6,79.8,136.1,77.9,136.1z"/>
				</g>
			</g>
			<g>
				<g>
					<circle class="st29" cx="108.9" cy="162.9" r="6.6"/>
					<path class="st31" d="M108.9,136.1c-1.9,0-3.4,1.5-3.4,3.4v23.3c0,1.9,1.5,3.4,3.4,3.4c1.9,0,3.4-1.5,3.4-3.4v-23.3
						C112.3,137.6,110.8,136.1,108.9,136.1z"/>
				</g>
			</g>
			<g>
				<g>
					<circle class="st29" cx="139.8" cy="162.9" r="6.6"/>
					<path class="st31" d="M139.8,136.1c-1.9,0-3.4,1.5-3.4,3.4v23.3c0,1.9,1.5,3.4,3.4,3.4c1.9,0,3.4-1.5,3.4-3.4v-23.3
						C143.2,137.6,141.7,136.1,139.8,136.1z"/>
				</g>
			</g>
			<g>
				<g>
					<circle class="st29" cx="170.7" cy="162.9" r="6.6"/>
					<path class="st31" d="M170.7,136.1c-1.9,0-3.4,1.5-3.4,3.4v23.3c0,1.9,1.5,3.4,3.4,3.4c1.9,0,3.4-1.5,3.4-3.4v-23.3
						C174.1,137.6,172.6,136.1,170.7,136.1z"/>
				</g>
			</g>
		</g>
		<linearGradient id="SVGID_25_" gradientUnits="userSpaceOnUse" x1="84.7379" y1="298.7276" x2="110.8868" y2="298.7276">
			<stop  offset="0" style="stop-color:#FF697D"/>
			<stop  offset="1" style="stop-color:#DE2276"/>
		</linearGradient>
		<path class="st32" d="M110.5,290.7l-2.1-2.1c-0.5-0.5-1.3-0.5-1.8,0l-13.2,13.2l-4.4-4.4c-0.2-0.2-0.6-0.4-0.9-0.4
			c-0.3,0-0.7,0.1-0.9,0.4l-2.1,2.1c-0.5,0.5-0.5,1.3,0,1.8l7.4,7.4c0.2,0.2,0.6,0.4,0.9,0.4c0.3,0,0.7-0.1,0.9-0.4l16.2-16.2
			c0.2-0.2,0.4-0.6,0.4-0.9C110.9,291.3,110.8,291,110.5,290.7z"/>
	</g>
	<path class="st0" d="M440.5,351.2h-148c-2,0-3.6-1.6-3.6-3.6l0,0c0-2,1.6-3.6,3.6-3.6h148c2,0,3.6,1.6,3.6,3.6l0,0
		C444.2,349.6,442.5,351.2,440.5,351.2z"/>
	<path class="st0" d="M209.9,355.1h-72.8c-2,0-3.6-1.6-3.6-3.6l0,0c0-2,1.6-3.6,3.6-3.6h72.8c2,0,3.6,1.6,3.6,3.6l0,0
		C213.5,353.4,211.9,355.1,209.9,355.1z"/>
	
		<ellipse transform="matrix(0.1592 -0.9872 0.9872 0.1592 30.3578 402.0063)" class="st25" cx="251.2" cy="183.2" rx="94.7" ry="94.7"/>
	<g>
		<path class="st33" d="M419.5,330.3c2.8,5.9,3.9,10.2,3.9,10.2s-24.4,5.7-27.1,3.1c-2.7-2.6,12-10.4,12-10.4
			S414.7,333.2,419.5,330.3z"/>
		<path class="st33" d="M341.5,337.8c1.6,6.9,0.6,11.3,0.6,11.3s-26,1-28.3-2.3c-2.3-3.4,15.1-8.4,15.1-8.4S335.7,339.8,341.5,337.8
			z"/>
		<path class="st34" d="M408,235.8c0.9-0.2,1.8-0.3,2.8-0.5c-3.2,18.1-10.3,35.3-12.3,43.5c-2.8,11.7,5.1,28,13.5,39
			c3.3,4.3,5.7,8.7,7.5,12.5c-4.8,3-11.2,2.9-11.2,2.9s-12.1-9.2-23.3-24.2c-8-10.7-9.9-22.6-10.3-28.1c3.6-4.3,7.5-8.6,11.7-12.8
			C400.6,254,406,242.1,408,235.8z"/>
		<path class="st34" d="M408,235.8c-2,6.3-7.5,18.2-21.6,32.2c-4.2,4.2-8.2,8.5-11.7,12.8c-19,22.7-28.1,46.3-32.8,58.8
			c-7.4-0.2-13.5-1.4-13.5-1.4c6.4-46.4,34.9-90.9,43.6-103.5C378.4,236.2,392.5,238.4,408,235.8z"/>
		<path class="st31" d="M369.9,155.3c-2.2,2.6-4.9,6.9-7.3,13.9c-1.1,3.2-2.3,6.3-3.4,9.1h-11.1v-14.8
			C357,162.5,365.4,158.1,369.9,155.3z"/>
		<g>
			<path class="st27" d="M355.9,173.2c0,9-1.3,17.6-3.6,25.9c-1.3,4.7-3,9.2-5,13.6c-15,32.6-48,55.3-86.1,55.3
				c-52.3,0-94.8-42.5-94.8-94.8s42.5-94.7,94.8-94.7C313.4,78.4,355.9,120.9,355.9,173.2z"/>
			
				<ellipse transform="matrix(0.7071 -0.7071 0.7071 0.7071 -45.9518 235.4213)" class="st35" cx="261.2" cy="173.2" rx="85.9" ry="85.9"/>
			<circle class="st26" cx="261.2" cy="173.2" r="82.3"/>
			<path class="st29" d="M266.6,173.2c0,3-2.4,5.4-5.4,5.4s-5.4-2.4-5.4-5.4s2.4-5.4,5.4-5.4S266.6,170.2,266.6,173.2z"/>
			<g>
				<path class="st29" d="M262.1,175.7c-1.4,0-2.5-1.1-2.5-2.5v-58.5c0-1.4,1.1-2.5,2.5-2.5c1.4,0,2.5,1.1,2.5,2.5v58.5
					C264.6,174.6,263.5,175.7,262.1,175.7z"/>
			</g>
			<g>
				<path class="st29" d="M262.1,175.7H217c-1.4,0-2.5-1.1-2.5-2.5s1.1-2.5,2.5-2.5h45.1c1.4,0,2.5,1.1,2.5,2.5
					S263.5,175.7,262.1,175.7z"/>
			</g>
			<g>
				<g>
					<path class="st36" d="M262.1,103.7c-0.6,0-1-0.4-1-1v-6.5c0-0.6,0.4-1,1-1c0.6,0,1,0.4,1,1v6.5
						C263.1,103.3,262.7,103.7,262.1,103.7z"/>
				</g>
				<g>
					<path class="st36" d="M226.8,112.7c-0.3,0-0.7-0.2-0.9-0.5l-3.2-5.6c-0.3-0.5-0.1-1.1,0.4-1.4c0.5-0.3,1.1-0.1,1.4,0.4l3.2,5.6
						c0.3,0.5,0.1,1.1-0.4,1.4C227.1,112.7,226.9,112.7,226.8,112.7z"/>
				</g>
				<g>
					<path class="st36" d="M200.7,138.2c-0.2,0-0.3,0-0.5-0.1l-5.6-3.2c-0.5-0.3-0.6-0.9-0.4-1.4c0.3-0.5,0.9-0.6,1.4-0.4l5.6,3.2
						c0.5,0.3,0.6,0.9,0.4,1.4C201.3,138,201,138.2,200.7,138.2z"/>
				</g>
				<g>
					<path class="st36" d="M190.8,173.3h-6.5c-0.6,0-1-0.4-1-1c0-0.6,0.4-1,1-1h6.5c0.6,0,1,0.4,1,1
						C191.8,172.8,191.3,173.3,190.8,173.3z"/>
				</g>
				<g>
					<path class="st36" d="M194.1,211.8c-0.3,0-0.7-0.2-0.9-0.5c-0.3-0.5-0.1-1.1,0.4-1.4l5.6-3.2c0.5-0.3,1.1-0.1,1.4,0.4
						c0.3,0.5,0.1,1.1-0.4,1.4l-5.6,3.2C194.5,211.8,194.3,211.8,194.1,211.8z"/>
				</g>
				<g>
					<path class="st36" d="M221.9,240.3c-0.2,0-0.3,0-0.5-0.1c-0.5-0.3-0.6-0.9-0.4-1.4l3.2-5.6c0.3-0.5,0.9-0.6,1.4-0.4
						c0.5,0.3,0.6,0.9,0.4,1.4l-3.2,5.6C222.6,240.2,222.3,240.3,221.9,240.3z"/>
				</g>
				<g>
					<path class="st36" d="M260.3,251.1c-0.6,0-1-0.4-1-1v-6.5c0-0.6,0.4-1,1-1c0.6,0,1,0.4,1,1v6.5
						C261.3,250.7,260.8,251.1,260.3,251.1z"/>
				</g>
				<g>
					<path class="st36" d="M298.9,241.3c-0.3,0-0.7-0.2-0.9-0.5l-3.2-5.6c-0.3-0.5-0.1-1.1,0.4-1.4c0.5-0.3,1.1-0.1,1.4,0.4l3.2,5.6
						c0.3,0.5,0.1,1.1-0.4,1.4C299.2,241.2,299,241.3,298.9,241.3z"/>
				</g>
				<g>
					<path class="st36" d="M327.4,213.4c-0.2,0-0.3,0-0.5-0.1l-5.6-3.2c-0.5-0.3-0.6-0.9-0.4-1.4c0.3-0.5,0.9-0.6,1.4-0.4l5.6,3.2
						c0.5,0.3,0.6,0.9,0.4,1.4C328,213.3,327.7,213.4,327.4,213.4z"/>
				</g>
				<g>
					<path class="st36" d="M338.1,175.1h-6.5c-0.6,0-1-0.4-1-1c0-0.6,0.4-1,1-1h6.5c0.6,0,1,0.4,1,1
						C339.1,174.7,338.7,175.1,338.1,175.1z"/>
				</g>
				<g>
					<path class="st36" d="M322.7,139.8c-0.3,0-0.7-0.2-0.9-0.5c-0.3-0.5-0.1-1.1,0.4-1.4l5.6-3.2c0.5-0.3,1.1-0.1,1.4,0.4
						c0.3,0.5,0.1,1.1-0.4,1.4l-5.6,3.2C323,139.7,322.8,139.8,322.7,139.8z"/>
				</g>
				<g>
					<path class="st36" d="M297.2,113.6c-0.2,0-0.3,0-0.5-0.1c-0.5-0.3-0.6-0.9-0.4-1.4l3.2-5.6c0.3-0.5,0.9-0.6,1.4-0.4
						c0.5,0.3,0.6,0.9,0.4,1.4l-3.2,5.6C297.9,113.4,297.6,113.6,297.2,113.6z"/>
				</g>
			</g>
		</g>
		<path class="st25" d="M352.4,199c-1.3,4.7-3,9.2-5,13.6c-5.3-0.3-12.3-0.3-18.8-6.7c-8.2-8-7.9-11.8-13.5-19
			c-5.6-7.2-8.5-8.6-7.2-18l3.7,1.9l18,24.4L352.4,199z"/>
		<path class="st31" d="M411.6,240.4c-0.9,0.2-3.5,1-4.4,1.2c-15.6,2.6-29.6,0.4-36-1c-2.4-0.5-3.8-0.9-3.8-0.9
			c2.4-10.2,3.5-25.3,3.2-32.7c-0.3-5.1-0.9-9.3-1.4-12.1c-2,3.1-4.3,6.2-6.5,8.9c-3.8,4.5-9.1,6.7-14.4,7c-3.1,0.2-6.1-0.3-9.1-1.3
			c-1.2-0.4-2.3-0.8-3.4-1.4c-1.9-0.9-3.6-2.1-5.1-3.4c-2.3-2-4.4-4.3-6.3-6.7c1.4-2.1,4.5-6.4,8.5-8.8c2.8,2,5.6,3.4,8.1,4.4
			c1.2,0.5,2.4,0.9,3.4,1.2c0.3,0.1,0.7,0.2,1,0.3c3.2,0.8,6.4-2.2,9.4-7.5c1.5-2.5,2.9-5.5,4.3-8.9c1.2-2.8,2.3-5.9,3.5-9.2
			c2.4-7,5.1-11.3,7.3-13.9c2.6-3.2,4.6-3.9,4.6-3.9s2.1-0.6,4.5-1.3l1.1-0.3c3-0.9,6.3-1.9,6.7-2c0,0,0,0,0,0
			c3.4,3.7,9.3,6.4,14.6,13.2c8.2,10.6,8,26.3,10.7,51.2C412.8,219.6,413,232.7,411.6,240.4z"/>
		<path class="st25" d="M370.5,206.9c-0.3-5.1-0.9-9.3-1.4-12.1c5.2-8.9,11.1-19.2,11.1-19.2S385.8,197.7,370.5,206.9z"/>
		<path class="st37" d="M386.7,147.8c-0.7,0.2-12.2,3.6-12.2,3.6l-1.3-2.7l-1-2.1c-2.1,1.3-4.7,1.3-4.7,1.3
			c-6-5.5-6.5-13.5-6.4-17.1c0-0.1,0.1-0.1,0.2-0.2c0.7-0.4,3.5-0.8,3.8-0.9c1.9-0.4,3.8-0.5,5.8-0.5c1.5,0,3.3,0.1,4.7,0.8
			c1.2,0.6,1.8,1.9,2.5,3c1.6,2.6,3.1,5.2,4.6,7.9c0.7,1.2,1.6,2.2,2.1,3.4C384.8,144.8,386.1,147.8,386.7,147.8z"/>
		<path class="st37" d="M332.9,189.1c-4.1,2.5-7.2,6.7-8.5,8.8c-5.4-6.8-8.9-13.8-8.9-13.8s-4.2-3.6-6.4-7.1
			c-2.2-3.5-1.6-11.8,1.2-12.2c2.9-0.4,9,7.9,9,7.9s-0.3-5.2,0.3-5.4c0.6-0.2,2.6,1.4,3.9,4.3c1.3,2.9-0.9,6.9-0.9,6.9
			C325.7,183.1,329.3,186.5,332.9,189.1z"/>
		<path class="st33" d="M372.9,133.7c-0.7,0-1.3,0.4-1.4,1.2c-0.1,0.6,0.7,2.4-0.6,2.2c-0.9-0.1-1.3-1.9-1.8-2.5
			c-0.9-1.1-2-1.3-3.3-1.2c-0.8,0-1,0-1.5-0.7c-0.4-0.5-0.6-1.4-1.2-1.8c-0.7-0.5-1.7-0.1-2.4,0c-1.3,0.1-2.6-0.4-3.7-1
			c-3.2-1.7-4.5-7-1.1-9.2c1.7-1.1,3.8-0.8,5.4,0.2c1,0.7,2,0.9,3.2,0.4c0.8-0.4,1.4-0.9,2.2-1.3c1.1-0.4,1.8-0.3,2.7,0.4
			c1.1,0.7,1.8,1.5,3.2,1c2-0.6,3.9-1.4,5.3,0.6c0.5,0.7,0.9,1.5,1.7,1.9c0.7,0.4,1.5,0.4,2.2,0.8c0.9,0.4,1.8,1.3,2.3,2.2
			c0.8,1.7,0.5,4.2,0.4,6.1c-0.2,2.3-0.4,4.6-0.6,6.9c-0.1,1.4,0,2.5,0.3,3.6c-2.1-0.1-7.1-3.1-8.8-6.1c-0.6-1.1-0.6-3.1-2.1-3.6
			C373.3,133.7,373.1,133.7,372.9,133.7z"/>
		<path class="st38" d="M372.5,137c0.5-0.4,0.4-0.6,0-1c-0.4-0.3-0.5-0.9,0.1-1.2c0.7-0.3,1.3,0.5,1.5,1.1c0.3,0.8,0.2,1.4-0.7,1.7
			C373,137.7,372.3,137.5,372.5,137z"/>
		<path class="st38" d="M375.1,136.1c0.2,1.2-0.1,2.4-1.2,2.6c-1.1,0.2,1,1.6,2.2,1c0,0-0.4-0.8-0.6-1.6
			C375.3,137.3,375.1,136.1,375.1,136.1z"/>
		<linearGradient id="SVGID_26_" gradientUnits="userSpaceOnUse" x1="329.525" y1="192.8372" x2="329.525" y2="206.8448">
			<stop  offset="0" style="stop-color:#FF697D"/>
			<stop  offset="1" style="stop-color:#DE2276"/>
		</linearGradient>
		<polygon class="st39" points="331.7,187.4 336.4,190.5 326.5,201.4 322.7,196.7 		"/>
		<path class="st38" d="M373.1,148.7l-1-2.1c-2.1,1.3-4.7,1.3-4.7,1.3s5.2-2.4,6.1-3.2c1-0.8,1.3-1.7,1.6-1.8
			C375.5,142.8,374.9,147.2,373.1,148.7z"/>
		<polygon class="st25" points="335.9,191 336.9,191.5 328.4,202.5 327,200.9 		"/>
		<linearGradient id="SVGID_27_" gradientUnits="userSpaceOnUse" x1="379.8289" y1="145.517" x2="379.8289" y2="152.4637">
			<stop  offset="0" style="stop-color:#FF697D"/>
			<stop  offset="1" style="stop-color:#DE2276"/>
		</linearGradient>
		<polygon class="st40" points="372,152.5 372.8,149.4 385.7,145.5 387.6,148.7 		"/>
	</g>
	<g>
		<rect x="129.7" y="63.8" class="st35" width="58.4" height="33.2"/>
		<polygon class="st41" points="129.7,97 158.9,74.4 188.1,97 		"/>
		<polygon class="st42" points="188.1,63.8 158.9,86.5 129.7,63.8 		"/>
	</g>
	<g>
		<g>
			<g>
				<path class="st0" d="M99.6,127.1H78.4c-0.8,0-1.5-0.7-1.5-1.5V83.3c0-0.8,0.7-1.5,1.5-1.5h32.3c0.8,0,1.5,0.7,1.5,1.5v28.2
					c0,0.3-0.1,0.7-0.3,0.9l-11.1,14C100.5,126.9,100.1,127.1,99.6,127.1z M79.9,124.1h19l10.3-13.1V84.8H79.9V124.1z"/>
			</g>
			<g>
				<path class="st0" d="M99.6,127.1c-0.2,0-0.3,0-0.5-0.1c-0.6-0.2-1-0.8-1-1.4v-14c0-0.8,0.7-1.5,1.5-1.5h11.1
					c0.6,0,1.1,0.3,1.4,0.8c0.3,0.5,0.2,1.1-0.2,1.6l-11.1,14C100.5,126.9,100.1,127.1,99.6,127.1z M101.1,113v8.2l6.5-8.2H101.1z"
					/>
			</g>
		</g>
		<g>
			<rect x="84.3" y="89.4" class="st0" width="20.9" height="3"/>
		</g>
		<g>
			<rect x="84.3" y="95.1" class="st0" width="20.9" height="3"/>
		</g>
		<g>
			<rect x="84.3" y="100.8" class="st0" width="16.5" height="3"/>
		</g>
	</g>
	<g>
		<path class="st0" d="M437.4,185.2c-0.1-1.6-0.6-3.1-1.3-4.5l1.3-0.7c-0.7-1.2-1.5-2.2-2.5-3.1l-1,1.1c-1.1-1-2.5-1.8-4.1-2.3
			l0.4-1.4l0,0c-1.1-0.3-2.2-0.5-3.3-0.5c-0.2,0-0.5,0-0.7,0l0.1,1.5c-1.6,0.1-3.1,0.6-4.5,1.3l-0.7-1.3c-1.2,0.7-2.2,1.5-3.1,2.5
			l1.1,1c-1,1.1-1.8,2.5-2.3,4.1l-1.4-0.4l0,0c-0.3,1.1-0.5,2.2-0.5,3.3c0,0.2,0,0.5,0,0.7l1.5-0.1c0.1,1.6,0.5,3.1,1.3,4.5
			l-1.3,0.7c0.7,1.2,1.5,2.2,2.5,3.1l1-1.1c1.1,1,2.5,1.8,4.1,2.3l-0.4,1.4l0,0c1.1,0.3,2.2,0.5,3.3,0.5c0.2,0,0.5,0,0.7,0l-0.1-1.5
			c1.6-0.1,3.1-0.6,4.5-1.3l0.7,1.3c1.2-0.7,2.2-1.5,3.1-2.5l-1.1-1c1-1.1,1.8-2.5,2.3-4.1l1.4,0.4l0,0c0.3-1.1,0.5-2.2,0.5-3.3
			c0-0.2,0-0.5,0-0.7L437.4,185.2z M424.3,195.1L424.3,195.1l0.1-0.3L424.3,195.1z M433,187.6c-0.8,2.8-3.4,4.6-6.1,4.6
			c-0.6,0-1.2-0.1-1.7-0.2c-2.8-0.8-4.6-3.4-4.6-6.1c0-0.6,0.1-1.2,0.2-1.7c0.8-2.8,3.4-4.6,6.1-4.6c0.6,0,1.2,0.1,1.7,0.2
			c2.8,0.8,4.6,3.4,4.6,6.1C433.3,186.4,433.2,187,433,187.6z"/>
		<polygon class="st0" points="456.4,175.6 456.4,175.6 456.4,175.6 		"/>
		<path class="st0" d="M455.7,180.7l-1,0.2c-0.2-0.8-0.4-1.5-0.8-2.2l0.9-0.5c-0.6-1.2-1.5-2.2-2.7-2.9l-0.6,0.8
			c-0.6-0.4-1.3-0.8-2.1-1l0.3-1l0,0c-0.8-0.2-1.5-0.3-2.3-0.3c-0.5,0-1.1,0.1-1.6,0.2l0.2,1c-0.8,0.1-1.5,0.4-2.2,0.8l-0.5-0.9
			c-1.2,0.6-2.2,1.5-2.9,2.7l0.8,0.6c-0.4,0.6-0.8,1.3-1,2.1l-1-0.3l0,0.1c-0.2,0.8-0.3,1.5-0.3,2.3c0,0.5,0.1,1.1,0.1,1.6l1-0.2
			c0.1,0.8,0.4,1.5,0.8,2.2l-0.9,0.5h0c0.6,1.2,1.5,2.2,2.6,2.9l0.6-0.8c0.6,0.4,1.3,0.8,2.1,1l-0.3,1h0l0.1,0
			c0.8,0.2,1.5,0.3,2.3,0.3c0.6,0,1.1-0.1,1.6-0.2l-0.2-1c0.8-0.2,1.5-0.4,2.2-0.8l0.5,0.9c1.2-0.6,2.2-1.6,2.9-2.7l-0.8-0.6
			c0.4-0.6,0.8-1.3,1-2.1l1,0.3l0,0c0.2-0.8,0.3-1.5,0.3-2.3C455.9,181.8,455.8,181.2,455.7,180.7z M447.4,187.4
			c-0.5,0-0.9-0.1-1.4-0.2c-2.2-0.6-3.7-2.7-3.7-4.8c0-0.5,0.1-0.9,0.2-1.4c0.6-2.2,2.7-3.7,4.8-3.7c0.5,0,0.9,0.1,1.4,0.2
			c2.2,0.6,3.7,2.7,3.7,4.8c0,0.5-0.1,0.9-0.2,1.4C451.6,185.9,449.6,187.4,447.4,187.4z"/>
	</g>
	<g>
		<g>
			<path class="st0" d="M257.2,49.6c-9.2,0-16.7-7.5-16.7-16.7c0-9.2,7.5-16.7,16.7-16.7c9.2,0,16.7,7.5,16.7,16.7
				C273.9,42.1,266.4,49.6,257.2,49.6z M257.2,19.1c-7.6,0-13.7,6.2-13.7,13.7s6.2,13.7,13.7,13.7c7.6,0,13.7-6.2,13.7-13.7
				S264.7,19.1,257.2,19.1z"/>
		</g>
		<g>
			<path class="st0" d="M252.8,40.2c-0.4,0-0.7-0.1-1-0.4c-0.6-0.6-0.6-1.5-0.1-2.1l4.7-4.9V22.2c0-0.8,0.7-1.5,1.5-1.5
				c0.8,0,1.5,0.7,1.5,1.5v11.1c0,0.4-0.1,0.8-0.4,1l-5.1,5.4C253.6,40,253.2,40.2,252.8,40.2z"/>
		</g>
	</g>
	<g>
		<path class="st31" d="M210.8,37.3c-5.7,0-10.4,4.6-10.4,10.4c0,10.3,10.4,22.8,10.4,22.8s10.4-12.5,10.4-22.8
			C221.2,41.9,216.5,37.3,210.8,37.3z M210.8,53.1c-3,0-5.5-2.5-5.5-5.5c0-3,2.4-5.5,5.5-5.5c3,0,5.5,2.5,5.5,5.5
			C216.3,50.6,213.8,53.1,210.8,53.1z"/>
	</g>
	<g>
		<path class="st0" d="M430.5,144.1l-11.1-16.7V105c0.6,0,1.1-0.5,1.1-1.1c0-0.6-0.5-1.1-1.1-1.1h-9c-0.6,0-1.1,0.5-1.1,1.1
			c0,0.6,0.5,1.1,1.1,1.1v22.4l-11.1,16.7c-1,1.5,0.1,3.5,1.9,3.5h27.5C430.4,147.6,431.5,145.6,430.5,144.1z"/>
		<path class="st26" d="M407.1,136.4l-5.3,7.9c-0.3,0.4,0,1,0.5,1h25c0.5,0,0.8-0.6,0.5-1l-5.3-7.9H407.1z"/>
	</g>
	<g>
		<rect x="63.9" y="31.6" class="st43" width="57.8" height="43.1"/>
		<g>
			<polyline class="st26" points="82.5,43.1 115.5,43.1 115.5,40.1 82.5,40.1 			"/>
			<polyline class="st26" points="82.5,49.7 115.5,49.7 115.5,46.7 82.5,46.7 			"/>
			<polygon class="st26" points="67.6,44.8 71.6,49.1 78.1,41.3 75.8,39.4 71.5,44.5 69.8,42.8 67.6,44.8 			"/>
			<polyline class="st26" points="82.5,56.2 115.5,56.2 115.5,53.2 82.5,53.2 			"/>
			<polyline class="st26" points="82.5,62.8 102.1,62.8 102.1,59.8 82.5,59.8 			"/>
		</g>
	</g>
	<rect x="202.8" y="277.9" class="st25" width="57.8" height="43.1"/>
	<g>
		<rect x="207" y="273.7" class="st27" width="57.8" height="43.1"/>
		<g>
			<polyline class="st26" points="225.6,285.2 258.6,285.2 258.6,282.2 225.6,282.2 			"/>
			<polyline class="st26" points="225.6,291.8 258.6,291.8 258.6,288.8 225.6,288.8 			"/>
			<polygon class="st26" points="210.8,286.9 214.7,291.2 221.3,283.4 219,281.5 214.6,286.7 213,284.9 210.8,286.9 			"/>
			<polyline class="st26" points="225.6,298.4 258.6,298.4 258.6,295.4 225.6,295.4 			"/>
			<polyline class="st26" points="225.6,304.9 245.3,304.9 245.3,301.9 225.6,301.9 			"/>
		</g>
	</g>
	<ellipse transform="matrix(0.2298 -0.9732 0.9732 0.2298 94.4434 182.6573)" class="st0" cx="162.6" cy="31.7" rx="7.7" ry="7.7"/>
	<ellipse transform="matrix(0.2305 -0.9731 0.9731 0.2305 135.0405 600.8051)" class="st0" cx="447.4" cy="215" rx="7.7" ry="7.7"/>
	<path class="st0" d="M45,127.5c0,2.3-1.9,4.2-4.2,4.2c-2.3,0-4.2-1.9-4.2-4.2c0-2.3,1.9-4.2,4.2-4.2C43.1,123.4,45,125.2,45,127.5z
		"/>
	<path class="st0" d="M403,54.7c0,2.3-1.9,4.2-4.2,4.2c-2.3,0-4.2-1.9-4.2-4.2c0-2.3,1.9-4.2,4.2-4.2C401.2,50.6,403,52.4,403,54.7z
		"/>
	<g>
		<linearGradient id="SVGID_28_" gradientUnits="userSpaceOnUse" x1="349.2671" y1="98.6967" x2="365.3746" y2="98.6967">
			<stop  offset="0" style="stop-color:#3478FF"/>
			<stop  offset="1" style="stop-color:#482EBD"/>
		</linearGradient>
		<path class="st44" d="M352.2,100.9h10.3c1.6,0,2.9-1.3,2.9-2.9v-1.6h-16.1V98C349.3,99.6,350.6,100.9,352.2,100.9z"/>
		<path class="st43" d="M368.5,75.2c1.5-2.7,3.6-5.1,6.3-7.1c7.5-5.5,11.9-14.4,11.9-23.6c0-16.2-13.2-29.4-29.4-29.4
			c-1.1,0-2.2,0.1-3.3,0.2c-13.3,1.5-24.2,12.2-25.8,25.5c-1.3,10.7,3.3,21.3,12,27.6c2.5,1.8,4.6,4.2,6.1,6.9"/>
		<path class="st45" d="M359.5,75.5l6-20.5c0.4-1.4-1.1-2.5-2.3-1.8l-5.8,3.5l-5.9-3.5c-1.2-0.7-2.7,0.4-2.3,1.8l6,20.5
			c0.2,0.6,0.8,0.9,1.4,0.8c0.6-0.2,0.9-0.8,0.8-1.4L351.8,56l5.5,3.3l5.5-3.3l-5.5,18.8c-0.2,0.6,0.2,1.2,0.8,1.4
			C358.7,76.4,359.3,76.1,359.5,75.5L359.5,75.5z"/>
		<linearGradient id="SVGID_29_" gradientUnits="userSpaceOnUse" x1="342.8458" y1="86.0399" x2="371.796" y2="86.0399">
			<stop  offset="0" style="stop-color:#3478FF"/>
			<stop  offset="1" style="stop-color:#482EBD"/>
		</linearGradient>
		<path class="st46" d="M367.6,96.9H347c-2.3,0-4.2-1.9-4.2-4.2V75.2h29v17.5C371.8,95,369.9,96.9,367.6,96.9z"/>
		<linearGradient id="SVGID_30_" gradientUnits="userSpaceOnUse" x1="342.2844" y1="85.387" x2="372.3573" y2="85.387">
			<stop  offset="0" style="stop-color:#435DF1"/>
			<stop  offset="0.327" style="stop-color:#4333F1"/>
			<stop  offset="1" style="stop-color:#4C008C"/>
		</linearGradient>
		<path class="st47" d="M342.3,88.8h30.1v-2.5h-30.1V88.8z M342.3,93.2h30.1v-2.5h-30.1V93.2z M342.3,84.5h30.1V82h-30.1V84.5z
			 M342.3,77.6v2.5h30.1v-2.5H342.3z"/>
	</g>
	<g>
		<rect x="171" y="257.4" class="st48" width="4.9" height="7.8"/>
		<path class="st48" d="M180.7,258.9h-14.5c-1.6,0-2.9-1.3-2.9-2.9v-0.5c0-1.6,1.3-2.9,2.9-2.9h14.5c1.6,0,2.9,1.3,2.9,2.9v0.5
			C183.6,257.6,182.3,258.9,180.7,258.9z"/>
		<rect x="169.6" y="260.4" class="st49" width="7.8" height="7.8"/>
		<linearGradient id="SVGID_31_" gradientUnits="userSpaceOnUse" x1="151.276" y1="268.3204" x2="195.6828" y2="345.2353">
			<stop  offset="0" style="stop-color:#FBD15B"/>
			<stop  offset="1" style="stop-color:#FE9373"/>
		</linearGradient>
		<circle class="st50" cx="173.5" cy="306.8" r="44.4"/>
		<circle class="st43" cx="173.5" cy="306.8" r="37.3"/>
		<circle class="st26" cx="173.5" cy="306.8" r="35.5"/>
		<path class="st48" d="M178.8,306.8c0,3-2.4,5.4-5.4,5.4c-3,0-5.4-2.4-5.4-5.4c0-3,2.4-5.4,5.4-5.4
			C176.4,301.4,178.8,303.8,178.8,306.8z"/>
		<path class="st48" d="M173.6,310.2h-0.3c-1,0-1.7-0.8-1.7-1.7v-26.8c0-1,0.8-1.7,1.7-1.7h0.3c1,0,1.7,0.8,1.7,1.7v26.8
			C175.3,309.4,174.6,310.2,173.6,310.2z"/>
		<g>
			<circle class="st51" cx="173.5" cy="275.3" r="2"/>
			<circle class="st51" cx="173.5" cy="338.2" r="2"/>
		</g>
		<g>
			<path class="st51" d="M142,304.8c1.1,0,2,0.9,2,2c0,1.1-0.9,2-2,2c-1.1,0-2-0.9-2-2C140,305.7,140.9,304.8,142,304.8z"/>
			<circle class="st51" cx="204.9" cy="306.8" r="2"/>
		</g>
	</g>
</g>
</svg>
