<svg id="Capa_1" enable-background="new 0 0 512 512" height="512" viewBox="0 0 512 512" width="512" xmlns="http://www.w3.org/2000/svg"><g id="XMLID_2713_"><path id="XMLID_1373_" d="m448 502v-444c0-26.51-21.49-48-48-48h-342c26.51 0 48 21.49 48 48v396.333c0 26.326 21.341 47.667 47.667 47.667z" fill="#fff"/><path id="XMLID_1581_" d="m106 58c0-26.51-21.49-48-48-48s-48 21.49-48 48z" fill="#ffda8f"/><path id="XMLID_1240_" d="m154 502c26.51 0 48-21.49 48-48s-21.49-48-48-48h300c26.51 0 48 21.49 48 48s-21.49 48-48 48z" fill="#ffda8f"/><path id="XMLID_1102_" d="m458 396.153v-338.153c0-31.981-26.019-58-58-58h-342c-31.981 0-58 26.019-58 58 0 5.523 4.477 10 10 10h86v386c0 31.981 26.019 58 58 58h300c31.981 0 58-26.019 58-58 0-30.635-23.879-55.783-54-57.847zm-436.665-348.153c4.4-16.118 19.171-28 36.665-28s32.265 11.882 36.665 28zm132.665 444c-20.953 0-38-17.047-38-38v-396c0-14.527-5.381-27.813-14.238-38h298.238c20.953 0 38 17.047 38 38v338h-284c-5.523 0-10 4.477-10 10s4.477 10 10 10c20.953 0 38 17.047 38 38s-17.047 38-38 38zm300 0h-256.216c8.852-10.186 14.216-23.477 14.216-38s-5.364-27.814-14.216-38h256.216c20.953 0 38 17.047 38 38s-17.047 38-38 38z" fill="#ffa96b"/><path id="XMLID_1228_" d="m313.188 61.245c-9.993-9.993-26.195-9.993-36.188 0-9.993-9.993-26.195-9.993-36.188 0-9.993 9.993-9.993 26.195 0 36.188l32.14 32.14c2.236 2.236 5.86 2.236 8.096 0l32.14-32.14c9.993-9.993 9.993-26.195 0-36.188z" fill="#f6e2ec"/><g id="XMLID_1650_"><g id="XMLID_1639_"><path id="XMLID_384_" d="m205.618 189.25h-25.157c-5.523 0-10-4.477-10-10s4.477-10 10-10h25.157c5.523 0 10 4.477 10 10s-4.477 10-10 10z" fill="#ffda8f"/></g><g id="XMLID_1638_"><path id="XMLID_383_" d="m205.618 233h-25.157c-5.523 0-10-4.477-10-10s4.477-10 10-10h25.157c5.523 0 10 4.477 10 10s-4.477 10-10 10z" fill="#ffda8f"/></g><g id="XMLID_1637_"><path id="XMLID_382_" d="m205.618 276.75h-25.157c-5.523 0-10-4.477-10-10s4.477-10 10-10h25.157c5.523 0 10 4.477 10 10s-4.477 10-10 10z" fill="#ffda8f"/></g><g id="XMLID_1636_"><path id="XMLID_381_" d="m205.618 364.25h-25.157c-5.523 0-10-4.477-10-10s4.477-10 10-10h25.157c5.523 0 10 4.477 10 10s-4.477 10-10 10z" fill="#ffda8f"/></g><g id="XMLID_1635_"><path id="XMLID_380_" d="m205.618 320.5h-25.157c-5.523 0-10-4.477-10-10s4.477-10 10-10h25.157c5.523 0 10 4.477 10 10s-4.477 10-10 10z" fill="#ffda8f"/></g><g id="XMLID_1649_"><path id="XMLID_379_" d="m373.539 189.25h-125.921c-5.523 0-10-4.477-10-10s4.477-10 10-10h125.921c5.523 0 10 4.477 10 10s-4.477 10-10 10z" fill="#ffda8f"/></g><g id="XMLID_1648_"><path id="XMLID_378_" d="m373.539 233h-125.921c-5.523 0-10-4.477-10-10s4.477-10 10-10h125.921c5.523 0 10 4.477 10 10s-4.477 10-10 10z" fill="#ffda8f"/></g><g id="XMLID_1647_"><path id="XMLID_377_" d="m373.539 276.75h-125.921c-5.523 0-10-4.477-10-10s4.477-10 10-10h125.921c5.523 0 10 4.477 10 10s-4.477 10-10 10z" fill="#ffda8f"/></g><g id="XMLID_1641_"><path id="XMLID_376_" d="m373.539 364.25h-125.921c-5.523 0-10-4.477-10-10s4.477-10 10-10h125.921c5.523 0 10 4.477 10 10s-4.477 10-10 10z" fill="#ffda8f"/></g><g id="XMLID_1640_"><path id="XMLID_375_" d="m373.539 320.5h-125.921c-5.523 0-10-4.477-10-10s4.477-10 10-10h125.921c5.523 0 10 4.477 10 10s-4.477 10-10 10z" fill="#ffda8f"/></g></g></g></svg>