<?xml version="1.0" encoding="utf-8"?>
<!-- Generator: Adobe Illustrator 24.0.1, SVG Export Plug-In . SVG Version: 6.00 Build 0)  -->
<svg version="1.1" xmlns="http://www.w3.org/2000/svg" xmlns:xlink="http://www.w3.org/1999/xlink" x="0px" y="0px"
	 viewBox="0 0 500 500" style="enable-background:new 0 0 500 500;" xml:space="preserve">
<style type="text/css">
	.st0{fill:#FFFFFF;}
	.st1{fill:#1AE5FF;}
	.st2{opacity:0.57;}
	.st3{fill:url(#SVGID_1_);}
	.st4{fill:url(#SVGID_2_);}
	.st5{fill:url(#SVGID_3_);}
	.st6{fill:url(#SVGID_4_);}
	.st7{fill:#F9FBFC;}
	.st8{fill:url(#SVGID_5_);}
	.st9{fill:#CFE3FF;}
	.st10{fill:url(#SVGID_6_);}
	.st11{fill:url(#SVGID_7_);}
	.st12{fill:#FF9D6F;}
	.st13{opacity:0.21;fill:url(#SVGID_8_);}
	.st14{fill:#113C7A;}
	.st15{fill:url(#SVGID_9_);}
	.st16{fill:#FF7C40;}
	.st17{fill:url(#SVGID_10_);}
	.st18{fill:url(#SVGID_11_);}
	.st19{fill:#843837;}
	.st20{fill:#CFDAE4;}
	.st21{opacity:0.67;}
	.st22{opacity:0.53;}
	.st23{fill:url(#SVGID_12_);}
	.st24{opacity:0.46;}
	.st25{fill:url(#SVGID_13_);}
	.st26{opacity:0.21;}
	.st27{fill:url(#SVGID_14_);}
	.st28{fill:#5155D4;}
	.st29{fill:#343996;}
	.st30{fill:#FF3D9D;}
</style>
<g id="BACKGROUND">
	<g>
		<g>
			<rect class="st0" width="500" height="500"/>
		</g>
	</g>
</g>
<g id="OBJECTS">
	<g>
		<g>
			<path class="st1" d="M401.15,382.58c1.91,1.13,3.45,3.86,3.45,6.11c-0.01,2.26-1.56,3.16-3.47,2.04l-31.45-18.57
				c-1.91-1.13-3.45-3.86-3.45-6.12c0.01-2.24,1.56-3.15,3.47-2.02L401.15,382.58z"/>
		</g>
		<g>
			<g class="st2">
				<path class="st1" d="M16.25,179.83c-2.09,1.23-3.8,4.27-3.79,6.73l0.25,91.47c0.02,5.83,4.07,8.21,9,5.3l53.28-31.46
					c2.09-1.23,3.8-4.27,3.79-6.73l-0.25-91.47c-0.02-5.83-4.07-8.21-9-5.3L16.25,179.83z"/>
			</g>
			<g>
				<g>
					<g>
						<path class="st0" d="M24.42,212.98c-0.63,0.37-1.13,1.26-1.13,1.99l0.01,4.86c0,0.74,0.51,1.03,1.14,0.66l43.44-25.65
							c0.63-0.37,1.13-1.26,1.13-2L69,187.99c0-0.73-0.51-1.03-1.14-0.66L24.42,212.98z"/>
					</g>
					<g>
						<path class="st0" d="M24.45,223.55c-0.63,0.37-1.13,1.26-1.13,2l0.01,4.86c0,0.74,0.51,1.03,1.14,0.66l43.44-25.65
							c0.63-0.37,1.13-1.26,1.13-1.99l-0.01-4.86c0-0.74-0.51-1.03-1.14-0.66L24.45,223.55z"/>
					</g>
				</g>
				<linearGradient id="SVGID_1_" gradientUnits="userSpaceOnUse" x1="38.7349" y1="230.9837" x2="58.1561" y2="230.9837">
					<stop  offset="0" style="stop-color:#CC68FF"/>
					<stop  offset="1" style="stop-color:#FB8E31"/>
				</linearGradient>
				<path class="st3" d="M41.41,231.42c-1.48,0.88-2.68,3-2.67,4.74l0,1.11c0,1.74,1.21,2.44,2.69,1.57l14.05-8.3
					c1.48-0.88,2.68-3,2.68-4.74l0-1.11c0-1.74-1.21-2.44-2.69-1.57L41.41,231.42z"/>
			</g>
		</g>
		<g>
			
				<linearGradient id="SVGID_2_" gradientUnits="userSpaceOnUse" x1="91.9114" y1="389.2085" x2="147.4854" y2="-23.807" gradientTransform="matrix(-1 0 0 1 443.1537 0)">
				<stop  offset="0" style="stop-color:#1AE5FF"/>
				<stop  offset="0.2589" style="stop-color:#64E8F9"/>
				<stop  offset="0.7043" style="stop-color:#EAEEEE"/>
			</linearGradient>
			<path class="st4" d="M200.31,27.87c-0.14-0.08-0.29-0.17-0.43-0.24c-0.18-0.1-0.37-0.2-0.55-0.29c-0.18-0.09-0.36-0.18-0.54-0.26
				c-0.18-0.08-0.36-0.16-0.54-0.23c-0.18-0.07-0.36-0.14-0.54-0.21c-0.03-0.01-0.07-0.02-0.1-0.03c-0.01,0-0.03-0.01-0.04-0.01
				c-0.13-0.05-0.26-0.09-0.39-0.13c-0.19-0.06-0.37-0.11-0.55-0.16c-0.18-0.05-0.37-0.09-0.55-0.12c-0.2-0.04-0.39-0.07-0.59-0.1
				c-0.13-0.02-0.26-0.03-0.39-0.04c-0.02,0-0.04,0-0.06-0.01c-0.05,0-0.1-0.01-0.14-0.01c-0.21-0.01-0.42-0.02-0.63-0.02
				c-0.24,0-0.47,0.01-0.7,0.03c-0.26,0.03-0.52,0.06-0.77,0.11c-0.01,0-0.01,0-0.02,0.01c-0.01,0-0.02,0-0.02,0.01
				c-0.31,0.07-0.61,0.15-0.89,0.25c-0.38,0.14-0.74,0.31-1.08,0.51l-8.89,5.28c0.6-0.36,1.27-0.61,1.98-0.76
				c0.01,0,0.02-0.01,0.03-0.01c0.71-0.15,1.46-0.19,2.26-0.12c0.02,0,0.04,0,0.06,0.01c0.79,0.07,1.62,0.26,2.48,0.55
				c0.01,0,0.03,0.01,0.04,0.01c0.87,0.31,1.78,0.73,2.7,1.27L434.41,177l8.89-5.28L200.31,27.87z"/>
			
				<linearGradient id="SVGID_3_" gradientUnits="userSpaceOnUse" x1="-18.7933" y1="280.0793" x2="3.4575" y2="280.0793" gradientTransform="matrix(-1 0 0 1 443.1537 0)">
				<stop  offset="0" style="stop-color:#5155D4"/>
				<stop  offset="1" style="stop-color:#45F7FF"/>
			</linearGradient>
			<path class="st5" d="M461.94,197.51c-0.01-0.22-0.02-0.44-0.03-0.66c-0.01-0.22-0.03-0.44-0.05-0.67
				c-0.02-0.22-0.05-0.45-0.07-0.67c-0.03-0.23-0.06-0.46-0.1-0.69c0-0.01,0-0.01,0-0.02c0-0.01,0-0.01,0-0.01
				c-0.03-0.22-0.07-0.44-0.11-0.66c-0.04-0.24-0.09-0.48-0.14-0.72c-0.05-0.24-0.11-0.48-0.16-0.72c-0.06-0.24-0.12-0.49-0.19-0.73
				c-0.05-0.19-0.11-0.38-0.16-0.56c0-0.01-0.01-0.03-0.01-0.04c-0.01-0.04-0.02-0.08-0.03-0.12c-0.07-0.24-0.14-0.47-0.22-0.71
				c-0.08-0.23-0.16-0.47-0.24-0.7c-0.08-0.22-0.16-0.45-0.25-0.67c-0.08-0.22-0.17-0.44-0.26-0.67c-0.07-0.17-0.14-0.34-0.21-0.51
				c0-0.01-0.01-0.02-0.01-0.03c-0.02-0.04-0.03-0.08-0.05-0.12c-0.1-0.22-0.19-0.44-0.3-0.66c-0.11-0.24-0.22-0.48-0.34-0.72
				c-0.13-0.28-0.27-0.55-0.41-0.82c-0.15-0.29-0.32-0.58-0.48-0.87c-0.03-0.05-0.05-0.1-0.08-0.15c-0.03-0.06-0.07-0.12-0.1-0.18
				c-0.32-0.55-0.65-1.09-0.99-1.62c-0.27-0.42-0.56-0.83-0.85-1.24c-0.2-0.27-0.39-0.54-0.6-0.8c-0.17-0.22-0.34-0.44-0.52-0.65
				c-0.17-0.21-0.34-0.42-0.52-0.62c-0.17-0.2-0.35-0.4-0.52-0.59c-0.03-0.04-0.07-0.08-0.11-0.11c-0.01-0.01-0.03-0.03-0.04-0.04
				c-0.13-0.15-0.27-0.29-0.4-0.43c-0.19-0.19-0.37-0.38-0.56-0.57c-0.19-0.19-0.39-0.38-0.59-0.56c-0.2-0.18-0.4-0.36-0.6-0.53
				c-0.1-0.09-0.2-0.17-0.3-0.25c-0.02-0.02-0.05-0.04-0.07-0.06c-0.08-0.06-0.15-0.13-0.23-0.19c-0.19-0.16-0.39-0.31-0.59-0.46
				c-0.19-0.15-0.39-0.29-0.58-0.42c-0.19-0.13-0.38-0.26-0.57-0.39c-0.19-0.12-0.38-0.24-0.57-0.36c-0.04-0.03-0.09-0.05-0.13-0.08
				l-8.89,5.28c0.91,0.54,1.81,1.18,2.67,1.89c0.02,0.02,0.04,0.04,0.07,0.06c0.85,0.71,1.67,1.5,2.46,2.35
				c0.01,0.01,0.03,0.03,0.04,0.04c1.58,1.72,3,3.7,4.2,5.81c0.03,0.05,0.06,0.1,0.08,0.15c0.58,1.04,1.11,2.1,1.57,3.18
				c0.01,0.01,0.01,0.03,0.02,0.04c0.47,1.11,0.88,2.24,1.21,3.36c0,0.02,0.01,0.03,0.01,0.05c0.33,1.13,0.59,2.27,0.77,3.39
				c0,0,0,0.01,0,0.01c0.18,1.13,0.27,2.25,0.26,3.33l-0.48,173.49c0,1.06-0.1,2.05-0.27,2.95c-0.01,0.03-0.01,0.06-0.02,0.08
				c-0.18,0.89-0.43,1.69-0.76,2.41c-0.01,0.01-0.01,0.03-0.02,0.05c-0.28,0.61-0.63,1.11-1.01,1.59c-0.12,0.16-0.24,0.33-0.37,0.47
				c-0.44,0.48-0.92,0.91-1.46,1.24l8.89-5.28c0.54-0.32,1.02-0.75,1.47-1.24c0.13-0.14,0.25-0.31,0.37-0.47
				c0.16-0.21,0.34-0.38,0.48-0.61c0.18-0.29,0.35-0.61,0.51-0.94c0.01-0.01,0.01-0.03,0.02-0.04c0.01-0.01,0.01-0.03,0.02-0.04
				c0.1-0.22,0.2-0.45,0.29-0.69c0.08-0.23,0.16-0.47,0.23-0.72c0.06-0.23,0.12-0.46,0.18-0.7c0.02-0.1,0.04-0.2,0.06-0.3
				c0.01-0.03,0.01-0.06,0.02-0.08c0.02-0.1,0.04-0.19,0.06-0.29c0.04-0.21,0.07-0.43,0.1-0.66c0.03-0.22,0.05-0.44,0.07-0.66
				c0.02-0.21,0.03-0.43,0.04-0.65c0.01-0.22,0.01-0.44,0.02-0.66c0-0.01,0-0.03,0-0.04l0.48-173.49
				C461.95,197.93,461.94,197.72,461.94,197.51z"/>
			<g>
				<linearGradient id="SVGID_4_" gradientUnits="userSpaceOnUse" x1="177.4917" y1="208.9447" x2="453.0589" y2="208.9447">
					<stop  offset="0" style="stop-color:#7F5EFF"/>
					<stop  offset="0.2423" style="stop-color:#8665FF"/>
					<stop  offset="0.5952" style="stop-color:#9978FF"/>
					<stop  offset="0.94" style="stop-color:#B391FF"/>
				</linearGradient>
				<path class="st6" d="M439.7,179.74c7.41,4.37,13.39,14.96,13.36,23.67l-0.48,173.49c-0.02,8.71-6.04,12.21-13.45,7.84
					L190.85,238.14c-7.41-4.37-13.39-14.96-13.36-23.67l0.48-173.49c0.02-8.7,6.04-12.21,13.45-7.84L439.7,179.74z"/>
			</g>
			<g>
				<path class="st7" d="M424.37,179.36c6.81,4.02,12.31,13.76,12.28,21.76l-0.44,159.49c-0.02,8-5.55,11.23-12.36,7.21
					L207.3,240.03c-6.81-4.02-12.31-13.76-12.28-21.76l0.44-159.49c0.02-8,5.55-11.23,12.36-7.21L424.37,179.36z"/>
			</g>
			<path class="st7" d="M443.62,317.97L443.62,317.97c-1,0-1.81-0.83-1.81-1.85v-55.6c0-1.02,0.81-1.85,1.81-1.85l0,0
				c1,0,1.81,0.83,1.81,1.85v55.6C445.43,317.14,444.62,317.97,443.62,317.97z"/>
			<g>
				<path class="st0" d="M185.95,140.03c2.12,1.25,3.83,4.28,3.82,6.77c-0.01,2.49-1.73,3.49-3.85,2.24
					c-2.12-1.25-3.83-4.28-3.82-6.77S183.83,138.77,185.95,140.03z"/>
			</g>
		</g>
		<g>
			<linearGradient id="SVGID_5_" gradientUnits="userSpaceOnUse" x1="309.6529" y1="93.9852" x2="324.0779" y2="277.5762">
				<stop  offset="0" style="stop-color:#5155D4"/>
				<stop  offset="1" style="stop-color:#45F7FF"/>
			</linearGradient>
			<path class="st8" d="M334.83,163.57c0.68,2.29,1.16,4.59,1.43,6.85c0.16,1.35,0.24,2.69,0.24,4c0,0.4-0.01,0.79-0.03,1.17
				c0,0.06,0,0.12-0.01,0.18c-0.02,0.36-0.04,0.72-0.08,1.07c-0.01,0.07-0.01,0.14-0.02,0.2c-0.03,0.35-0.07,0.7-0.12,1.04
				c-0.07,0.46-0.12,0.79-0.19,1.11c-0.08,0.42-0.16,0.74-0.23,1.05c-0.01,0.05-0.03,0.11-0.04,0.16c-0.08,0.31-0.16,0.6-0.26,0.9
				c-0.02,0.05-0.03,0.11-0.05,0.16c-0.1,0.29-0.2,0.58-0.3,0.86c-0.14,0.35-0.25,0.61-0.37,0.87c-0.17,0.36-0.29,0.62-0.43,0.86
				c-0.03,0.05-0.05,0.09-0.08,0.14c-0.13,0.24-0.27,0.48-0.42,0.7c-0.02,0.04-0.05,0.07-0.07,0.11c-0.15,0.24-0.31,0.47-0.48,0.69
				c-0.17,0.23-0.34,0.44-0.52,0.64c-0.02,0.03-0.05,0.06-0.07,0.09c-0.17,0.19-0.35,0.38-0.53,0.56c-0.03,0.03-0.07,0.07-0.1,0.1
				c-0.18,0.17-0.37,0.34-0.56,0.5c-0.03,0.02-0.06,0.05-0.09,0.07c-0.19,0.16-0.39,0.31-0.59,0.45c-0.25,0.18-0.46,0.31-0.68,0.44
				c-0.04,0.02-0.08,0.05-0.12,0.07c-0.21,0.12-0.42,0.23-0.64,0.34c-0.05,0.02-0.09,0.04-0.14,0.06c-0.22,0.1-0.45,0.2-0.69,0.29
				c-0.19,0.07-0.31,0.11-0.43,0.15c-0.08-8.46-5.89-18.68-13.06-22.92c-7.24-4.28-13.13-0.85-13.16,7.66
				c0.01,0.02,0.21,0.36,0.6,0.96c-0.17-0.24-0.34-0.48-0.51-0.73c-0.32-0.48-0.54-0.81-0.76-1.15c-0.04-0.06-0.08-0.12-0.12-0.18
				c-0.23-0.36-0.46-0.73-0.68-1.09c-0.05-0.08-0.09-0.16-0.14-0.23c-0.23-0.38-0.45-0.76-0.66-1.14c-0.23-0.41-0.44-0.79-0.64-1.18
				c-0.04-0.07-0.08-0.15-0.12-0.22c-0.2-0.38-0.4-0.77-0.59-1.15c-0.03-0.07-0.07-0.14-0.1-0.21c-0.18-0.37-0.36-0.74-0.53-1.12
				c-0.23-0.5-0.41-0.9-0.58-1.3c-0.04-0.08-0.07-0.16-0.11-0.25c-0.17-0.4-0.33-0.8-0.49-1.2c-0.2-0.52-0.35-0.9-0.48-1.28
				c-0.02-0.06-0.05-0.13-0.07-0.19c-0.14-0.4-0.28-0.8-0.41-1.2c-0.03-0.08-0.05-0.16-0.08-0.24c-0.27-0.82-0.51-1.65-0.73-2.47
				c-0.02-0.08-0.04-0.16-0.06-0.24c-0.1-0.4-0.2-0.8-0.29-1.2c-0.02-0.07-0.03-0.14-0.05-0.21c-0.08-0.38-0.16-0.76-0.24-1.14
				c-0.1-0.53-0.17-0.93-0.23-1.33c-0.01-0.09-0.03-0.17-0.04-0.26c-0.06-0.4-0.12-0.8-0.16-1.19c-0.06-0.51-0.09-0.88-0.13-1.25
				c-0.01-0.07-0.01-0.13-0.02-0.2c-0.03-0.39-0.05-0.77-0.07-1.16c0-0.08-0.01-0.16-0.01-0.25c-0.01-0.39-0.02-0.79-0.02-1.18
				c0-1.31,0.09-2.55,0.26-3.71c0.28-1.93,0.77-3.65,1.46-5.14c0.14-0.3,0.28-0.59,0.43-0.87c3.5-6.42,10.9-7.92,19.44-2.87
				c7.67,4.53,14.39,13.22,18.18,22.56c0.25,0.61,0.49,1.23,0.72,1.85C334.26,161.73,334.56,162.65,334.83,163.57z M315.44,164.2
				c4.42,2.61,8.01,0.51,8.02-4.67c0.01-5.19-3.55-11.51-7.97-14.12c-4.41-2.6-8.01-0.52-8.02,4.68
				C307.45,155.27,311.03,161.6,315.44,164.2"/>
			<g>
				<g>
					<path class="st9" d="M368.56,233.07c1.66,0.98,3,3.35,2.99,5.29l-0.04,12.89c-0.01,1.95-1.35,2.74-3.01,1.76l-115.26-68.06
						c-1.66-0.98-3-3.35-2.99-5.3l0.04-12.89c0.01-1.94,1.35-2.72,3.01-1.74L368.56,233.07z"/>
				</g>
				<g>
					<path class="st9" d="M368.48,261.12c1.66,0.98,3,3.35,2.99,5.3l-0.04,12.89c-0.01,1.95-1.35,2.72-3.01,1.74L253.16,213
						c-1.66-0.98-3-3.34-2.99-5.29l0.04-12.89c0.01-1.95,1.35-2.74,3.01-1.76L368.48,261.12z"/>
				</g>
			</g>
		</g>
		<linearGradient id="SVGID_6_" gradientUnits="userSpaceOnUse" x1="302.3775" y1="233.8062" x2="302.3775" y2="297.8468">
			<stop  offset="0" style="stop-color:#7F5EFF"/>
			<stop  offset="0.2423" style="stop-color:#8665FF"/>
			<stop  offset="0.5952" style="stop-color:#9978FF"/>
			<stop  offset="0.94" style="stop-color:#B391FF"/>
		</linearGradient>
		<path class="st10" d="M317.07,266.75c3.1,1.83,5.59,6.26,5.58,9.89l-0.01,2.33c-0.01,3.64-2.52,5.1-5.62,3.27l-29.34-17.32
			c-3.1-1.83-5.6-6.26-5.59-9.89l0.01-2.33c0.01-3.63,2.53-5.1,5.63-3.27L317.07,266.75z"/>
		<g>
			
				<linearGradient id="SVGID_7_" gradientUnits="userSpaceOnUse" x1="552.1099" y1="301.3416" x2="590.4856" y2="267.8926" gradientTransform="matrix(-1 0 0 1 779.0993 0)">
				<stop  offset="0" style="stop-color:#1AE5FF"/>
				<stop  offset="0.2589" style="stop-color:#64E8F9"/>
				<stop  offset="0.7043" style="stop-color:#EAEEEE"/>
			</linearGradient>
			<path class="st11" d="M210.71,265.1c0,0-9.95,5.86-11.47,32.67c1.27,4.95,8.91,7.55,14.76,3.64
				C219.86,297.51,213.79,269.65,210.71,265.1z"/>
			<path class="st12" d="M261.29,294.05c0,0,22.78-10.38,25.84-12.14c3.06-1.76,5.36-8.22,6.51-9.59c1.15-1.37,6.32-4.5,6.13-3.13
				c-0.19,1.37-2.87,3.92-2.87,3.92s1.91,3.33,2.3,5.48c0.38,2.15-2.49,6.46-4.02,7.64c-1.53,1.17-5.17,1.57-5.17,1.57
				s-18.57,12.73-21.63,12.92C265.31,300.9,260.91,299.14,261.29,294.05z"/>
			
				<linearGradient id="SVGID_8_" gradientUnits="userSpaceOnUse" x1="93.7886" y1="426.9826" x2="185.88" y2="426.9826" gradientTransform="matrix(1 0 0 1 94.1842 0)">
				<stop  offset="0" style="stop-color:#5155D4"/>
				<stop  offset="1" style="stop-color:#45F7FF"/>
			</linearGradient>
			<ellipse class="st13" cx="234.02" cy="426.98" rx="46.05" ry="27.98"/>
			<path class="st14" d="M214.93,420.96c0,0-0.59,4.44,0.2,6.25c0.79,1.61,3.94,2.82,6.11,1.21c2.17-1.61,5.92-5.65,5.92-5.65
				s6.31-3.43,6.9-5.24c0.59-1.82-1.58-3.43-3.35-3.03c-1.77,0.4-6.9,3.63-9.27,3.63S215.71,418.74,214.93,420.96z"/>
			<path class="st14" d="M208.42,326.5c0,0,5.52,93.16,6.21,95.86c0.69,2.7,7.85,4.25,9.18-0.04c0.84-2.72,2.92-88.93,2.92-88.93
				L208.42,326.5z"/>
			<path class="st14" d="M233.18,426.5c-0.31,0.27-0.48,0.67-0.48,1.09c-0.01,1.28,0.05,4.14,0.75,5.25
				c0.93,1.45,3.82,2.99,6.85,1.31c2.55-1.42,10.42-7.43,12.01-8.76c0.97-0.81,1.4-1.81,1.59-2.57c0.17-0.69-0.17-1.4-0.81-1.69
				c-1.11-0.51-3.02-1.14-4.72-0.56c-2.6,0.9-5.88,3.78-9.43,3.62C236.28,424.08,234.1,425.69,233.18,426.5z"/>
			<path class="st14" d="M245.36,327.51c-0.4-3.87-4.93-5.13-9.1-3.81c-7.96-0.44-20.29-0.09-20.72,6.23
				c-0.64,9.36,3.65,16.03,7.79,20.57c3.06,3.36,5.09,9.78,5.95,12.9c0.72,24.71,2.33,59.55,3.32,62.88
				c1.61,5.37,9.53,5.13,9.89-0.1C244.09,408.51,245.36,327.51,245.36,327.51z"/>
			
				<linearGradient id="SVGID_9_" gradientUnits="userSpaceOnUse" x1="557.0262" y1="389.8821" x2="548.3478" y2="208.6798" gradientTransform="matrix(-1 0 0 1 779.0993 0)">
				<stop  offset="0" style="stop-color:#1AE5FF"/>
				<stop  offset="0.2589" style="stop-color:#64E8F9"/>
				<stop  offset="0.7043" style="stop-color:#EAEEEE"/>
			</linearGradient>
			<path class="st15" d="M245.38,330.43c-0.94,4.78-14.26,7.17-22.05,5.9c-7.79-1.27-16.18-5.18-15.9-14.42
				c0,0-1.18-36.91-1.18-44.17c0-7.26,4.47-12.64,4.47-12.64s4.36-5.1,18.07-2.23c0,0,11.17,2.49,16.31,10.93
				c0,0,3.55,9.28,2.37,28.64C246.28,321.8,245.38,330.43,245.38,330.43z"/>
			<path class="st16" d="M218.08,252.62c0,0,1.18,7.06,0,10.29c-0.2,1.61,6.71,7.06,12.82,5.65c3.55-0.81,3.35-2.62,3.35-2.62
				s-2.96-5.04-2.56-9.88C232.08,251.21,222.22,251.61,218.08,252.62z"/>
			<g>
				<path class="st12" d="M241.16,238.4c0,9.19-7.28,16.64-16.27,16.64c-8.99,0-16.27-7.45-16.27-16.64
					c0-9.19,7.28-16.64,16.27-16.64C233.87,221.76,241.16,229.21,241.16,238.4z"/>
				<path class="st12" d="M241.16,239.51c0,0,0.2,16.67-3.35,20.03c-3.55,3.36-9-3.15-17.71-5.24c-8.71-2.29,7.06-19.62,7.06-19.62
					L241.16,239.51z"/>
			</g>
			<g>
				
					<linearGradient id="SVGID_10_" gradientUnits="userSpaceOnUse" x1="530.3137" y1="386.6717" x2="521.6309" y2="205.3783" gradientTransform="matrix(-1 0 0 1 779.0993 0)">
					<stop  offset="0" style="stop-color:#1AE5FF"/>
					<stop  offset="0.2589" style="stop-color:#64E8F9"/>
					<stop  offset="0.7043" style="stop-color:#EAEEEE"/>
				</linearGradient>
				<path class="st17" d="M239.84,269.91c0,0,3.56-1.04,7.64,4.95c4.07,5.99,9.93,13.8,12.73,15.1c2.8,1.3,6.62-1.3,8.15-1.3
					c1.53,0,5.6,7.29,4.07,10.93c-1.53,3.64-11.45,5.47-14,5.47c-2.55,0-19.09-10.15-21.38-15.88
					C234.75,283.45,231.19,270.17,239.84,269.91z"/>
				
					<linearGradient id="SVGID_11_" gradientUnits="userSpaceOnUse" x1="510.7289" y1="321.21" x2="506.2162" y2="286.844" gradientTransform="matrix(-1 0 0 1 779.0993 0)">
					<stop  offset="0" style="stop-color:#1AE5FF"/>
					<stop  offset="0.2589" style="stop-color:#64E8F9"/>
					<stop  offset="0.7043" style="stop-color:#EAEEEE"/>
				</linearGradient>
				<path class="st18" d="M266.06,289.44c0,0,1.02-2.86,4.58-3.12c3.56-0.26,7.64,6.77,7.38,10.67c-0.25,3.9-5.85,5.99-7.13,4.95
					C269.62,300.89,272.17,298.29,266.06,289.44z"/>
			</g>
			<path class="st19" d="M234.62,224.36c0,0,5.85,1.3,7.64,10.41c-0.76,3.91-6.11,0.78-8.15,5.99c-2.04,5.21-3.31,6.77-3.31,6.77
				l-1.27-0.52c0,0,0-4.17-1.78-4.17c-1.78,0-2.29,4.95-1.27,7.03c1.02,2.08,3.31,3.12,3.31,3.12s-2.55,4.43-3.82,4.95
				c-1.27,0.52-5.85-0.52-7.64-1.3c-1.78-0.78-5.09-4.43-7.64-8.59c-2.55-4.17-4.84-11.45-3.31-16.4c1.53-4.95,5.09-6.25,5.09-6.25
				s2.04-2.86,5.6-4.17C221.64,219.93,228.26,219.41,234.62,224.36z"/>
			<path class="st20" d="M237.42,266.36l-4.24-2.43c0,0-10.86-1.04-14.76-3.64l-2.04,2.95c0,0,2.72,5.38,9.67,6.07
				c6.96,0.69,10.18-2.08,10.18-2.08L237.42,266.36z"/>
		</g>
		<g class="st21">
			<g>
				<path class="st1" d="M428.84,134.38l-0.01,4.88c-0.01,2.87-3.05,4.66-5.49,3.22l-22.5-13.35c-1.13-0.67-1.82-1.91-1.82-3.24
					l0.01-4.88c0.01-2.87,3.05-4.66,5.49-3.22l22.5,13.35C428.15,131.81,428.84,133.04,428.84,134.38z"/>
			</g>
			<g>
				<path class="st1" d="M500,200.64l-0.01,4.89c-0.01,2.87-3.05,4.66-5.48,3.22l-93.72-55.34c-1.13-0.67-1.83-1.91-1.83-3.25
					l0.01-4.89c0.01-2.87,3.05-4.66,5.48-3.22l93.72,55.34C499.31,198.06,500,199.3,500,200.64z"/>
			</g>
			<g class="st22">
				<path class="st1" d="M461.22,226.39l-0.01,4.89c-0.01,2.87-3.05,4.66-5.48,3.22l-55.08-32.52c-1.13-0.67-1.83-1.91-1.83-3.25
					l0.01-4.89c0.01-2.87,3.05-4.66,5.48-3.23l55.08,32.52C460.53,223.81,461.23,225.05,461.22,226.39z"/>
			</g>
			<g>
				<path class="st1" d="M485.4,216.34l-0.01,4.89c-0.01,2.87-3.05,4.66-5.48,3.22l-79.19-46.76c-1.13-0.67-1.83-1.91-1.83-3.25
					l0.01-4.89c0.01-2.87,3.05-4.66,5.48-3.22l79.19,46.76C484.71,213.76,485.4,215,485.4,216.34z"/>
			</g>
		</g>
		<g class="st21">
			<g>
				<path class="st1" d="M52.88,99.6l0.01,2.51c0,1.48,1.57,2.4,2.82,1.66l11.57-6.87c0.58-0.34,0.94-0.98,0.94-1.67l-0.01-2.51
					c0-1.48-1.57-2.4-2.82-1.66l-11.57,6.87C53.24,98.28,52.88,98.92,52.88,99.6z"/>
			</g>
			<g>
				<path class="st1" d="M16.27,133.69l0.01,2.51c0,1.48,1.57,2.4,2.82,1.66l48.22-28.47c0.58-0.34,0.94-0.98,0.94-1.67l-0.01-2.51
					c0-1.48-1.57-2.4-2.82-1.66l-48.22,28.47C16.63,132.37,16.27,133.01,16.27,133.69z"/>
			</g>
			<g class="st22">
				<path class="st1" d="M36.22,146.94l0.01,2.51c0,1.48,1.57,2.4,2.82,1.66l28.34-16.73c0.58-0.34,0.94-0.98,0.94-1.67l-0.01-2.51
					c0-1.48-1.57-2.4-2.82-1.66l-28.34,16.73C36.58,145.62,36.22,146.25,36.22,146.94z"/>
			</g>
			<g>
				<path class="st1" d="M23.78,141.77l0.01,2.51c0,1.48,1.57,2.4,2.82,1.66l40.74-24.06c0.58-0.34,0.94-0.98,0.94-1.67l-0.01-2.51
					c0-1.48-1.57-2.4-2.82-1.66L24.72,140.1C24.14,140.45,23.78,141.08,23.78,141.77z"/>
			</g>
		</g>
		<g>
			<linearGradient id="SVGID_12_" gradientUnits="userSpaceOnUse" x1="222.8093" y1="196.2091" x2="259.2825" y2="126.6822">
				<stop  offset="0" style="stop-color:#CC68FF"/>
				<stop  offset="1" style="stop-color:#FB8E31"/>
			</linearGradient>
			<path class="st23" d="M246.61,187.89c0,10.98-8.7,19.88-19.43,19.88c-10.73,0-19.43-8.9-19.43-19.88
				c0-10.98,8.7-19.88,19.43-19.88C237.91,168.01,246.61,176.91,246.61,187.89z"/>
			<polygon class="st0" points="225.5,197.03 217.39,190.96 220.34,186.84 224.55,189.98 233.08,178.86 237.01,182.02 			"/>
		</g>
		<g class="st24">
			<path class="st1" d="M201.83,99.86c4.58,2.71,8.29,9.27,8.28,14.66c-0.02,5.42-3.75,7.59-8.33,4.89l-75.47-44.56
				c-4.58-2.71-8.29-9.27-8.28-14.69c0.02-5.38,3.75-7.56,8.33-4.85L201.83,99.86z"/>
		</g>
		<g class="st24">
			<path class="st1" d="M487.94,335.81c3.18,1.88,5.76,6.45,5.75,10.19c-0.01,3.76-2.61,5.28-5.79,3.4l-52.46-30.97
				c-3.18-1.88-5.76-6.45-5.75-10.21c0.01-3.74,2.6-5.25,5.79-3.37L487.94,335.81z"/>
		</g>
		<g>
			
				<linearGradient id="SVGID_13_" gradientUnits="userSpaceOnUse" x1="487.0512" y1="323.5099" x2="558.1031" y2="259.6144" gradientTransform="matrix(1 0 0 1 -454.1494 0)">
				<stop  offset="0" style="stop-color:#92F3FF"/>
				<stop  offset="1" style="stop-color:#FFFFFF"/>
			</linearGradient>
			<path class="st25" d="M126.29,280.03c1.94,1.15,1.95,3,0.02,4.14l-64.45,38.31c-1.93,1.15-5.05,1.15-7,0l-39.75-23.47
				c-1.94-1.14-1.95-3-0.02-4.14l64.45-38.31c1.92-1.14,5.06-1.14,7,0L126.29,280.03z"/>
		</g>
		<g>
			<g class="st26">
				<linearGradient id="SVGID_14_" gradientUnits="userSpaceOnUse" x1="69.9165" y1="389.6228" x2="164.5153" y2="389.6228">
					<stop  offset="0" style="stop-color:#5155D4"/>
					<stop  offset="1" style="stop-color:#45F7FF"/>
				</linearGradient>
				<path class="st27" d="M83.88,369.81c-18.53,10.94-18.63,28.68-0.22,39.63c18.41,10.94,48.36,10.94,66.89,0
					c18.53-10.94,18.63-28.69,0.22-39.63C132.36,358.87,102.41,358.87,83.88,369.81z"/>
			</g>
			<g>
				<path class="st28" d="M106.4,394.76c0,0-8.52,2.27-11.85,2.27s0,3.41,5.56,3.79c5.56,0.38,10.74,0.76,11.85-0.76
					c1.11-1.52-0.25-5.81-0.25-5.81L106.4,394.76z"/>
				<path class="st28" d="M130.11,386.81c0,0-8.52,2.27-11.85,2.27c-3.33,0,0,3.41,5.56,3.79c5.56,0.38,10.74,0.76,11.85-0.76
					c1.11-1.52-0.25-5.81-0.25-5.81L130.11,386.81z"/>
				<path class="st29" d="M131.96,292.73c0,0,3.09,86.63,3.58,95.72c0,0-2.47,2.02-5.43,1.01c0,0-10-56.83-11.48-71.47
					c-1.48-14.65-3.95-19.7-3.95-19.7L131.96,292.73z"/>
				<path class="st29" d="M100.35,297.78c0,0-2.96,50.01,5.93,98.5c0,0,2.96,1.52,5.43-2.02c0,0,5.43-84.86,6.91-96.98
					C120.11,285.15,104.3,295.25,100.35,297.78z"/>
				<path class="st29" d="M113.69,336.17c0,0,4.94-14.14,9.38-21.72c4.45-7.58,3.46-18.69,3.46-18.69l-16.79,1.52L113.69,336.17z"/>
				<path class="st12" d="M96.58,248.35l-14.68-7.28c0,0-4.45-4.55-5.56-5.46c-1.11-0.91-8.45-2.73-9.79-2.5
					c-1.33,0.23-3.78,2.27-3.11,2.73c0.67,0.45,6.89,3.87,7.12,5.23c0.22,1.36-2.22,3.18-1.33,4.09c0.89,0.91,2.89-0.91,4.23-0.91
					c1.33,0,5.11,1.82,5.11,1.82l14.23,8.41L96.58,248.35z"/>
				<g>
					<path class="st30" d="M127.89,233.76c0,0-2.72-3.03-7.16,2.78s-8.15,14.4-14.32,13.64c-6.17-0.76-16.3-5.81-16.3-5.81
						s-4.45,3.03-3.7,7.58c0,0,14.32,10.86,23.95,10.36c9.63-0.51,20-10.61,22.23-17.68C134.8,237.54,127.89,233.76,127.89,233.76z"
						/>
				</g>
				<path class="st30" d="M98.18,297.67c0.89,4.53,13.51,6.79,20.89,5.59c7.38-1.21,15.33-4.91,15.06-13.66
					c0,0,1.12-34.96,1.12-41.84c0-6.88-4.23-11.97-4.23-11.97s-4.13-4.83-17.12-2.11c0,0-10.58,2.36-15.45,10.36
					c0,0-3.36,8.79-2.24,27.13C97.33,289.5,98.18,297.67,98.18,297.67z"/>
				<path class="st16" d="M124.05,223.97c0,0-1.12,6.69,0,9.74c0.19,1.53-6.35,6.69-12.14,5.35c-3.36-0.76-3.18-2.48-3.18-2.48
					s2.8-4.78,2.43-9.36C110.78,222.63,120.12,223.01,124.05,223.97z"/>
				<g>
					<path class="st12" d="M102.19,210.5c0,8.71,6.9,15.76,15.41,15.76s15.41-7.06,15.41-15.76c0-8.71-6.9-15.76-15.41-15.76
						S102.19,201.79,102.19,210.5z"/>
					<path class="st12" d="M102.19,211.55c0,0-0.19,15.79,3.18,18.98c3.36,3.19,8.53-2.98,16.78-4.96
						c8.25-2.17-6.69-18.59-6.69-18.59L102.19,211.55z"/>
				</g>
				<g>
					<path class="st12" d="M83.11,263.21c0,0-21.58-9.83-24.48-11.5c-2.9-1.67-5.08-7.79-6.17-9.09c-1.09-1.3-5.98-4.27-5.8-2.97
						c0.18,1.3,2.72,3.71,2.72,3.71s-1.81,3.15-2.18,5.19c-0.36,2.04,2.36,6.12,3.81,7.23c1.45,1.11,4.9,1.48,4.9,1.48
						s17.59,12.05,20.49,12.24C79.31,269.7,83.48,268.03,83.11,263.21z"/>
					<path class="st30" d="M102.33,243.23c0,0-2.72-3.03-7.16,2.78c-4.45,5.81-8.15,14.4-14.32,13.64
						c-6.17-0.76-16.3-5.81-16.3-5.81s-4.45,3.03-3.7,7.58c0,0,14.32,10.86,23.95,10.36c9.63-0.51,20-10.61,22.23-17.68
						C109.24,247.02,102.33,243.23,102.33,243.23z"/>
				</g>
				<g>
					<path class="st19" d="M108.38,197.19c0,0-5.55,1.23-7.23,9.86c0.72,3.7,5.79,0.74,7.72,5.67c1.93,4.93,3.14,6.41,3.14,6.41
						l1.21-0.49c0,0,0-3.95,1.69-3.95s2.17,4.69,1.21,6.66c-0.96,1.97-3.13,2.96-3.13,2.96s2.41,4.19,3.62,4.69
						c1.21,0.49,5.55-0.49,7.23-1.23c1.69-0.74,4.82-4.19,7.23-8.14c2.41-3.95,4.58-10.85,3.14-15.54
						c-1.45-4.69-4.82-5.92-4.82-5.92s-1.93-2.71-5.31-3.95C120.67,193,114.41,192.5,108.38,197.19z"/>
					<path class="st19" d="M107.14,207.62c0,0,3.7,4.55,1.85,10.99c-1.85,6.44,0.74,6.44,3.33,14.77
						c2.59,8.33-4.82,18.18,2.22,30.31c7.04,12.12,25.93,10.61,34.45-1.52c8.52-12.12-4.82-20.84-5.19-31.82
						c-0.37-10.99,8.15-17.43-1.48-25c-9.63-7.58-13.71-15.91-25.56-12.5C104.92,196.25,101.96,202.31,107.14,207.62z"/>
				</g>
			</g>
		</g>
	</g>
</g>
</svg>
