<?xml version="1.0" encoding="utf-8"?>
<!-- Generator: Adobe Illustrator 24.0.1, SVG Export Plug-In . SVG Version: 6.00 Build 0)  -->
<svg version="1.1" id="Layer_1" xmlns="http://www.w3.org/2000/svg" xmlns:xlink="http://www.w3.org/1999/xlink" x="0px" y="0px"
	 viewBox="0 0 500 500" enable-background="new 0 0 500 500" xml:space="preserve">
<g>
	<g>
		
			<image overflow="visible" enable-background="new    " width="163" height="250" xlink:href="ADB6724.png"  transform="matrix(0.2109 1.117243e-05 -7.410755e-06 0.1399 26.1119 161.7328)">
		</image>
	</g>
	<g>
		
			<image overflow="visible" enable-background="new    " width="163" height="158" xlink:href="ADB672F.png"  transform="matrix(0.2096 1.110260e-05 -7.364437e-06 0.139 439.7263 193.9839)">
		</image>
	</g>
	<g>
		<g>
			<path id="SVGID_1_" fill="#005BA4" d="M58.3,195.3c30.3,25.8,142.8,75.3,220.3,77.1L262,315.2l-105.1-13.6L58.3,195.3z"/>
		</g>
		<g>
			<defs>
				<path id="SVGID_2_" d="M58.3,195.3c30.3,25.8,142.8,75.3,220.3,77.1L262,315.2l-105.1-13.6L58.3,195.3z"/>
			</defs>
			<clipPath id="SVGID_4_">
				<use xlink:href="#SVGID_2_"  overflow="visible"/>
			</clipPath>
			<g clip-path="url(#SVGID_4_)">
				
					<image overflow="visible" enable-background="new    " width="1063" height="754" xlink:href="ADB6721.png"  transform="matrix(0.2137 1.132153e-05 -7.509655e-06 0.1418 58.1938 195.0413)">
				</image>
			</g>
		</g>
	</g>
	<path fill="#E8525D" d="M58.3,195.3c0,0,16.1,15.2,46.1,32.8c37.6,21.9,98.6,46.9,132.9,52.7l-28.5,21.4
		c0,0-122.5-62.4-147.3-102.5C60.7,198.4,58.8,196.5,58.3,195.3z"/>
	<g>
		<g>
			<path id="SVGID_3_" fill="#005BA4" d="M58.3,195.3c38.8,44.1,116.7,87.2,159.5,87.6c42.7,0.4,197.6-55.2,215.5-65.9l-2.6,8
				c0,0-109.6,110.6-196.5,113.3S58.3,195.3,58.3,195.3z"/>
		</g>
		<g>
			<defs>
				<path id="SVGID_5_" d="M58.3,195.3c38.8,44.1,116.7,87.2,159.5,87.6c42.7,0.4,197.6-55.2,215.5-65.9l-2.6,8
					c0,0-109.6,110.6-196.5,113.3S58.3,195.3,58.3,195.3z"/>
			</defs>
			<clipPath id="SVGID_6_">
				<use xlink:href="#SVGID_5_"  overflow="visible"/>
			</clipPath>
			<g clip-path="url(#SVGID_6_)">
				
					<image overflow="visible" enable-background="new    " width="1317" height="908" xlink:href="ADB6722.png"  transform="matrix(0.2137 1.131924e-05 -7.508133e-06 0.1417 161.0722 206.8759)">
				</image>
			</g>
		</g>
		<g>
			<defs>
				<path id="SVGID_7_" d="M58.3,195.3c38.8,44.1,116.7,87.2,159.5,87.6c42.7,0.4,197.6-55.2,215.5-65.9l-2.6,8
					c0,0-109.6,110.6-196.5,113.3S58.3,195.3,58.3,195.3z"/>
			</defs>
			<clipPath id="SVGID_8_">
				<use xlink:href="#SVGID_7_"  overflow="visible"/>
			</clipPath>
			<g clip-path="url(#SVGID_8_)">
				
					<image overflow="visible" enable-background="new    " width="750" height="1067" xlink:href="ADB6723.png"  transform="matrix(0.214 1.133639e-05 -7.519508e-06 0.1419 50.8564 177.9577)">
				</image>
			</g>
		</g>
	</g>
	<path fill="#E8525D" d="M178.3,322.1C178.3,322.1,178.3,322.1,178.3,322.1c18.1,10.4,37,16.7,55.8,16.1c2.4-0.1,4.8-0.2,7.3-0.5
		c0.3,0,0.6-0.1,0.8-0.1c0.1,0,0.1,0,0.2,0c0.3,0,0.5-0.1,0.8-0.1c2.8-0.3,5.7-0.7,8.6-1.3c0.2,0,0.5-0.1,0.7-0.1
		c0.3,0,0.5-0.1,0.8-0.1c0.3,0,0.5-0.1,0.8-0.1c0.8-0.2,1.6-0.3,2.4-0.5c0.3-0.1,0.5-0.1,0.7-0.2c1.5-0.3,3-0.7,4.5-1.1
		c0.3-0.1,0.5-0.1,0.8-0.2c0.1,0,0.2-0.1,0.3-0.1c0.2-0.1,0.4-0.1,0.6-0.2c0.3-0.1,0.7-0.2,1-0.3c0.4-0.1,0.8-0.2,1.2-0.3
		c0.1,0,0.3-0.1,0.4-0.1c0.2-0.1,0.4-0.1,0.5-0.2c0.2-0.1,0.4-0.1,0.6-0.2c0.2-0.1,0.3-0.1,0.5-0.2c0.7-0.2,1.3-0.4,2-0.6
		c0.2-0.1,0.5-0.1,0.7-0.2c0.5-0.2,1-0.3,1.5-0.5c0.4-0.1,0.7-0.2,1.1-0.3c0.3-0.1,0.7-0.2,1-0.3c0.2-0.1,0.5-0.2,0.7-0.2
		c0.3-0.1,0.7-0.2,1-0.3c0.4-0.1,0.8-0.3,1.1-0.4c0.3-0.1,0.6-0.2,0.9-0.3c0.2-0.1,0.5-0.2,0.7-0.2c0.1,0,0.3-0.1,0.4-0.1
		c0.5-0.2,1.1-0.4,1.6-0.6c0.2-0.1,0.3-0.1,0.5-0.2c0.2-0.1,0.4-0.2,0.7-0.2c0.5-0.2,1-0.4,1.5-0.6c0.6-0.2,1.1-0.4,1.7-0.7
		c0.5-0.2,1-0.4,1.5-0.6c0.4-0.2,0.8-0.3,1.2-0.5c0.5-0.2,1-0.4,1.5-0.6c0.2-0.1,0.4-0.2,0.6-0.3c0.3-0.1,0.7-0.3,1-0.4
		c0.4-0.2,0.8-0.3,1.1-0.5c0.3-0.1,0.7-0.3,1-0.4c0.5-0.2,1.1-0.5,1.6-0.7c1-0.5,2.1-0.9,3.1-1.4c0.2-0.1,0.4-0.2,0.6-0.3
		c0.9-0.4,1.7-0.8,2.6-1.2c0.7-0.3,1.4-0.7,2.1-1c0.2-0.1,0.3-0.2,0.5-0.3c0.2-0.1,0.3-0.2,0.5-0.3c0.5-0.2,1-0.5,1.5-0.7
		c0.4-0.2,0.8-0.4,1.1-0.6c0.2-0.1,0.4-0.2,0.5-0.3c0.2-0.1,0.3-0.2,0.5-0.3c0.4-0.2,0.9-0.4,1.3-0.7c0.3-0.1,0.5-0.3,0.8-0.4
		c0.2-0.1,0.3-0.2,0.5-0.2c0.6-0.3,1.3-0.7,1.9-1c0.3-0.1,0.5-0.3,0.8-0.4c0.4-0.2,0.7-0.4,1.1-0.6c0.2-0.1,0.3-0.2,0.5-0.2
		c1-0.5,2-1.1,3.1-1.7c0.2-0.1,0.4-0.2,0.6-0.3c0.5-0.3,1.1-0.6,1.6-0.9c0.5-0.3,1-0.6,1.5-0.8c1-0.6,2.1-1.2,3.1-1.8
		c0.2-0.1,0.5-0.3,0.7-0.4c0.3-0.2,0.6-0.3,0.8-0.5c0.2-0.1,0.5-0.3,0.7-0.4c0.2-0.1,0.3-0.2,0.5-0.3c0.3-0.2,0.5-0.3,0.8-0.5
		c1-0.6,2-1.2,3-1.8c0.1-0.1,0.3-0.2,0.4-0.2c2.2-1.3,4.3-2.7,6.5-4c0.4-0.3,0.9-0.6,1.3-0.8c0.4-0.3,0.9-0.5,1.3-0.8
		c0.1-0.1,0.3-0.2,0.4-0.2c0.6-0.4,1.3-0.8,1.9-1.3c0.2-0.1,0.3-0.2,0.5-0.3c0.2-0.1,0.4-0.3,0.6-0.4c0.2-0.1,0.5-0.3,0.7-0.4
		c0.2-0.1,0.3-0.2,0.5-0.3c0.3-0.2,0.5-0.3,0.8-0.5c0.1-0.1,0.3-0.2,0.4-0.3c0.2-0.1,0.4-0.3,0.6-0.4c0.1-0.1,0.3-0.2,0.4-0.3
		c0.3-0.2,0.7-0.5,1.1-0.7c0.3-0.2,0.7-0.5,1-0.7c0.6-0.4,1.2-0.8,1.9-1.3c0.1-0.1,0.3-0.2,0.4-0.3c0.2-0.1,0.4-0.3,0.6-0.4
		c0.1-0.1,0.3-0.2,0.4-0.3c0.6-0.4,1.1-0.8,1.7-1.2c0.3-0.2,0.6-0.4,0.9-0.7c0.3-0.2,0.5-0.4,0.8-0.6c0.3-0.2,0.6-0.4,0.9-0.6
		c0.3-0.2,0.6-0.4,0.9-0.6c0.6-0.4,1.1-0.8,1.7-1.2c0.2-0.1,0.3-0.2,0.5-0.3c0.5-0.4,1-0.7,1.5-1.1c0.2-0.1,0.3-0.2,0.5-0.4
		c0.2-0.1,0.3-0.2,0.5-0.4c0.1-0.1,0.3-0.2,0.4-0.3c0.2-0.2,0.5-0.3,0.7-0.5c0.2-0.1,0.3-0.2,0.4-0.3c0.4-0.3,0.9-0.7,1.4-1
		c0.4-0.3,0.9-0.7,1.3-1c0.2-0.2,0.5-0.3,0.7-0.5c0.1-0.1,0.3-0.2,0.4-0.3c1.3-0.9,2.5-1.9,3.8-2.8c0.1-0.1,0.3-0.2,0.4-0.3
		c0.3-0.2,0.6-0.4,0.9-0.7c0.4-0.3,0.9-0.7,1.3-1c0.3-0.2,0.6-0.4,0.9-0.7c0.7-0.5,1.4-1.1,2.1-1.6c0.3-0.2,0.6-0.4,0.8-0.6
		c0.3-0.2,0.6-0.4,0.8-0.6c0.6-0.4,1.1-0.9,1.6-1.3c0.3-0.2,0.5-0.4,0.8-0.6c0.1-0.1,0.3-0.2,0.4-0.3c0.3-0.2,0.5-0.4,0.8-0.6
		c0.1-0.1,0.3-0.2,0.4-0.3c0.3-0.2,0.5-0.4,0.8-0.6c0.7-0.5,1.3-1.1,2-1.6c0.3-0.2,0.5-0.4,0.8-0.6c0.1-0.1,0.3-0.2,0.4-0.3
		c0.4-0.3,0.8-0.6,1.2-0.9c0.2-0.1,0.4-0.3,0.6-0.5c0.2-0.2,0.4-0.3,0.6-0.5c0.1-0.1,0.3-0.2,0.4-0.3c0.3-0.2,0.5-0.4,0.8-0.6
		c0.1-0.1,0.3-0.2,0.4-0.3c0.4-0.3,0.8-0.6,1.1-0.9c0.1-0.1,0.3-0.2,0.4-0.3c0.2-0.1,0.4-0.3,0.5-0.4c0.3-0.3,0.6-0.5,0.9-0.8
		c0.1-0.1,0.2-0.2,0.4-0.3c0.3-0.3,0.6-0.5,0.9-0.8c0.2-0.1,0.3-0.3,0.5-0.4c0.2-0.2,0.5-0.4,0.7-0.6c0.6-0.5,1.2-1,1.8-1.5
		c0.2-0.2,0.5-0.4,0.7-0.6s0.5-0.4,0.7-0.6c0.7-0.6,1.4-1.2,2-1.7c0.1-0.1,0.2-0.2,0.3-0.3c0.4-0.4,0.9-0.8,1.3-1.1
		c0.1-0.1,0.2-0.2,0.3-0.3c0.2-0.2,0.4-0.4,0.6-0.6c0.4-0.4,0.9-0.7,1.3-1.1c0.2-0.1,0.3-0.3,0.5-0.4c0.1-0.1,0.2-0.2,0.3-0.3
		c0.1-0.1,0.2-0.2,0.3-0.3c0.2-0.1,0.3-0.3,0.5-0.4c1-0.9,2-1.8,3-2.6c0.3-0.3,0.6-0.5,0.9-0.8c3.1-2.8,6-5.3,8.4-7.6
		c0.2-0.1,0.3-0.3,0.4-0.4c0.1-0.1,0.3-0.3,0.4-0.4c0.1-0.1,0.3-0.3,0.4-0.4c0.1-0.1,0.1-0.1,0.2-0.2c0.1-0.1,0.3-0.3,0.4-0.4
		c0.1-0.1,0.1-0.1,0.2-0.2c0.1-0.1,0.3-0.3,0.4-0.4c1.5-1.4,2.8-2.6,3.9-3.7c0.1-0.1,0.2-0.2,0.3-0.3c3.4-3.2,5.2-5,5.2-5l1.1-3.3
		C338.1,286,201.7,329.8,178.3,322.1z"/>
	
		<image overflow="visible" enable-background="new    " width="71" height="83" xlink:href="ADB6727.png"  transform="matrix(0.1881 9.966227e-06 -6.610670e-06 0.1248 427.9076 214.3734)">
	</image>
	
		<image overflow="visible" enable-background="new    " width="42" height="71" xlink:href="ADB6720.png"  transform="matrix(0.1893 1.002692e-05 -6.650931e-06 0.1256 57.2657 193.6483)">
	</image>
</g>
</svg>
